<?xml version="1.0" standalone="no"?>
<!DOCTYPE svg PUBLIC "-//W3C//DTD SVG 1.1//EN" "http://www.w3.org/Graphics/SVG/1.1/DTD/svg11.dtd" >
<svg xmlns="http://www.w3.org/2000/svg">
<metadata></metadata>
<defs>
<font id="adelyneregular" horiz-adv-x="1026" >
<font-face units-per-em="2048" ascent="1638" descent="-410" />
<missing-glyph horiz-adv-x="1099" />
<glyph horiz-adv-x="2048" />
<glyph horiz-adv-x="2048" />
<glyph unicode="&#xd;" horiz-adv-x="2048" />
<glyph unicode=" "  horiz-adv-x="1099" />
<glyph unicode="&#x09;" horiz-adv-x="1099" />
<glyph unicode="&#xa0;" horiz-adv-x="1099" />
<glyph unicode="!" horiz-adv-x="907" d="M246 -98q14 55 24.5 94t22.5 72.5t30.5 65.5t49.5 71q27 12 47 12h8q35 -6 51.5 -29.5t22.5 -42.5v-8q0 -78 -72 -153h-2q-10 -10 -33.5 -23.5t-51.5 -27t-54.5 -22.5t-42.5 -9zM430 442q0 27 10 64q8 37 24.5 78t35 79.5t36 72.5t27.5 59q82 152 147.5 287t143.5 282 q31 53 52.5 90t43 73t46 79t61.5 106l18 -168q-4 -70 -33.5 -164t-73.5 -198.5t-95.5 -213t-98.5 -206.5q-25 -53 -53.5 -109.5t-57 -108.5t-60.5 -94t-62 -63q-20 -14 -43 -14t-47 18q-18 14 -19 47q-2 2 -2 4z" />
<glyph unicode="&#x22;" horiz-adv-x="1003" d="M651 858l4 111q27 127 117 272q109 176 275 240q-10 -45 -21.5 -87t-26.5 -83q10 10 19.5 20t19.5 21q16 18 32.5 38.5t27.5 43.5q53 121 245 163q-82 -266 -163 -409q-115 -199 -332 -361q16 90 30.5 139.5t28.5 84.5l43 133l-30 -60v-2q-104 -193 -269 -264z" />
<glyph unicode="#" horiz-adv-x="1771" d="M260 434q0 25 19.5 49.5t56.5 36.5q49 12 82 20.5t61.5 15.5t56 13t68.5 15q8 0 23.5 14t32 37.5t36 52.5t37.5 60l-74 -13q-57 -10 -123.5 -26.5t-138.5 -26.5q-29 0 -49 14q-18 8 -18 39v6q10 25 22 35l4 4q63 70 236 84q86 8 147.5 16.5t71.5 10.5q16 25 41 59.5 t59 100.5q14 27 24.5 50t20.5 40q8 18 18.5 40.5t16.5 41.5q74 -39 90 -74q2 -4 9 -10v-4q0 -10 -3 -19l-20 -60t-43 -124q20 6 52 10t61.5 7t52 7.5t24.5 10.5q4 10 20.5 37.5t42.5 62.5t55.5 75t58 72.5t54 54t42.5 23.5q20 0 20 -41q-35 -74 -59.5 -123t-39.5 -79.5 t-22.5 -46t-7.5 -21.5q2 0 37 1t90 3h107q51 -2 91 -8t46 -16l-61 -70l-396 -41q-22 -27 -60 -70t-81 -104q25 -6 47 -6q6 0 8 2h39q12 0 27 -2q35 0 88 6q20 2 39.5 3t38.5 1h16q45 -4 70 -14q16 -10 16 -29q0 -10 -6 -23q-10 -20 -41 -32.5t-71 -20.5t-83 -13t-73 -11 q-63 -8 -121 -12.5t-84 -12.5q-10 -2 -23.5 -19.5t-30 -43t-38 -56.5t-47.5 -61q-29 -35 -64 -40t-94 -11l41 114q4 12 16.5 29.5t28.5 58.5q-27 -12 -53.5 -17t-48 -7t-38 -6t-22.5 -13q-18 -25 -40.5 -58.5t-45 -66t-42 -58.5t-30.5 -34q-23 -16 -43 -16q-2 -2 -4 -2 q-18 0 -32 10q-14 8 -21 29q-2 4 -2 14t6 27q14 31 30.5 64.5t27.5 49.5v2q-47 -6 -75 -8t-75 -6q-8 -2 -23 -2q-25 0 -38 12q-20 14 -21 37zM819 629q0 -2 6 -2q4 0 11.5 1t17.5 3q41 10 107 18l26 21q10 14 17.5 25.5t17.5 24.5t25.5 34.5t39.5 56.5q-63 -8 -97 -14 t-49 -10.5t-18 -7.5t-5 -7l-99 -141v-2z" />
<glyph unicode="$" horiz-adv-x="1388" d="M94 410q0 10 1 18t3 18q6 37 36 74t65 58q29 16 53 16h14q31 -6 43 -53q-35 -39 -48 -71t-13 -64q0 -14 11 -34t52 -75q2 -2 10.5 -7t17.5 -11.5t18.5 -12.5t11.5 -8q41 98 63.5 181t44.5 161l6 23q-2 0 -2 4q-16 2 -54 13t-62 22q-59 29 -85 58.5t-30 59.5v15q0 16 2 24 q10 55 64.5 93t160.5 89q94 45 158.5 62.5t69.5 28.5q4 6 12 22t18 45v-2q10 27 23.5 58.5t29 63.5t28.5 61.5t24 52.5q10 -16 20 -38t19 -48q10 -35 10 -62q0 -14 -4 -35q-4 -14 -10.5 -47t-16.5 -61q2 2 16 2h21q27 -4 104 -12q14 14 63.5 98t135.5 213q4 -23 7 -47.5 t7 -50.5v-37q0 -41 -6 -86q-4 -10 -9 -27.5t-9 -28.5q-8 -23 -17.5 -48t-13.5 -44q18 -10 41 -23.5t42.5 -28.5t32.5 -33.5t13 -39.5q-4 -33 -20 -41q-16 -10 -39 -10h-8q-29 2 -65 12.5t-73 22.5q-4 -6 -15 -29.5t-23.5 -50.5t-22.5 -51.5t-16 -36.5q-2 -2 -3 -4 q0 -4 9 -10q12 -12 39.5 -33t56.5 -64q23 -41 22 -82v-10q-4 -61 -41.5 -126.5t-91 -121t-116 -94.5t-117.5 -47q-23 -53 -39 -84t-31.5 -47t-30 -21.5t-30.5 -5.5q-23 0 -33 11q-18 8 -18 32q-2 2 -2 5q0 20 16 81h-80q-43 0 -48 -2t-7 -8q-14 -39 -45 -55q-23 -14 -49 -14 h-7q-29 4 -43 22q-12 8 -12 31q0 6 4 22l6 23q0 2 -10 6q-8 2 -8 6q-74 37 -125 96.5t-68 126.5q-8 25 -8 52zM434 807q16 -6 27.5 -11t27.5 -5l35 -5h2q14 0 27 17q16 18 37 82q-41 -8 -81 -31t-75 -47zM516 233l25 5q33 6 57 6q23 0 33 16q12 18 34.5 68.5t47 108 t44 108.5t25.5 69q0 10 -22 11q-25 0 -58 6q-12 0 -25 -3t-28 -22q-12 -16 -34.5 -69.5t-44 -115t-38 -115.5t-16.5 -73zM727 776q0 -8 2 -10q8 -2 16.5 -3t18.5 -3q6 -2 22 -2h21q12 0 27 2q6 2 20 25.5t29.5 53t29 56.5t17.5 37q-10 4 -45 5t-51 1q-18 0 -27.5 -5 t-19 -22.5t-22.5 -49.5t-38 -85zM819 293q103 69 150 145q35 57 35 90q0 10 -3 17q-14 23 -23 26.5t-32 14.5z" />
<glyph unicode="%" horiz-adv-x="1603" d="M328 657q0 6 2 11q2 43 27.5 96t60.5 103.5t71.5 90t63.5 58.5q33 18 67.5 40.5t92.5 35.5q14 2 29.5 3t31.5 1h21q20 -2 36.5 -12.5t26.5 -22.5q33 -4 68 -8t76.5 -10.5t94 -14.5t120.5 -20q29 -6 56 -12.5t50 -24.5q10 -10 16.5 -25.5t6.5 -42.5q-6 -23 -33 -60.5 t-65 -80.5t-82 -88t-85 -82q-35 -31 -70.5 -60.5t-70.5 -62.5q-35 -31 -70.5 -62.5t-70.5 -60.5q-37 -33 -80 -67.5t-69.5 -61.5t-26.5 -41q0 -2 2 -4q4 -16 57 -16q59 -10 84 -25q12 -10 12 -20q0 -8 -10 -23l-111 -35q-47 0 -80.5 1t-56 12.5t-35 34t-14.5 65.5v10 q27 121 195 270q6 4 25.5 19.5t47.5 38.5q35 29 84 70.5t117 99.5q72 59 126 110.5t60 77.5q-6 6 -18 10.5t-29 10.5q-41 16 -90 23t-96 7q-39 0 -164 -143q-37 -43 -77 -80t-76.5 -64.5t-70.5 -44t-59 -16.5q-70 0 -94 29q-25 27 -24 63zM522 772q27 14 46.5 24.5 t33.5 20.5q59 41 72 101v2q-14 -8 -31.5 -21.5t-38.5 -34.5q-68 -55 -82 -92zM866 147q0 6 2 9q0 14 11 41q27 59 83 118.5t154 118.5q29 16 68 27q10 2 22.5 3t22.5 1q16 0 26 -2q37 -4 70 -16.5t55 -32.5q47 -43 47 -117q0 -10 -1 -25.5t-5 -29.5q-25 -117 -159 -187 q-53 -25 -108.5 -39t-115.5 -14q-10 0 -29.5 6t-41 17.5t-42 26t-32.5 30.5q-14 18 -23 43q-4 12 -4 22zM1038 190q0 -8 6 -16q10 -18 48 -24q6 -2 14 -3q18 0 43 11q25 8 55 28q20 16 43 42t27 55v4q0 14 -12 30q-18 18 -54 19h-4q-12 0 -28 -8q-35 -16 -75 -49t-57 -66 q-6 -12 -6 -23z" />
<glyph unicode="&#x26;" horiz-adv-x="1122" d="M94 340v16q0 8 2 17q10 66 60 106q16 12 52 46t101 65q2 10 25 33v14q0 12 6 40t18 85q8 31 19.5 69.5t30 86t49 106.5t78.5 133q20 31 50.5 68t90.5 90q35 33 72.5 57.5t76.5 44.5q57 29 119 29q12 0 24.5 -1t24.5 -3q31 -6 51.5 -23.5t28.5 -52.5q2 -10 2 -37 q0 -12 -1 -25.5t-3 -27.5q-8 -53 -37 -137q-37 -70 -74.5 -128.5t-85.5 -111.5q-10 -16 -48 -54t-89 -84t-109.5 -93t-109.5 -80q-12 -12 -26.5 -24.5t-26.5 -28.5q4 -14 11 -47t9 -50q74 49 128.5 86t88.5 58q53 29 95 30h16q29 0 45 -10q14 -8 14 -31v-14q-8 -33 -55 -76 q-45 -33 -74.5 -53t-53 -35.5t-45 -27t-46.5 -23.5q-6 -8 -15.5 -18.5t-15.5 -18.5l-4 4v-4q0 -4 1 -8l3 -12q6 -35 14.5 -88.5t10.5 -112.5v-6q0 -55 -21 -88l-16 -19q-31 -25 -57 -24q-49 0 -86 69q4 16 6 35t6 35l-2 82q-2 2 -2 8q0 10 -2 12l-113 -41q-23 -6 -43 -6 q-43 0 -76 25q-53 35 -73 88q-18 39 -19 86zM266 360q0 -6 4 -18q6 -16 25 -31h4l12 -4l15 4l6 2q8 0 14 2q10 10 14.5 15.5t6.5 7.5q-2 6 -4.5 16.5t-2.5 14.5q-4 10 -8 23.5t-16 49.5q-12 -8 -23.5 -16t-21.5 -14q-6 -8 -13.5 -19.5t-9.5 -23.5q-2 -2 -2 -9zM479 719 q6 0 36 24.5t66.5 59.5t73.5 70.5t60 58.5q14 16 49 62t71.5 100.5t65.5 105.5t31 80v6q0 16 -17 17h-4q-12 -2 -24.5 -3.5t-26.5 -5.5q-39 -6 -97 -62t-153 -204q-70 -92 -100.5 -174t-30.5 -129v-6z" />
<glyph unicode="'" horiz-adv-x="595" d="M467 1069q0 10 2 16q4 41 27.5 92.5t55.5 103.5t65.5 101.5t62.5 87.5q6 8 18.5 22.5t25.5 32t26.5 33t21.5 25.5q8 -18 11 -25.5t7.5 -16.5t10.5 -28.5t20 -62.5l-2 -4q-6 -39 -16 -73t-27 -66q-20 -39 -38.5 -63.5t-39.5 -53.5q-35 -53 -64.5 -109.5t-68.5 -81.5 q-16 -10 -33 -10q-12 0 -24 6q-41 29 -41 74z" />
<glyph unicode="(" horiz-adv-x="1120" d="M47 289q4 86 14.5 159.5t34 148.5t64.5 157t106 180q39 57 89.5 126.5t108.5 137.5t123.5 127t135.5 96q68 35 121 47q10 2 20 2h23q41 0 94 -12q-68 -70 -118 -115t-93 -79q-47 -41 -91 -76t-67 -60q-145 -172 -245.5 -336.5t-128.5 -295.5q-10 -41 -15.5 -93.5 t-5.5 -105.5t7 -104.5t28 -98.5q84 -174 352 -200q-92 -41 -151.5 -62.5t-100.5 -21.5q-16 0 -18 2h4q-172 18 -258 251q-16 41 -24.5 94.5t-8.5 131.5z" />
<glyph unicode=")" horiz-adv-x="1003" d="M168 -152q0 2 3 14.5t19 65.5q131 104 233.5 197.5t176.5 179.5q78 88 128 187.5t73 197.5q10 41 13 82t3 78q0 51 -6 101t-23 98q-10 39 -39.5 75.5t-67.5 68.5t-82 58.5t-83 46.5q-70 39 -70 74q0 6 3 10q12 35 110 35h10q51 -10 111.5 -35.5t115 -66.5t97.5 -97.5 t59 -125.5q18 -70 25.5 -133.5t7.5 -122.5q0 -49 -4 -95.5t-12 -91.5q-12 -94 -58.5 -184t-102.5 -162t-113.5 -128t-93.5 -85t-38 -31l-168 -145q-92 -61 -138 -88t-64 -27q-12 0 -17 11q-8 14 -8 38z" />
<glyph unicode="*" horiz-adv-x="1392" d="M147 563l48 131q45 90 170 209h-3q20 23 39 40.5t33 29.5l2 2q-18 10 -31.5 19.5t-21.5 13.5q-14 8 -23.5 13t-13.5 7q-104 70 -104 178l258 -71q-4 6 -17.5 22.5t-29 34.5t-27.5 33.5t-14 21.5q-35 55 -43 101q-2 2 -2 16q2 27 4 41t7 26.5t14 25.5t28 38 q94 -53 147 -135q31 -47 49.5 -78t30.5 -49.5t18.5 -27.5t12.5 -13q12 20 28.5 52t32.5 67q12 23 34 54.5t47.5 62t51 55t48.5 35.5q12 4 18 4q4 0 16 -4q12 -12 13 -52q-12 -20 -28.5 -64t-33.5 -77q-10 -23 -19 -46.5t-20 -49.5l-14 -82q2 -2 25 -2q80 -10 155.5 -15.5 t141.5 -31.5q-82 -53 -157 -83t-167 -48q10 -8 24.5 -18.5t30.5 -20.5q158 -111 191 -162q18 -35 18 -59q0 -35 -21.5 -49.5t-39.5 -14.5q-4 0 -17.5 3t-36.5 7q-12 6 -32.5 16.5t-42 21.5t-41 21.5t-31.5 16.5q10 -68 20.5 -142.5t20.5 -133.5h-12q-31 0 -60 16 q-51 29 -87 82t-48 94q-4 -12 -9 -29.5t-11 -37.5q-4 -17 -8.5 -29t-8.5 -23v-14q-2 -14 -7 -42t-7 -40q-12 -4 -17 -4q-14 0 -24 16q-16 23 -23.5 64t-7.5 94v205q0 23 -1 40t-3 27q-16 -12 -34.5 -25t-37.5 -28q-117 -111 -209 -175t-131 -81z" />
<glyph unicode="+" horiz-adv-x="1163" d="M106 481v6q0 20 9 35q10 18 25.5 35.5t21.5 24.5q86 18 176 28.5t178 10.5q4 0 6 2q29 53 47.5 89t32.5 58q27 49 72 105.5t106 117.5q16 -4 25 -8q8 -6 8 -31v-8q-2 -35 -24.5 -105.5t-77.5 -199.5q0 -10 -2 -10q8 -8 73 -8q6 0 23.5 2t50.5 7t86 16t133 30l-90 -115 q-29 -25 -67.5 -44t-110.5 -36q-18 -6 -43 -10t-50.5 -7t-48 -4t-32.5 -1q-4 0 -15.5 -20.5t-21.5 -65.5q-20 -59 -35.5 -100.5t-30.5 -63.5q-23 -47 -73.5 -97.5t-124.5 -103.5q2 14 8 42t13 57.5t14.5 56.5t11.5 39q2 2 2 8q0 8 2 10q25 86 38 133t13 52q10 31 37 71 q-12 0 -14 2q-55 0 -105.5 -14t-99.5 -25q-29 -6 -53 -6h-17q-45 0 -45 6q-27 14 -31 39z" />
<glyph unicode="," horiz-adv-x="665" d="M119 -412q57 145 149 244q43 47 68.5 74.5t36.5 44.5h-2q23 41 47 87t49 99q25 37 40 56.5t27.5 29.5t24.5 15.5t31 11.5q6 2 16 2q20 0 33 -14q14 -20 14 -33v-4q-8 -80 -32.5 -146.5t-55 -119t-61.5 -89t-53 -61.5q-103 -121 -332 -197z" />
<glyph unicode="-" d="M190 369v2l5 10q6 16 22 47t39 59q109 33 170 41.5t96 8.5q51 0 101 6q45 6 94 6q37 0 73.5 -2t77.5 -10l17 -111q-39 -12 -88 -22.5t-107 -16.5q-55 -4 -100 -7t-80 -3q-10 0 -25.5 -3t-38.5 -7h-88q-37 0 -64.5 1t-51.5 1h-52z" />
<glyph unicode="." horiz-adv-x="524" d="M238 131q2 2 9 17.5t16 35t13 23.5l179 69q33 -68 32 -108v-10q-4 -66 -45 -103t-86 -47q-22 -6 -34 -6t-19 2q-27 23 -43 42.5t-18 37.5z" />
<glyph unicode="/" horiz-adv-x="1179" d="M94 59q0 12 6 35q12 37 41 82t60.5 89t60.5 81t41 55q16 25 33.5 51.5t36.5 47.5q66 63 114 121.5t101 136.5q129 186 214 281.5t107 119.5q20 23 41 40.5t41 29.5q25 16 68 23.5t96 7.5q-29 -66 -70 -125.5t-92 -120.5q-31 -39 -67.5 -85t-75.5 -100q-53 -72 -95 -127 t-82 -106t-80 -99t-89 -104q-31 -33 -64.5 -77t-70.5 -91q-43 -57 -85 -107t-71 -79q-29 -31 -53 -31q-47 0 -60 25q-6 8 -6 26z" />
<glyph unicode="0" horiz-adv-x="1079" d="M-12 203v12q0 14 2 32.5t8 41.5h-2q10 66 45 133t88 153q57 84 127 164t176 191q49 51 101.5 94t102.5 77t95 57.5t80 35.5q35 10 63 10q33 0 60 -8q61 -18 96 -66q59 -90 60 -215q0 -16 -3.5 -36.5t-7.5 -47.5q-4 -16 -7 -34.5t-11 -38.5q-45 -119 -129 -233.5 t-191 -221.5q-70 -70 -128 -118t-116.5 -81.5t-121 -55t-139.5 -36.5q-25 -4 -46.5 -7t-39.5 -3q-31 0 -56.5 9t-44.5 22q-61 49 -61 170zM150 225q0 -29 20 -49q18 -20 39 -20q6 0 11 1t18 1q49 14 109.5 48t113.5 66q45 27 81 54.5t64.5 55.5t53 57.5t51.5 62.5 q33 43 63.5 81t59 82t57.5 98t57 132q6 14 6 41v14q-4 76 -53 117q-20 16 -45 16q-10 0 -16 -2l-15 -4q-66 -12 -231 -190h2q-86 -92 -160 -180.5t-141 -192.5q-45 -68 -89 -142.5t-54 -131.5q-2 -6 -2 -15z" />
<glyph unicode="1" horiz-adv-x="714" d="M20 6v8q4 20 7 29q12 53 54 128t107 191q29 51 56.5 98.5t56.5 95.5t60.5 100.5t68.5 113.5q-25 -8 -50.5 -12t-47.5 -8q-8 -2 -26.5 -7.5t-38 -10.5t-37 -9t-25.5 -4q-43 4 -57.5 13t-14.5 36q0 8 2 15.5t12 17.5q14 12 54.5 35.5t89.5 50t98 51.5t82 39 q23 16 54.5 29.5t62.5 40.5q18 12 35.5 30.5t42 41t58.5 48t85 54.5q43 -29 43 -60q0 -18 -2 -20l-182 -314q-37 -57 -82 -119.5t-86 -121.5q-82 -113 -137.5 -219.5t-108.5 -219.5q-8 -14 -22.5 -36.5t-24.5 -32.5q-25 -25 -61.5 -40t-116.5 -38h-4q-4 0 -5 6z" />
<glyph unicode="2" horiz-adv-x="1196" d="M12 203q0 14 2 29.5t4 25.5q12 59 56.5 111.5t118.5 87.5q45 18 94 35.5t127 23.5h26q37 0 84 -6q18 -2 36 -6t34 -15q14 12 29.5 25.5t35.5 30.5q33 27 66 54.5t66 59.5q20 20 37.5 38t33.5 32q33 31 57.5 56.5t53.5 62.5q47 59 62.5 103t21.5 69q0 4 2 6q-2 2 -23 2 q-39 0 -109.5 -4t-148.5 -22.5t-149.5 -58.5t-112.5 -114q-16 -23 -24 -30l-17 -4h2q-4 0 -24.5 -2t-36.5 -2q-2 -2 -6 -3q-6 0 -9 3l-16 8l-2 41q31 82 84 140t117.5 98t134 63.5t133 36t117 15.5t82.5 3q115 -10 147 -70q25 -49 25 -114v-23q0 -10 -2 -20 q-6 -47 -48.5 -115t-111.5 -139q-25 -25 -68 -69t-93 -94t-101 -99.5t-90 -83.5q2 -25 18 -68v2q8 -27 16.5 -53.5t12.5 -44.5q2 -10 7 -23.5t13 -29.5q4 -10 26.5 -16.5t39.5 -10.5h8q8 0 10 2q43 27 91 42t83 17h2q31 0 41 -18q2 -2 2 -10q0 -18 -24.5 -49t-43 -48.5 t-37 -29t-40 -18.5t-47.5 -15q-16 -4 -28.5 -8t-27.5 -6h-32q-10 2 -21.5 3t-25.5 5q-82 37 -121 119v-2q-29 59 -54.5 104t-29.5 45q-10 0 -52 -30.5t-108 -84.5q-143 -119 -233 -118q-82 0 -119 81q-23 61 -23 97zM178 190q35 8 125 70q68 51 111 98q-10 2 -16.5 3t-8.5 1 h-29q-66 0 -113.5 -38.5t-64.5 -118.5q-2 -2 -2 -8q0 -4 -2 -7z" />
<glyph unicode="3" horiz-adv-x="1075" d="M6 182q0 16 2 33.5t8 40.5h-2q12 59 60 90q20 12 43 12q37 0 94 -57q-10 -18 -23.5 -40.5t-13.5 -51.5q-2 -2 -2 -4q0 -14 10 -39q4 -12 27.5 -16.5t60.5 -4.5q156 0 320 129h-2q164 133 200 291q6 37 7 56q0 2 -1 7l-3 15q-4 12 -31 12q-29 0 -74 -15t-113 -42 q-63 -23 -108 -23q-31 2 -47.5 8.5t-26.5 22.5q-4 6 -6 17.5t-2 21.5q4 10 13.5 23.5t17.5 21.5q16 14 38.5 22.5t53.5 18.5q104 25 188 64t143.5 83t93.5 88t38 78v7q0 43 -56 55q-4 2 -16 2t-23 -2q-14 -2 -27 -6t-28 -8q-23 -2 -46 -7.5t-60 -15.5q-20 -4 -49 -20.5 t-64 -34.5q-35 -20 -86 -42t-143 -48q31 39 79 90t101 99t108.5 85t100.5 47q51 14 110 17q8 2 17 2h16q25 0 49.5 -3.5t48.5 -7.5q55 -10 97.5 -51t58.5 -127q-4 -66 -42 -118t-91 -93q-29 -22 -59.5 -47.5t-59.5 -44.5q35 -29 49 -59q20 -39 21 -86q0 -14 -2 -29.5 t-4 -26.5q-25 -111 -98.5 -212t-190.5 -187q-238 -172 -459 -172q-117 0 -176 66q-39 45 -39 116z" />
<glyph unicode="4" horiz-adv-x="1112" d="M33 653q14 57 66.5 139t122 163t144 148.5t134.5 96.5h8q6 0 22 -4q33 -12 43 -53v-8q0 -20 -12 -45q-18 -47 -57 -93.5t-92 -105.5q-18 -23 -36 -44.5t-34 -37.5q-16 -20 -30.5 -39.5t-30.5 -38.5q-4 -6 -11.5 -14t-9.5 -12q53 -10 92 -15.5t88 -5.5q16 0 39 2t47.5 4 t47 5t40.5 5q16 12 29.5 40t30.5 53l20 34q20 35 38 64t54 82q49 86 87 134t98 81q18 12 37 12h8q20 -4 43 -31q-18 -57 -49 -122.5t-72 -141.5q-6 -12 -13 -24.5t-20.5 -33t-33 -53t-50.5 -85.5q0 -2 -1 -4.5t-1 -4.5q41 -10 77 -14t58 -16q31 -16 47.5 -37t16.5 -49 q-6 -12 -19.5 -21.5t-45 -16.5t-90 -11.5t-154.5 -6.5l-177 -319q-96 -166 -237 -211l4 137v4q0 20 14 49q16 41 49 99.5t65 112t56.5 93t24.5 44.5l-88 2h-4q-2 -2 -17 -2h-92q-23 0 -26 2q-125 0 -186.5 26.5t-61.5 87.5z" />
<glyph unicode="5" horiz-adv-x="1300" d="M23 229q4 35 15 56.5t32 38.5q10 8 33.5 18t82.5 31q-6 -29 -10 -54.5t-4 -29.5q0 -49 38 -79t90 -46.5t108.5 -21.5t93.5 -5q143 0 307 84q47 20 88 75.5t41 154.5q0 68 -66 114q-70 51 -190 51h-33q-16 0 -40.5 -5t-84.5 -23q-190 -53 -256 -53l-86 4q16 74 51 139 t95 119q98 96 116 188q12 45 13 113h180q10 -2 18 -2h41q14 2 31 2q16 0 35 2q131 2 303 37q88 16 201.5 27.5t249.5 11.5q-203 -129 -435 -189q-68 -18 -119 -33.5t-106 -31.5q-31 -12 -83 -22.5t-105 -14.5h-19q-14 0 -26.5 1t-24.5 3l-125 -160q12 2 21.5 4t25.5 6 q45 10 75 13.5t73 5.5q2 -2 8 -2q221 0 321 -82q41 -35 64.5 -88.5t23.5 -118.5q0 -123 -43 -211t-119.5 -144.5t-180 -84t-222.5 -27.5q-123 0 -293 47q-205 70 -204 182z" />
<glyph unicode="6" horiz-adv-x="1042" d="M10 231q0 12 2 27.5t2 28.5q14 49 43 112q25 49 47.5 87t53 82t76 99.5t116.5 139.5q141 160 261 266.5t243 169.5q66 -53 78 -156h-53q-10 0 -22.5 -2t-22.5 -4q-92 -86 -179.5 -182t-181.5 -213q-59 -72 -98 -122t-66.5 -88t-45 -69.5t-34.5 -64.5q-4 -10 -8 -18.5 t-8 -18.5q109 102 233 168q150 72 267 72q29 0 56.5 -3t55.5 -14q90 -29 123 -88q8 -16 10.5 -28.5t2.5 -28.5v-33q-6 -37 -29 -71v2q-84 -176 -334 -246q-115 -31 -221 -31q-96 0 -172 25q-137 39 -180 133q-14 27 -15 69zM283 184q4 -4 11 -5t13 -3q33 -12 82 -12 q72 0 164 24q104 31 164.5 70t81.5 74q8 14 8 28t-10 25q-16 16 -54 16q-16 0 -24 -2q-41 -4 -96.5 -19t-122.5 -50q-61 -33 -119.5 -72t-97.5 -74z" />
<glyph unicode="7" horiz-adv-x="1089" d="M135 1022q0 33 15 59q14 37 69 49l309 7q35 0 78 3t90 11q45 6 66.5 8t38.5 2q16 0 36.5 2t63.5 8q27 4 52.5 7.5t52.5 7.5q98 12 184 12h78q-31 -70 -104.5 -168t-190.5 -233q-31 -37 -61.5 -71t-61.5 -69q16 -2 34.5 -4t39.5 -6l16 -110q-39 -12 -88 -22.5t-107 -16.5 q-12 -2 -23 -3t-24 -1q-47 -51 -92 -99.5t-92 -95.5q-123 -125 -216 -197.5t-151 -95.5q2 45 8.5 86t23 82t47 83t81.5 89q33 31 69 63.5t73 67.5q-63 4 -84 17.5t-25 35.5q0 4 -12.5 23.5t-16.5 44.5q55 16 97.5 25.5t78 14.5t66.5 7t63 2q41 47 124 140.5t212 240.5h-20 q-10 0 -19 2h-12q-20 0 -31 -2q-29 -2 -75.5 -7t-128.5 -17q-37 -6 -73 -11.5t-89 -13.5q-18 -2 -34.5 -4t-38 -6t-50.5 -10.5t-70 -16.5q-10 -6 -30 -6q-4 0 -7 2q-41 0 -87 17.5t-50 41.5q-2 8 -2 25z" />
<glyph unicode="8" horiz-adv-x="1316" d="M-33 150v12q8 98 86 180t207 168q35 18 58.5 30.5t41 20.5t30.5 15.5t26 15.5q-2 6 -9.5 19.5t-11.5 35.5q-2 8 -3 15.5t-1 17.5v18q4 31 19 70q31 72 108.5 143.5t194.5 135.5q98 51 183 77.5t153 26.5q16 0 31.5 -1t27.5 -3q51 -2 87 -20.5t57.5 -45t30.5 -59.5t9 -64 q0 -14 -2 -25t-10 -44q-41 -105 -106.5 -174.5t-167.5 -132.5q25 -37 39 -79t14 -85q0 -10 -3 -29.5t-18 -69.5v3q-39 -92 -144.5 -161t-270.5 -112q-72 -16 -146 -28.5t-182 -14.5q-43 0 -81 3t-73 7q-45 12 -78.5 25.5t-56.5 34.5q-18 18 -29 37q-10 16 -10 37zM139 209 q0 -12 11 -23q10 -6 25 -10t32 -10q29 -4 59.5 -7t59.5 -3q137 0 256 32q129 29 205.5 77t103.5 110q2 8 4 17l4 18v2l4 20q0 10 -6 21h2q-10 23 -80 34q-6 2 -13 3.5t-13 3.5q-4 2 -9 2q-4 0 -6 2h-104q-59 0 -133 -20.5t-162 -67.5q-37 -18 -74 -41t-68.5 -45.5t-55 -46 t-34.5 -44.5q-8 -10 -8 -24zM555 711q0 -12 8 -21q6 -4 16.5 -16t32.5 -17l203 5q88 14 180 79q55 39 93 80t49 97l3 15t1 7q0 14 -1 26.5t-9.5 21.5t-24.5 14.5t-49 5.5q-96 0 -264 -86q-76 -37 -141.5 -90.5t-88.5 -96.5q-8 -14 -8 -24z" />
<glyph unicode="9" horiz-adv-x="903" d="M121 -37q4 51 9 83t11 50.5t14.5 29.5t18.5 24q27 27 55.5 60.5t57.5 61.5q20 27 47.5 55.5t64.5 70.5t85 103.5t110 153.5q-14 -4 -43 -16t-45 -18q-70 -31 -127 -48.5t-121 -21.5q-53 0 -86 20q-45 27 -45 80v4q4 88 65.5 174t172.5 191q102 94 175.5 129t151.5 39 q59 0 108.5 -32t73.5 -91q12 -37 13 -78v-12q-2 -10 -6 -24.5t-17.5 -46.5t-39 -89t-70.5 -153q-10 -16 -20.5 -33t-20.5 -35q-72 -123 -161 -234.5t-194 -234.5q-31 -39 -59.5 -65.5t-56 -45t-58 -30t-63.5 -21.5zM303 723q0 -2 4 -6q8 -6 23 -6q2 -2 8 -2q12 0 18 2l11 4 q98 8 206 86h-2q39 39 67 71.5t44 59.5q20 32 20 65q0 12 -6 29q-10 16 -20 16q-39 -8 -97.5 -43.5t-119.5 -83.5q-59 -51 -98 -97t-52 -81q-6 -10 -6 -14z" />
<glyph unicode=":" horiz-adv-x="843" d="M203 0q14 63 22 109.5t21.5 84t38 75.5t73.5 87q23 12 50.5 24.5t46.5 18.5h14l47 -16q16 -18 25 -57q2 -10 3 -17.5t1 -15.5q0 -16 -6 -29q-43 -90 -78 -132t-76 -71q-2 -2 -6 -5t-8 -7q-25 -29 -74 -39t-94 -10zM485 545q0 31 3.5 71.5t10.5 81.5t20 79t32 63 q23 29 58.5 55.5t80.5 30.5h4q27 0 56 -17l43 -24q6 -16 12 -35t6 -43q0 -23 -10 -54.5t-35 -74.5q-10 -12 -44 -39t-76 -56.5t-85 -56t-74 -39.5q-2 10 -2 58z" />
<glyph unicode=";" horiz-adv-x="694" d="M-137 -473q28 39 89.5 106.5t160.5 155.5q33 31 60.5 60.5t52 68.5t45 91t40.5 130q16 45 40 69.5t71 37.5q6 2 14 3t25 1q8 -4 20.5 -15.5t18.5 -37.5q2 -10 2 -35v-21q0 -10 -2 -22q-6 -51 -31 -127q-41 -145 -197 -295q-182 -170 -409 -170zM399 571q0 82 60 154 q66 80 194 121q8 -2 9 -21v-12q-4 -18 -10.5 -43t-12.5 -47.5t-10 -43t-4 -28.5q0 -35 -2 -50t-7 -28l-6 -24t-6 -23q-16 -29 -37.5 -40t-44.5 -21q-10 -4 -30.5 -14.5t-73.5 -55.5q-6 49 -9 78t-5.5 44t-2.5 20v8q-2 8 -2 26z" />
<glyph unicode="&#x3c;" horiz-adv-x="1372" d="M47 559v4q0 31 23 53q12 10 27.5 22.5t31.5 23.5l422 262q43 20 99.5 50t115.5 60.5t116.5 55t102.5 34.5q39 8 76 19q12 2 24.5 3t26.5 1h14q33 -2 69 -16.5t89 -49.5q-70 -41 -159 -77.5t-205 -71.5q-47 -14 -108.5 -43t-127.5 -62.5t-128 -69.5t-112 -67 q-45 -33 -69.5 -55.5t-40.5 -38.5l-31 -33q29 -45 76 -75.5t119 -59.5l2 -2q16 -4 92 -24.5t201 -53.5q180 -47 194 -160q-47 -12 -89 -17t-81 -5q-133 0 -430 129l-172 84q-92 61 -129 104t-39 76z" />
<glyph unicode="=" horiz-adv-x="1257" d="M78 356q20 -2 63 -5t64 -3q166 0 366 45q39 8 101.5 19.5t120.5 17.5q12 2 22 2h23q14 0 27.5 -1t23.5 -3q31 -6 31 -25q0 -6 -2 -8q2 -4 5 -13t7 -20v-12q0 -18 -15 -33q-6 -6 -27.5 -14t-48 -14t-54 -10.5t-44.5 -6.5q-25 -4 -45 -9t-41 -9q-160 -29 -264 -44t-158 -15 h-20q-110 5 -135 161zM207 610q0 8 7 20.5t19 20.5q4 4 9.5 8.5t15.5 13.5t26.5 24.5t41.5 41.5q86 0 165.5 1t126.5 5q8 0 44 4.5t82.5 10.5t94.5 14t83 17q14 0 37.5 -20.5t29.5 -53.5v-8q0 -18 -14 -39q-66 -16 -112 -27.5t-93 -21.5q-115 -16 -224.5 -29.5t-201.5 -20.5 q-23 -2 -43 -2h-70q-25 14 -24 41z" />
<glyph unicode="&#x3e;" horiz-adv-x="1347" d="M158 264l20 -121q109 12 205 95q45 33 80 61l-4 -2q106 53 216.5 109.5t217.5 111.5q53 27 108.5 54.5t108.5 56.5q35 18 64.5 37.5t52.5 35.5q82 57 94 119v17q0 98 -272 147q-111 16 -200 64.5t-177 101.5l-19 12q-172 113 -172 158v82q-47 -31 -76.5 -54.5 t-37.5 -39.5q-4 -4 -7 -13q-6 -16 -6 -28q0 -84 164 -217q80 -63 212 -138t323 -120q-43 -29 -106.5 -63t-141.5 -71h2q-174 -82 -271.5 -129t-121.5 -59q-18 -12 -39 -22.5t-37 -20.5q-72 -37 -120 -70.5t-60 -93.5z" />
<glyph unicode="?" horiz-adv-x="1464" d="M102 8l13 146q25 70 104 118q16 10 48 28.5t65 27.5q8 2 22 2q20 0 35 -8q23 -16 23 -70q-12 -35 -39 -71t-66 -72q-43 -41 -93 -67t-112 -34zM322 530q0 4 4 17q39 63 56 110.5t26.5 84t19.5 64.5t37 51.5t75 45t136 45.5q98 29 187 55.5t181.5 55t132.5 61.5t50 56 q2 6 2 16q0 12 -6 29q-12 23 -76 36q-96 18 -176 19q-90 0 -160 -21q-145 -41 -252 -122q-41 -25 -55 -29q-16 -4 -21 -4h-24q-4 2 -8.5 4t-14.5 6q-45 27 -49 70q0 2 1 5t1 7q25 49 72 88t108.5 68.5t132 50t142.5 31.5q43 4 83 7t79 3h38q12 0 26.5 -1t31.5 -3 q20 -4 37.5 -6.5t34.5 -4.5q156 -20 204 -92q31 -47 31 -110q0 -37 -8 -70q-29 -66 -89.5 -120t-166.5 -101q-47 -20 -135 -47t-219 -60q-93 -24 -140 -41.5t-67 -35.5q0 -10 -5.5 -26.5t-9.5 -31.5q-4 -23 -11 -41t-11 -35q-14 -35 -19.5 -48t-12.5 -26.5t-22.5 -36 t-48.5 -73.5q-90 27 -104 62q-4 8 -8 14t-8 14q-2 2 -2 10z" />
<glyph unicode="@" horiz-adv-x="1988" d="M221 229q0 16 1 33t3 27q10 51 45 115.5t91.5 136t135 145.5t177.5 141q217 150 403.5 209.5t358.5 59.5q49 -10 93 -31t77.5 -52.5t54 -77.5t22.5 -108q0 -12 -2 -28.5t-6 -32.5q-4 -18 -11 -37.5t-15 -42.5h2q-16 -41 -47 -87t-72 -97q-66 -72 -150 -116t-169 -69.5 t-160.5 -35t-122.5 -9.5q-18 0 -42 -3t-63 -13q-55 -12 -98 -12q-55 0 -92 16t-37 82q27 168 248 297q59 37 118.5 69.5t129.5 39.5q20 0 40.5 -5.5t47.5 -27.5q6 -6 16 -21.5t10 -48.5q0 -31 -17 -80t-69 -119q10 0 23 7q18 4 36.5 11t28.5 15q37 16 79 40t82 54.5t76 67.5 t58 82q20 41 21 88q0 10 -1 19.5t-3 19.5q-8 41 -45 67.5t-99 26.5q-39 0 -99 -11t-136 -36t-162 -64.5t-174 -97.5q-94 -59 -164 -120.5t-118 -118t-74.5 -105.5t-34.5 -84q-6 -18 -6 -43q0 -4 2 -6q0 -43 16 -80t45 -53q41 -20 90 -28.5t103 -8.5q117 0 251 15.5t275 41.5 q80 18 162 49t156.5 65t138 67.5t106.5 60.5q25 8 47 8q39 0 58 -26q10 -17 10 -33q0 -4 -4 -25q-4 -6 -6 -14t-13 -25q-55 -53 -142 -99t-191.5 -84t-220 -68.5t-228.5 -51t-216.5 -32t-182.5 -11.5q-88 0 -166 9.5t-138.5 41t-97.5 92t-43 160.5zM817 403q39 5 76 24 t68 54q16 20 30.5 41t24.5 41q-27 -16 -50.5 -33.5t-45.5 -33.5q-33 -25 -56.5 -47.5t-46.5 -45.5z" />
<glyph unicode="A" horiz-adv-x="1476" d="M10 84q0 10 2 16q2 10 6.5 26.5t10.5 39.5q6 18 19 37.5t33.5 42t49.5 53.5t66 74q12 8 22 18l21 21q18 18 45.5 50t55.5 65.5t51.5 62t33.5 39.5q-41 39 -65.5 72.5t-38 62.5t-17.5 55.5t-4 52.5q0 25 23 25h8q29 -4 90 -61q27 -20 60.5 -49t54.5 -42q4 -4 6 -4 q76 80 141.5 150t129 136.5t128 132t137.5 138.5q45 45 99.5 96.5t108.5 96.5t105.5 76.5t90.5 38.5q-4 -10 -16.5 -58.5t-28 -118t-34 -151.5t-34.5 -160t-29.5 -143.5t-19.5 -100.5q-12 -66 -16.5 -125t-8.5 -112q10 -8 35 -16.5t84 -32.5q6 -2 17.5 -11.5t19.5 -21.5 q6 -10 6 -20v-3q-4 -12 -22 -18q-96 -16 -117 -29q-12 -4 -21.5 -20t-19.5 -70q-2 -16 -2 -30v-58q0 -12 2 -24q6 -53 6 -111q0 -37 -6 -80q-2 -16 -6 -33.5t-11.5 -34t-20.5 -26.5t-36 -10q-45 0 -67 49q-9 18 -14 42.5t-7 53.5q-2 23 -3 45.5t-1 44.5v37q-2 8 -2 29 q0 27 6 67q2 20 3 43t1 52v32q0 16 -2 35l-334 19q-53 4 -101 11t-69 11h-4q-14 0 -43 -29q-25 -25 -56.5 -60.5t-65 -75.5t-68.5 -79t-66 -67q-55 -61 -114.5 -116.5t-114.5 -78.5q-18 -6 -35 -6q-18 0 -33 6q-4 20 -4 31zM719 694q98 -23 201.5 -27.5t201.5 -4.5 q8 0 11 -3l14 115l16 94t19.5 102.5t29 124t43.5 160.5q-27 -20 -67.5 -58t-67.5 -62q-61 -59 -125.5 -128t-121 -131.5t-98.5 -111.5t-56 -70z" />
<glyph unicode="B" horiz-adv-x="1294" d="M16 389q0 8 7 8l12 -4q18 -14 59 -31q10 -4 20.5 -9t20.5 -9l19 -10l2 -8q41 53 102 159.5t131 249.5v-2q74 141 151.5 288.5t175 267.5t219.5 197t284 77q80 0 140 -49.5t85 -120.5q12 -37 12 -76q0 -18 -2 -29q-6 -49 -38 -114.5t-76 -130t-96 -121t-101 -88.5 q29 -23 64.5 -90.5t41.5 -182.5v-22q0 -72 -20 -148q-27 -104 -106 -184t-201 -135q-197 -74 -412 -74q-25 0 -85 2t-146 29q-49 14 -84 33.5t-58.5 38t-37 31.5t-19.5 18q-23 20 -35 53t-18.5 67.5t-8.5 67.5t-2 51zM299 219q0 -18 12.5 -26.5t28.5 -18.5q51 -29 117 -37 q20 -2 39.5 -3t40.5 -1h24q12 0 27 2q68 4 132 20.5t118 34.5q106 41 162.5 106.5t74.5 137.5q6 39 12 86q3 21 4 39.5t1 36.5v14q-2 43 -14.5 78t-39.5 49q-33 0 -85 -19.5t-107 -41.5q-70 -25 -124 -41.5t-120 -26.5q-31 -2 -47 -5t-31 -7q-25 -10 -62.5 -59.5 t-73.5 -109.5t-62.5 -118.5t-26.5 -89.5zM600 793l27 6q74 16 127 33.5t90 31.5q33 10 82 38t100 61.5t98 70.5t76 66q25 25 55.5 68.5t49.5 91.5q16 43 16 77v13q-4 41 -47 59q-8 10 -44 17.5t-71 7.5q-69 0 -146 -46.5t-136 -109.5q-29 -29 -70 -89.5t-82 -131t-75 -142 t-50 -122.5z" />
<glyph unicode="C" horiz-adv-x="1257" d="M8 188v48q0 8 2 16q14 88 62.5 208t120 247t161.5 250.5t191 224.5q68 68 150.5 128t168.5 110t168 88t148 59q68 18 108 18q18 0 27 -2q12 -4 31.5 -8t40 -15.5t38 -32t27.5 -57.5q2 -10 3 -20t1 -23q0 -18 -3 -39.5t-7 -46.5v2q-12 -57 -27.5 -97t-27.5 -66v-2 q-14 -27 -33 -43.5t-45.5 -30.5t-61 -27.5t-82.5 -34.5q12 33 30 74t36 83t37.5 83t36.5 74q4 20 4 30q0 20 -8 29q-14 10 -35 10h-15q-90 -6 -196.5 -62t-208.5 -137t-192.5 -173t-147.5 -168q-49 -63 -104.5 -150.5t-102.5 -174.5t-80 -161.5t-37 -111.5q-6 -18 -6 -31 q0 -8 2 -10q2 -39 35 -68q27 -10 55 -16q20 -6 50 -6h14q8 0 18 2q76 6 139.5 18t125 34.5t126 55.5t142.5 80q31 18 71.5 45t83.5 53.5t82 45t68 18.5q25 -18 33 -37q2 -6 2 -18q0 -10 -10 -35q-82 -86 -197 -157t-256 -130q-137 -57 -257 -90t-226 -41h-25q-111 0 -172 49 q-33 29 -52.5 62.5t-23.5 76.5z" />
<glyph unicode="D" horiz-adv-x="1624" d="M80 240q14 -8 45 -23.5t66.5 -31t67.5 -27t46 -13.5v13q0 80 27 166q14 47 29.5 91t35.5 87q20 45 56 116.5t71 147.5q18 33 39 79t39.5 93t33.5 87t23 58q35 76 57.5 132.5t31.5 95.5v4q-31 20 -82.5 34.5t-122.5 41.5q-33 8 -70 24.5t-39 40.5v8q0 35 31 52 q16 8 36.5 11t43.5 5h10q41 0 82 -6q23 -4 39 -7t26 -6q37 -8 67 -13t89 -21q84 -25 173 -62t170 -78t150.5 -81.5t114.5 -73.5q74 -55 119 -101.5t69.5 -95.5t35 -105.5t12.5 -129.5v-13q0 -133 -84 -241q-88 -113 -252 -211q-111 -66 -250 -119t-299 -94 q-104 -29 -223 -47.5t-215 -18.5q-7 -2 -17 -2q-61 0 -100 8q-33 6 -64.5 17.5t-57 36t-42 65.5t-18.5 107zM319 141l46 -2q55 0 152 20.5t226 57.5q135 39 262.5 90t231.5 107q74 39 125 72.5t83 69.5t47 75t15 86q0 55 -14 113.5t-42 112.5t-66.5 100.5t-88.5 76.5 q-16 10 -46.5 27.5t-68.5 37t-80 39t-81 33.5q-29 10 -51.5 16.5t-42.5 16.5q-23 -41 -54.5 -112.5t-70.5 -171.5q-31 -78 -74 -181.5t-84 -200t-73.5 -170t-43.5 -92.5l-75 -133z" />
<glyph unicode="E" horiz-adv-x="1220" d="M41 129v21q2 12 18.5 66t45 127t69.5 155t90 149q-23 23 -46 47.5t-40 40.5q43 45 85 67.5t116 26.5l6 11q14 33 45 96t64.5 132t66.5 132.5t51 97.5q70 135 195 136q66 0 163 7t232 21q51 4 81 7.5t51.5 5.5t40 3t46.5 1q45 0 77 -18.5t75 -84.5q-72 -16 -122 -26.5 t-102.5 -18.5t-117 -14t-162.5 -14q-53 -4 -107.5 -9.5t-111.5 -9.5q-72 -6 -129 -100v2q-8 -14 -31.5 -58.5t-51.5 -98.5t-52.5 -106.5t-34.5 -80.5q121 10 202 17t142 12.5t111.5 9.5t109.5 6q37 -8 47 -43q2 -4 2 -8t2 -7v-6q-6 -29 -29.5 -46t-58.5 -27.5t-78 -17.5 t-88 -15q-47 -10 -104 -19.5t-121 -19.5q-35 -4 -62.5 -8t-50.5 -8q-41 -4 -63.5 -6.5t-34.5 -4.5t-16 -5t-6 -7q-18 -29 -46 -75t-55.5 -99t-50 -106.5t-29.5 -96.5q-4 -20 -4 -29q0 -27 9 -40q12 -29 55 -29q104 0 350 31q63 10 119.5 22t101.5 25q12 4 28.5 8t37.5 8 q31 8 63 8h13q33 -2 51 -24q6 -10 6 -29q0 -16 -10 -51l-33 -27q-205 -68 -403.5 -99.5t-397.5 -31.5q-72 0 -127 7t-80 55q-12 20 -12 63z" />
<glyph unicode="F" horiz-adv-x="1259" d="M147 41v10q2 25 12.5 55.5t24 63.5t27.5 62.5t25 50.5q4 8 20 45t38.5 87t48.5 107.5t48.5 106.5t40 85t23.5 44q74 147 121 254.5t77.5 183.5t53 123t47 75.5t58.5 42t89 21.5q4 2 37 5t82 8.5t109.5 9.5t120 9t110.5 10t82 9q76 14 149 19h99q18 0 36 -2 q-27 -51 -51 -82t-48.5 -48.5t-51.5 -23.5t-57 -10q-12 0 -60.5 -3t-125.5 -10.5t-178 -19.5t-218 -31q-29 -6 -49.5 -28.5t-38 -53t-30.5 -66.5t-25 -67q-14 -31 -24.5 -51t-19 -39.5t-18.5 -40t-24 -51.5q2 2 10 2q59 6 100 9t74 6.5t60.5 5.5t62.5 6q53 6 109.5 13 t103.5 7t76.5 -11t29.5 -44q0 -35 -16.5 -55.5t-44 -31.5t-64.5 -17.5t-75 -12.5q-59 -10 -147.5 -16t-171.5 -13.5t-141.5 -17.5t-58.5 -26q-8 -12 -25.5 -47t-41 -81.5t-49 -101.5t-49 -108.5t-45 -101.5t-33.5 -79q-29 -70 -60.5 -122t-79.5 -64h-18q-23 0 -49 10 q-16 6 -17 31z" />
<glyph unicode="G" horiz-adv-x="1722" d="M131 330q0 72 22.5 136t62.5 130t94.5 133.5t117.5 144.5q55 57 124 122t142.5 126.5t148.5 116.5t142 94q150 86 281 132t235 46q121 0 203 -45t98 -163q2 -10 2 -33q0 -39 -8 -78q-6 -33 -13 -67.5t-16 -73.5q-12 -63 -45.5 -101.5t-105.5 -38.5q-33 20 -40 54t-13 75 q2 70 28.5 119t53.5 101q8 8 8 22q0 10 -2 16q-6 23 -35 50q-77 22 -123 22h-4q-158 0 -414 -151q-66 -39 -133.5 -89.5t-132 -104.5t-124.5 -110.5t-110 -105.5q-104 -104 -165.5 -201.5t-81.5 -177.5q-4 -23 -7.5 -41t-3.5 -35q0 -43 23 -78q35 -53 104.5 -84.5 t161.5 -31.5h191q125 4 224 24.5t185 42.5q199 51 232 150q4 12 6 14q0 6 -4 10q-16 14 -49 19q-14 2 -34 3t-36 1q-57 0 -149.5 -9t-180.5 -9q-20 0 -22 2q-37 2 -66 4t-45 4q-59 10 -104 25.5t-58 50.5q-4 12 -4 22q0 16 6 35q4 31 29 52.5t58.5 36.5t73.5 25.5t75 16.5 q4 2 22 2h21q20 -2 49 -4t57.5 -5t53 -5t41.5 -4q37 -4 104.5 -18.5t202.5 -47.5q16 59 33.5 75.5t37.5 20.5q23 0 36.5 -11t17.5 -52v-8q0 -33 -8 -68h22q16 0 46 -6t102 -19q-37 -31 -72 -53t-62.5 -38.5t-45 -29t-19.5 -24.5l-27 -78q-33 -76 -71.5 -110.5t-96.5 -57.5 l2 2q-88 -39 -199.5 -72.5t-248.5 -48.5q-76 -8 -142.5 -11t-127.5 -3q-78 0 -171.5 15.5t-173 52.5t-133 99.5t-53.5 156.5zM911 520q0 -6 15 -8q25 -8 80 -8q51 0 109.5 3t90.5 5q16 2 42 5t38 7l-262 35q-14 0 -49 -4t-49 -18q-14 -8 -15 -17z" />
<glyph unicode="H" horiz-adv-x="1312" d="M109 0q8 39 32.5 95.5t58 118.5t71.5 128t73 123q31 47 52.5 82t35.5 59q-2 2 -37 2q-39 0 -108 -6q-16 0 -44 1t-38 1q-45 0 -62.5 25.5t-21.5 60.5q4 23 24.5 42.5t42.5 25.5q31 10 74 17t90 12.5t94.5 8.5t90.5 7l108 168q8 18 24.5 45.5t35 58.5t36 60.5t27.5 48.5 q39 74 87 140.5t95 88.5q14 6 27 6q18 0 35 -12q10 -10 10 -35q0 -8 -1 -18.5t-3 -20.5q-10 -41 -29.5 -92t-43 -101t-46 -94.5t-41.5 -70.5q-39 -59 -67.5 -103.5t-38.5 -64.5q31 4 68.5 7t76.5 6t76 5t63 4q16 0 26.5 15.5t37.5 56.5q72 141 129 248.5t111.5 181.5 t107.5 111t117 37q-6 -14 -25.5 -53.5t-47.5 -97.5t-63.5 -131t-74.5 -155q-12 -29 -29.5 -69.5t-46.5 -120.5q-2 -2 -2 -14q33 -4 65.5 -6.5t94.5 -2.5l100 -53l-137 -86q-37 -4 -61.5 -5t-45 -3t-41 -3t-49.5 -5q-4 0 -6 -2q-4 -2 -7 -5l-5 -5q-16 -27 -42 -82.5 t-53.5 -117t-54 -119.5t-43.5 -91q-18 -33 -35.5 -67.5t-35 -66.5t-36 -58.5t-36.5 -43.5q-8 -8 -31 -14q-6 -2 -20 -2q-10 0 -23 4q-23 6 -31 31q-4 12 -4 28q0 18 6 48l11 20l235 518q-6 0 -49 -4t-100.5 -9t-113.5 -10t-87 -8l-27 -4q-8 -16 -28.5 -52t-49 -84 t-61.5 -106.5t-63 -119.5q-35 -63 -62.5 -108.5t-60.5 -76t-75 -47t-105 -20.5z" />
<glyph unicode="I" horiz-adv-x="763" d="M135 80l27 106q6 31 15 69t27.5 91t46.5 125t71 168q66 147 129 256t104 180q25 45 39 69.5t24.5 39t18.5 24t20 23.5q14 4 47 17.5t82 27.5l11 -129q0 -10 -14.5 -38t-36 -68t-47 -87t-46.5 -94q-33 -70 -50 -105.5t-26.5 -55t-13.5 -28.5t-11 -24.5t-20.5 -46.5 t-39.5 -90q-14 -35 -34 -82t-41.5 -97t-41 -98.5t-31.5 -80.5q-18 -72 -47 -107t-64 -45h-18q-14 0 -20 2q-29 12 -42.5 38t-17.5 40zM788 1454v8q4 23 27 56q20 35 60 58t106 46q8 -26 8 -51v-8q-2 -10 -2 -23v-24q0 -12 -4 -35t-10 -33q-16 -35 -42 -61.5t-73 -26.5 q-16 0 -36.5 9t-26.5 38q-6 27 -7 47z" />
<glyph unicode="J" horiz-adv-x="1056" d="M90 502v20q2 31 6 78q27 53 51.5 67.5t55.5 16.5q10 0 17 -1t18 -3q10 -4 23 -14.5t20 -26.5q2 -2 2 -25q0 -61 2 -104t5 -75t9 -56.5t14 -48.5q8 -31 30 -56.5t49.5 -43t59 -29t60.5 -13.5q10 -2 29 -2q16 0 37 4q4 0 6 -2h8q53 12 95 68.5t101 183.5q10 27 26.5 66 t43.5 99.5t61.5 143t81.5 197.5q23 74 42.5 132.5t38 111.5t38 105.5t43.5 117.5l160 156l12 -172q-10 -41 -16 -62.5t-16 -42.5l-355 -911q-86 -184 -166 -266t-168 -103q-31 -8 -92 -8q-2 -2 -6 -2q-55 0 -123 23q-70 20 -136.5 74.5t-113.5 158.5q-23 63 -34 109.5 t-15 83.5q-2 14 -3 26t-1 25z" />
<glyph unicode="K" horiz-adv-x="1226" d="M133 90q6 27 13.5 49.5t18.5 46t24.5 50t31.5 61.5v-2q51 98 80 148.5t35 60.5q29 61 59.5 144t65.5 183q27 72 46 130.5t36 105.5q6 23 32.5 100.5t69.5 196.5q10 29 72.5 91.5t161.5 125.5q-4 -29 -28 -107.5t-55.5 -171t-62.5 -180.5t-49 -135q-23 -61 -40 -116.5 t-30 -102.5q35 29 73 62.5t81 70.5q61 53 124.5 104.5t125.5 104.5q23 20 55.5 49t70.5 57.5t77 55t73 41.5q31 14 60 14h4q25 -2 41 -24q6 -10 6 -19q0 -16 -14 -37q-16 -25 -44 -54.5t-62 -61t-68.5 -63.5t-65.5 -62.5t-74 -67.5t-89 -74t-92 -73.5t-85 -69.5 q-82 -66 -117 -91.5t-39 -33.5q4 -10 11.5 -21.5t17.5 -17.5q18 -29 46 -67.5t59.5 -79.5t64.5 -77t61 -57q27 -23 44.5 -37t42 -27t63.5 -29.5t109 -43.5q25 -25 28 -53v-4q0 -25 -8 -39q-10 -18 -24.5 -29.5t-20.5 -13.5q-86 12 -168 41t-160 82q-41 29 -89 80t-83 104 q-29 37 -49 72t-37 57q-12 18 -12 23l-19 39q-12 -23 -37.5 -71t-59.5 -110.5t-71.5 -132t-74.5 -135.5q-2 -4 -18.5 -18.5t-39.5 -22.5q-16 -6 -30 -6q-10 0 -17 2q-23 2 -45 35z" />
<glyph unicode="L" horiz-adv-x="1105" d="M100 55q0 37 15 74q12 45 34.5 97.5t47 100.5t46 88t31.5 58l58 107q35 59 63.5 114.5t66.5 139.5t94 209.5t144 326.5q2 0 12.5 22.5t23 53.5t24.5 62.5t22 52.5q12 29 17 28l75 -125q2 -2 3 -12q0 -14 -7 -45q-8 -33 -21 -78t-28.5 -91t-32 -89t-30.5 -72 q-43 -96 -85 -186l-84 -180t-87 -182.5t-94 -192.5q12 6 34 6h13q27 -2 77 -6q88 -18 139.5 -36.5t99.5 -38t108.5 -42t164.5 -49.5q31 -8 48 -31q14 -20 14 -43v-4q-2 -25 -16.5 -46t-38.5 -28l-31 -8q-2 -2 -10 -2q-20 0 -52 8q-35 6 -78.5 17.5t-91 25t-90.5 27.5t-73 27 q-29 10 -81 24.5t-106 20.5q-10 2 -20 2h-21q-16 0 -29.5 -1t-25.5 -3q-45 -8 -57 -45v2q-35 -49 -56.5 -79t-52.5 -34h-6q-14 0 -45 10q-23 10 -23 41q-2 2 -2 4z" />
<glyph unicode="M" horiz-adv-x="1552" d="M104 6q14 59 76 173t154 249q76 109 176 244t208.5 269t215 250t196.5 187q33 27 60 27q6 0 18 -4q29 -12 39 -47q-6 -31 -27.5 -81t-47 -107.5t-52 -112t-43.5 -92.5q-25 -61 -48 -114.5t-43.5 -108t-34 -111t-15.5 -123.5q0 -10 -2 -10q0 -8 2 -11q51 53 100 111.5 t97 120.5q68 86 138 193.5t144 221t153 224t161 202.5q10 12 51 26.5t100 14.5q-12 -29 -34.5 -82t-46 -110t-46 -110.5t-35.5 -82.5l-192 -491q-37 -133 -85 -285.5t-73 -294.5q-29 -133 -68 -178q-31 -37 -65 -37q-6 0 -23 4q-27 10 -34 29q-8 14 -9 41q0 12 2 23 q4 43 20.5 115.5t43.5 183.5q10 47 24.5 103t32 114.5t34.5 114t32 100.5q-18 -25 -35.5 -47.5t-34.5 -44.5q-35 -47 -77 -102.5t-79.5 -107t-68.5 -90t-43 -53.5h2q-154 -190 -197 -190q-84 0 -94 121q-2 12 -3 26.5t-1 28.5q0 47 16.5 130t40 169t49 163t44.5 111 q-59 -74 -121 -155.5t-123 -169.5q-78 -111 -149.5 -216.5t-149.5 -215.5q-35 -47 -92.5 -76t-137.5 -29z" />
<glyph unicode="N" horiz-adv-x="1550" d="M135 41q0 12 2 18q4 25 19.5 59t35 69.5t42 72.5t42.5 70q63 92 109.5 158.5t82.5 120t66.5 98.5t63.5 94t72 109.5t92 142.5q4 6 26.5 19t52 28.5t63.5 31t61 27.5q-20 -55 -41 -128t-38.5 -152.5t-28.5 -158.5t-11 -145q0 -57 6 -118q6 -47 15.5 -94.5t22.5 -86 t34.5 -64.5t52.5 -28h10q27 0 62 19q53 33 110.5 108.5t104.5 169.5q57 115 112.5 229.5t111.5 235.5t114.5 250t123.5 272q2 8 24 19.5t54.5 26t69.5 31t72 34.5q-37 -92 -93.5 -222t-123 -274.5t-135 -291t-129 -268.5t-106.5 -209t-67 -113v-2q-51 -72 -105 -112 t-102.5 -58.5t-87.5 -22.5t-57 -4q-37 0 -78 17.5t-76.5 54.5t-63.5 93t-38 134q-2 18 -4 36.5t-3 46.5t-3 74t-4 120q-29 -41 -63 -88.5t-68 -100.5q-10 -14 -19.5 -28.5t-28 -43t-49 -75.5t-82.5 -125q-12 -18 -29.5 -37t-38 -36t-43 -29.5t-44.5 -14.5q-6 -2 -17 -2 q-18 0 -38 10q-14 8 -15 33z" />
<glyph unicode="O" horiz-adv-x="1615" d="M76 338v12q2 84 30.5 176t73.5 182.5t100.5 175.5t110.5 156q123 143 230.5 225.5t214.5 139.5q53 23 109 40t116 32q88 18 176 18h31q14 0 30 -2q117 -10 218.5 -62.5t162.5 -158.5q14 -27 24.5 -56.5t14.5 -64.5q2 -23 3 -44.5t1 -43.5v-49q-6 -72 -24.5 -139.5 t-42.5 -118.5q-78 -178 -208 -318.5t-286.5 -238t-326.5 -148.5t-326 -51q-199 0 -297 68q-76 51 -107 125q-29 70 -28 145zM262 397q0 -31 6 -57q16 -74 88 -117q84 -47 185 -51q6 -2 18 -2q92 0 180 27q100 29 198.5 82t190.5 118q84 61 145.5 110.5t106.5 102t78 113.5 t60 147q10 37 18 74t16 76q2 12 3 24.5t1 24.5q0 55 -20 105q-31 61 -91.5 96t-131.5 47q-43 6 -88 6h-29q-12 0 -27 -2q-35 -4 -66.5 -11t-60.5 -18q-43 -25 -68.5 -40t-44 -33.5t-32.5 -45t-35 -75.5q-6 -16 -25.5 -76.5t-39.5 -202.5q-41 49 -64.5 74t-36 46.5t-15.5 50 t-3 87.5q-35 -23 -93.5 -82t-118.5 -140t-112.5 -173t-74.5 -180q-16 -59 -17 -105z" />
<glyph unicode="P" horiz-adv-x="1044" d="M59 0l787 1423q20 39 48 82t69 45q16 0 33.5 -2t29.5 -12q20 -18 25 -59v-4q0 -39 -23 -72l-2 -4q33 4 60.5 8t50.5 8q14 2 26 2h62q39 -4 76.5 -20.5t82.5 -48.5q59 -47 97 -123q35 -74 35 -172v-11q-10 -94 -54.5 -162.5t-113 -112.5t-156.5 -65.5t-188 -23.5h-19 q-131 0 -256 26q-25 -4 -49.5 -10t-34.5 -16q-35 -27 -59.5 -65t-40.5 -70q-23 -41 -50.5 -91.5t-56 -101.5t-55.5 -98t-45 -78q-10 -27 -31.5 -51.5t-40.5 -32.5zM752 887q135 -43 241 -43h21q12 0 22 2q123 10 198 56t103 114q18 39 19 80q0 25 -8 47q-18 57 -86 92 q-47 22 -104 22h-5q-37 0 -76 -6q-47 -6 -71.5 -11t-39 -12t-21.5 -18.5t-17 -29.5q-14 -16 -39 -55.5t-49.5 -82.5t-45 -80.5t-28.5 -56.5z" />
<glyph unicode="Q" horiz-adv-x="1421" d="M156 258v21q0 47 12 100q14 66 50 148.5t85 171.5t110.5 181.5t126 175.5t131 152.5t126.5 116.5q123 94 229.5 148.5t204.5 54.5q115 0 183.5 -73t96.5 -185q14 -66 15 -146v-18q-2 -109 -34 -215.5t-87 -207.5t-131 -193.5t-166 -172.5q14 -16 43 -53t66.5 -80 t79.5 -84t83 -67q-43 -12 -69.5 -18.5t-44.5 -8.5q-20 -4 -25 -4q-4 0 -6 2q-20 0 -31 2l-33 12q-12 0 -26.5 8.5t-38 31t-57 60.5t-82.5 97q-18 -8 -45 -19.5t-68 -33.5q-41 -25 -97.5 -50.5t-114.5 -45t-113.5 -33t-96.5 -13.5q-127 0 -194.5 59.5t-79.5 158.5 q-2 10 -2 20zM332 301q0 -47 16 -76q12 -29 45 -42t80 -13q16 0 52 9t80 24.5t93.5 34t92.5 34.5q43 18 64.5 29.5t25.5 30.5q2 2 2 8q0 12 -11 37q-6 14 -15 33.5t-23 46.5q-16 23 -17 53q-2 2 -2 4q0 29 12 53q12 29 33 43q10 8 29 8q14 0 20 -2q29 -10 60.5 -48 t64.5 -117l51 65q51 59 102.5 137t92.5 161t67.5 162t26.5 140q0 82 -20 144v-3q-31 80 -76 107q-37 16 -70 16h-16q-8 0 -16 -2q-57 -12 -120 -50t-126 -85q-53 -37 -107.5 -91t-105.5 -113.5t-95 -118t-77 -103.5q-72 -104 -124 -211.5t-77 -214.5q-12 -53 -12 -90z" />
<glyph unicode="R" horiz-adv-x="1138" d="M94 264q0 6 4 22.5t15.5 47.5t32 77t53.5 111q66 123 126 231.5t132 237.5q33 59 57.5 109.5t44.5 87.5q25 55 71 116.5t104.5 112.5t121 86t121.5 37q10 2 22 2h23q104 0 172 -33q82 -39 125 -102.5t53 -138.5q2 -16 2 -33v-33q0 -41 -6 -80q-18 -78 -71.5 -145.5 t-126 -122.5t-159.5 -99t-173 -75q6 -31 12 -54.5t15 -52t22.5 -67.5t32.5 -98q14 -43 32.5 -91.5t33.5 -94.5t26.5 -88t13.5 -75v-4q0 -41 -27 -55q-23 -8 -45 -8q-29 0 -55 16q-41 29 -82 146q-49 154 -76.5 243.5t-42 137t-20.5 60.5t-12 13q-23 0 -53.5 -5t-62.5 -14 t-62.5 -22.5t-55.5 -31.5l-84 -142q-57 -96 -90 -150.5t-55.5 -92t-41 -69.5t-44.5 -81zM532 784q0 -28 36 -28h3l2 2q33 0 83.5 14t109.5 39t121.5 56.5t116 65.5t92.5 66.5t53 61.5q63 82 74 143q2 9 2 23q0 45 -27 78q-57 61 -115 75q-10 2 -21 3t-22 1q-37 0 -69 -12 q-55 -23 -107.5 -73t-99.5 -113.5t-88 -135t-72 -137.5q-29 -61 -50.5 -96t-21.5 -33z" />
<glyph unicode="S" horiz-adv-x="1472" d="M57 274v17q6 31 20.5 49t35 27.5t43 13.5t45.5 6q0 -141 67 -186q66 -39 148 -45q14 -2 26.5 -3t26.5 -1q29 0 56.5 3t56.5 7q86 14 173 46t167 73q68 33 128 74.5t104 91t69.5 103.5t25.5 112q0 12 -5 29.5t-21.5 35.5t-47 35.5t-79.5 28.5q-20 4 -46 6t-57 2h-37 q-18 0 -38 -2q-16 -2 -33 -2h-68q-18 0 -37 2q-76 4 -137 34.5t-94 98.5q-18 39 -19 100q0 20 2.5 43t6.5 47q12 63 42.5 124t87 113t140.5 92t201 64q51 10 94 11q16 0 32.5 -1t32.5 -3q117 -18 219.5 -76t170.5 -131l-244 -29q-37 16 -76 29.5t-80 25.5q-41 8 -90 9 q-25 0 -49.5 -2.5t-46.5 -6.5q-92 -18 -189 -92q-23 -18 -42 -37.5t-31 -46.5q-4 -10 -6.5 -20t-6.5 -23q-2 -8 -4 -18t-4 -25q-2 -8 -3 -14t-1 -14t1 -14.5t3 -14.5q4 -31 24.5 -53.5t63.5 -24.5q66 -4 134.5 -5t132 -4t118 -9t90.5 -21q180 -63 181 -229q0 -84 -30 -157 t-84 -136.5t-128 -119.5t-160 -107q-285 -150 -571 -150q-145 0 -262 57q-72 41 -109 93q-33 45 -33 120z" />
<glyph unicode="T" horiz-adv-x="946" d="M215 0q117 262 261.5 539.5t279.5 550.5q29 59 53.5 106t34.5 84q-80 -16 -119 -26.5t-63.5 -16.5t-50 -10t-81.5 -10h-10q-14 0 -20 2q-41 10 -56 41q-8 10 -8 28v8q0 23 13.5 39.5t46 30.5t89 27.5t142.5 29.5l389 72q53 8 100.5 16.5t95.5 16.5l102 17l120 20 q6 0 27.5 -1t31.5 -1l-90 -144q-78 -20 -122 -31.5t-73.5 -17.5t-52 -10t-59.5 -10l-135 -31q-37 -29 -76 -115t-104 -211q-2 -6 -20.5 -45t-48.5 -100.5t-67.5 -139t-77.5 -160.5t-80 -164t-73 -148q-14 -29 -39.5 -81.5t-85.5 -105.5z" />
<glyph unicode="U" horiz-adv-x="1304" d="M127 309v17q0 68 14 116q20 92 71.5 210t129.5 249q37 57 89 123t108.5 125t111 104t94.5 62q8 2 14.5 3t12.5 1q16 0 25 -8q23 -18 26 -43v-4q0 -20 -10 -45q-12 -25 -31.5 -47.5t-38.5 -36.5q-96 -72 -171.5 -173.5t-131 -205t-88.5 -193.5t-43 -137q-10 -51 -10 -86 q0 -70 33 -115q50 -73 190 -73h4q184 0 346 174q37 37 78 87t81 108.5t77 122t66 126.5q23 49 42 113.5t35 142.5q25 131 25 289v61l135 203q6 -29 10 -74t6.5 -93t3.5 -94t1 -75q-2 -92 -25 -188q-20 -88 -54 -192.5t-78 -207t-97.5 -195.5t-112.5 -159 q-135 -156 -285.5 -228.5t-355.5 -72.5q-182 0 -258 143q-35 61 -37 148q-2 10 -2 18z" />
<glyph unicode="V" horiz-adv-x="925" d="M145 221v62q0 20 2 22q4 68 19.5 198t40.5 304q20 147 36.5 261t22.5 161q6 41 18.5 85t53.5 66q14 8 39 9q12 0 33 -5q18 -4 35.5 -25.5t23.5 -68.5q2 -8 2 -28q0 -10 -1 -23.5t-3 -28.5q-4 -33 -9 -72.5t-11.5 -79.5t-13.5 -77t-13 -63q-18 -82 -45 -189.5t-39 -208.5 q-4 -25 -6 -47t-2 -43v-18q0 -8 2 -17q53 76 111.5 169t111.5 167q35 47 73 100.5t101.5 140.5t164.5 220t263 340q2 4 32 15.5t71.5 24.5t90 26.5t89.5 21.5q-31 -31 -91.5 -102.5t-138.5 -167t-166 -209t-173 -230t-160.5 -229.5t-128.5 -207q-25 -33 -52.5 -74t-54.5 -94 q-41 -86 -73.5 -146.5t-57.5 -101.5q-16 -25 -41 -42t-53 -17q-102 0 -103 221z" />
<glyph unicode="W" horiz-adv-x="1292" d="M115 223v21q0 12 2 22q2 33 2 58v47q2 68 14 146.5t25.5 165.5t28 180t24.5 192q6 70 6 141q0 29 -1 59.5t-3 59.5q-2 4 -2 10q0 14 14 29q16 16 47 20h4q29 0 56 -20q29 -23 41 -84q16 -70 16 -125v-19q0 -8 -2 -16q-4 -59 -16.5 -122.5t-26.5 -145.5t-26.5 -190.5 t-16.5 -256.5q27 37 72 103.5t94 140.5q12 20 38.5 59t59.5 82t69 83t68 63q27 18 54 18h6q27 -2 39 -45q10 -25 15 -92.5t10 -143t12.5 -141t19.5 -90.5q2 -12 12 -12q4 0 15 12q41 66 77.5 134.5t75.5 140.5q18 37 49 95t67 124.5t69.5 132t58.5 117.5q39 80 67.5 137 t50 94t37 57.5t25.5 28.5l211 104l-270 -497q-45 -86 -79 -154.5t-61.5 -128t-53 -114t-54.5 -114t-63.5 -129t-81.5 -157.5q-53 -102 -90 -176t-68 -109q-16 -18 -35 -18h-6q-25 4 -45.5 36t-36.5 81t-29.5 110.5t-23.5 126.5q-4 41 -7 69t-5 52.5t-5.5 53t-7.5 71.5 q-33 -41 -60.5 -78t-55.5 -78q-45 -61 -83 -118.5t-71 -114.5q-12 -27 -33.5 -61.5t-46.5 -66.5t-50.5 -55.5t-45.5 -27.5h-12q-31 0 -48 35q-20 37 -26 104q-2 20 -3 41t-1 43z" />
<glyph unicode="X" horiz-adv-x="1081" d="M100 55q0 10 2 17q8 55 77 133t167 176q61 59 108.5 100t69.5 72q10 16 11 31v8q-35 172 -58.5 305t-36.5 254q-2 8 -2 25q0 25 8 38q8 20 22.5 28.5t29.5 8.5h32q33 0 48 -14q14 -16 25 -46t21.5 -80t22.5 -123t33 -173q6 -29 10 -50.5t12 -33.5q0 -4 7 -6 q37 43 85 98.5t97 111.5t95 108.5t81 89.5q88 92 192.5 201.5t221.5 219.5l-17 -174q-4 -29 -12 -53t-31 -47q-20 -23 -57 -64.5t-84 -96t-99.5 -115t-102.5 -117t-95 -105.5t-76 -80q-35 -34 -62.5 -63t-47.5 -49q-39 -39 -39 -55v-3q27 -92 56.5 -164.5t56 -128t47 -95.5 t26.5 -68q2 -6 2 -15q0 -29 -26 -43q-35 -18 -64 -18q-16 0 -25 2q-43 12 -92 92q-31 51 -70.5 136t-66.5 165q-49 -47 -126 -115.5t-175 -168.5q-41 -37 -62.5 -67t-48.5 -40q-16 -4 -30 -4h-10q-31 6 -41 25q-8 10 -9 30z" />
<glyph unicode="Y" horiz-adv-x="937" d="M143 -137q0 29 25 69q59 98 131 197.5t125 210.5q4 4 5 8t3 8q-92 106 -137 200.5t-57 205.5q-6 51 -7 112q0 14 2 21q0 51 5.5 100t15.5 92t24.5 75t34.5 48q16 16 35 19h39q31 -2 35 -53v-19q0 -23 -1 -49.5t-3 -58.5q-6 -66 -6 -140q0 -18 2 -28q0 -92 30 -179 q8 -57 38 -105t61 -75q70 96 139.5 209t135 230.5t126 232.5t109.5 217q20 12 46.5 30.5t53.5 38t49.5 37t38.5 27.5t19 10v-2q-33 -92 -85.5 -212.5t-134.5 -305.5q-39 -74 -94 -171t-117.5 -204.5t-131 -220t-135 -218t-126 -199t-106.5 -162.5q-31 -48 -72 -60 q-18 -8 -39 -8q-18 0 -33 8q-29 12 -39 47q-4 12 -4 17z" />
<glyph unicode="Z" horiz-adv-x="1255" d="M84 115q0 94 85 200.5t226 229.5q29 25 67 57.5t60 54.5h-41q-12 0 -30.5 2.5t-37 6.5t-33.5 9t-22 13l-110 131q61 -10 142 -13t147 -3h41q20 0 36 2h15q10 0 18 1t19 3q23 2 36 10q39 20 93.5 59.5t111.5 79.5l307 207q31 27 65 56.5t64.5 58.5t53 53.5t30.5 40.5l5 10 q0 8 -15 9h-4q-49 -4 -135 -20.5t-197 -51.5q-29 -10 -62.5 -20.5t-68.5 -22.5q-47 -16 -112.5 -33.5t-120.5 -21.5q-8 -2 -25 -2q-41 0 -61 14q-16 10 -17 31q0 16 13 45q29 31 93 60.5t146 55t176.5 46t182.5 36t162.5 23.5t119.5 8q61 0 90 -24q16 -10 24.5 -29t8.5 -53 v-2q-2 -6 -4 -17l2 2q-31 -143 -303 -366q-47 -39 -111.5 -84t-117.5 -80l22 -8q14 2 62.5 8t113.5 16q25 -2 38.5 -13t19.5 -26.5t7 -31t1 -27.5q-4 -16 -13.5 -30.5t-25.5 -24.5q-29 -14 -80 -25.5t-113 -17.5q-98 -10 -159.5 -15.5t-98 -8.5t-56 -5t-34.5 -4l-215 -185 q-139 -109 -221 -196q-82 -82 -82 -141v-7q4 -23 37 -22q6 0 10 2q29 2 73 12t90 25.5t89 32t72 28.5q227 106 360 107l176 -21q-70 -49 -195.5 -108.5t-285.5 -110.5q-147 -53 -252.5 -76.5t-146.5 -29.5q-12 -2 -24.5 -3t-22.5 -1q-31 0 -58 10q-41 12 -69 41 q-31 31 -31 84z" />
<glyph unicode="[" horiz-adv-x="868" d="M45 -90q0 14 4 35q10 31 25.5 72.5t40.5 88.5q57 119 104 215.5t90 185.5t85 182t89 208q20 55 39 124t35 129t30.5 102t26.5 46q37 12 87.5 20.5t103.5 12.5t103 6t87 2q68 0 123 -26q-72 -121 -233 -139q-109 -12 -142 -64q-6 -10 -22 -48t-39 -90t-48.5 -113.5 t-49 -119t-43 -104.5t-29.5 -70l-215 -559l8 -6q12 -4 26.5 -8t40 -6t68.5 -3t113 -1q29 -4 76 -8.5t90 -4.5q-141 -123 -340 -149q-39 -4 -77 -6t-73 -2q-34 0 -69 4t-70 12q-25 4 -35 28.5t-10 53.5z" />
<glyph unicode="\" horiz-adv-x="724" d="M150 1145l4 10q6 31 28.5 53.5t98.5 51.5q10 -25 29.5 -89.5t39.5 -130.5q10 -33 21.5 -70.5t23.5 -78.5q37 -125 68 -228.5t47 -173.5q12 -53 25.5 -112.5t25.5 -115.5t19.5 -104t7.5 -79l-13 -117q-82 18 -120.5 60t-48.5 104q-13 53 -29.5 117.5t-32.5 130t-33.5 129 t-31.5 116.5q-35 125 -53.5 234t-49.5 195q-4 20 -11 43.5t-13 52.5q-2 0 -2 2z" />
<glyph unicode="]" horiz-adv-x="1232" d="M76 -158q25 51 108.5 91t194.5 63q27 4 75 12t99 25.5t93 47.5t54 77q25 88 70 220t92 271t86 264t51 199q4 16 5 23q0 10 -7 16q-8 8 -28 8q-8 0 -15 -2q-51 -4 -102 -6t-102 -6q-53 0 -90 -2t-68 -5t-60.5 -6.5t-66.5 -5.5q-25 0 -39 8.5t-18 41.5q0 49 39.5 70.5 t78.5 21.5q61 0 157.5 8t198 18.5t197 21.5t154.5 17q-16 -66 -45 -163t-64 -201l-260 -883q-8 -23 -16 -50.5t-19 -43.5q-35 -66 -82 -83.5t-112 -17.5q-10 0 -53 -6t-96.5 -16t-106.5 -22.5t-84 -24.5q-35 -14 -73 -21.5t-66 -7.5z" />
<glyph unicode="^" horiz-adv-x="1177" d="M121 975v8q0 23 18 51q14 23 36 46.5t42.5 44t37.5 36t24 23.5q123 129 210 235q27 37 56 68q33 41 68.5 86t88.5 135q31 -74 68 -142.5t77 -137l80 -137t77 -140.5q14 -31 24 -55q6 -23 6 -39v-6q-4 -41 -76 -50q-29 0 -65.5 54.5t-91.5 136.5q-17 22 -47.5 58 t-79.5 114q-47 -47 -92 -96t-87 -95.5t-79 -85t-64 -63.5q-25 -25 -42 -39t-33.5 -25.5t-34 -18.5t-39.5 -15q-6 -2 -19 -2q-23 0 -37 14q-25 25 -26 37z" />
<glyph unicode="_" horiz-adv-x="1372" d="M-119 -156l23 52q25 10 55.5 13t65.5 3h43q28 -2 62 -3t71 -1h110q10 0 17 2q18 0 38.5 1t36.5 1h70q4 2 23 2h104q57 -2 114.5 -3t121.5 -7q20 -2 43.5 -3t52.5 -1h86q25 0 31 2h110q51 -4 86 -6q18 -4 26.5 -7.5t12.5 -5.5q6 -8 10 -12t15 -29l-7.5 -15l-7.5 -15 q4 -4 8.5 -7.5t12.5 -9.5q-119 -63 -248 -63h-51q-14 0 -19 2q-2 2 -12 2h-22l-56 -6q-12 -2 -27.5 -3t-25.5 -1q-2 -2 -18 -2h-43q-74 14 -134 18h-28q-57 0 -127 -6q-53 -4 -100.5 -6t-88.5 -2h-14l-2 -2q-6 0 -10 4q-98 0 -158.5 5t-85.5 9q-4 0 -6 1t-4 1q-47 0 -86 27 h4q-49 23 -72 71z" />
<glyph unicode="`" horiz-adv-x="688" d="M283 1395q12 69 27.5 86.5t49.5 17.5q16 0 25.5 -7t21 -23.5t28 -45t46.5 -71.5q49 -72 78 -114t44 -73.5t19.5 -61.5t4.5 -79q-51 14 -102.5 41t-94.5 59.5t-73.5 65.5t-43.5 59q-16 39 -23 75t-7 71z" />
<glyph unicode="a" horiz-adv-x="1228" d="M8 162q0 8 2 12q0 27 6 51q12 72 51 152t96.5 157.5t131.5 150.5t155.5 130t169 96t173.5 52q14 2 27.5 3t27.5 1q72 0 141 -29q43 -18 84 -69.5t45 -137.5v-12q0 -61 -18 -117q-35 -96 -90.5 -171t-100.5 -128q-10 -25 -12 -57q-2 -4 -2 -13q0 -25 20 -38 q53 -35 104.5 -56.5t129.5 -21.5q23 0 49.5 7t48.5 13q31 -10 31 -31q0 -2 -4 -14l-25 -35q-49 -43 -109.5 -49t-119.5 -8q-53 0 -88 7t-78 22q-47 20 -80 36.5t-61 38.5q-4 4 -8.5 7.5t-8.5 7.5q-41 -25 -108.5 -46.5t-140 -37t-141 -24.5t-111.5 -9q-53 0 -87 15.5 t-63 31.5q-12 8 -20.5 27.5t-12.5 44.5q-2 10 -3 20.5t-1 20.5zM168 211q0 -25 16 -41q27 -27 82 -27h17q47 2 102 17.5t105.5 34t92.5 39t62 34.5l43 31q31 20 75 59t86 93.5t75.5 122t44.5 145.5v6q0 20 -8 37q-18 29 -51 51.5t-62 22.5q-45 0 -109.5 -24t-130 -58.5 t-137.5 -99t-135.5 -140.5t-108.5 -150.5t-55 -127.5q-4 -16 -4 -25z" />
<glyph unicode="b" horiz-adv-x="1005" d="M-37 59q0 10 8 25q8 25 21 37l31 49q10 16 21 32.5t28 39.5q20 39 63 128t113 224q14 25 44 82t68.5 135t85 168t90.5 179t85 170t71 140q8 12 16.5 23.5t25 24t47 25.5t83.5 30q8 4 10 6v-2l-2 -6q-4 -12 -17 -45t-38 -101q-2 -4 -22.5 -48t-51 -111.5t-69.5 -149.5 t-78 -162t-75 -149.5t-60 -110.5q47 53 83 82t70 60q115 73 205 73h2q12 0 23.5 -1t21.5 -3q106 -25 140 -141q0 -4 5 -39t5 -76q0 -14 -1 -25.5t-3 -21.5q-4 -35 -17.5 -85t-40 -107.5t-67.5 -119t-103 -118.5q-53 -53 -97 -86t-87 -51.5t-87 -24.5t-97 -6q-100 0 -215 84 h2q-12 10 -31.5 17.5t-30.5 17.5q-88 -68 -127 -80q-16 -6 -28 -6q-14 0 -17 8q-6 6 -6 16zM281 221q27 -2 53 -16q39 -20 73.5 -33.5t61.5 -13.5q57 2 122.5 34.5t115.5 98.5q66 74 118 163t58 205q0 39 -15.5 65t-40.5 36q-8 2 -15 3t-17 1q-14 0 -23 -2q-29 -6 -65 -29 q-98 -59 -164 -130t-111 -124q-47 -57 -88 -118.5t-63 -139.5z" />
<glyph unicode="c" horiz-adv-x="1046" d="M43 371q0 33 6 67q20 100 77.5 181t135.5 142.5t170 102.5t184 62q107 24 200 24h7h27q66 -4 108.5 -29.5t65.5 -82.5q18 -41 18 -101q0 -43 -7 -89t-21.5 -87t-32.5 -73.5t-43 -49.5q-45 -33 -80 -39q-20 -4 -29 -4q-12 0 -24 4q-23 6 -25 25q-2 2 -2 10q0 12 6.5 24.5 t15.5 33t19 43.5q10 27 18.5 43t16.5 30q14 35 20.5 59.5t8.5 37.5q10 27 10 45v4q-4 35 -19.5 52t-29.5 17q-10 2 -21.5 3t-25.5 1q-53 0 -127 -18q-111 -29 -248 -115q-78 -47 -133 -123q-49 -72 -62 -129q-6 -29 -6 -57q0 -18 2 -37.5t6 -40.5q8 -59 56 -88 q78 -53 235 -80q47 -4 84 -8t62 -6q16 -2 32.5 -3t32.5 -1h25q86 4 156.5 9t111.5 15q8 2 15.5 3.5l17.5 3.5h4q12 0 22 -7q8 -2 9 -14v-6q-2 -12 -31 -41l-64 -39q-43 -20 -115.5 -31.5t-158.5 -13.5h-113q-27 0 -55 2q-41 2 -78 6t-67 8q-162 25 -269 117q-63 53 -84 137 q-14 49 -14 101z" />
<glyph unicode="d" horiz-adv-x="1251" d="M8 213q0 33 8 63q29 117 110 238t204 219q104 80 224 137.5t239 57.5q31 0 63.5 -7.5t64 -20.5t60.5 -30.5t47 -38.5q14 -23 25.5 -47t21.5 -49q16 29 37 60.5t41 66.5q29 51 55.5 98.5t42.5 79.5q51 104 99.5 186.5t93.5 141.5v-2q121 178 293 248q-35 -86 -65 -149.5 t-64 -114.5l-176 -291q-25 -47 -60 -108.5t-70.5 -126t-67.5 -124t-52 -102.5q-10 -23 -25.5 -54.5t-36.5 -72.5q-8 -18 -16 -36.5t-19 -41.5q-10 -18 -34.5 -69.5t-54 -109.5t-60.5 -111.5t-53 -75.5q-6 -8 -13.5 -14.5t-15.5 -12.5h-29q-27 0 -45 6q-27 12 -26 51l30 68 q0 2 1 4t1 4l-8 -8q-29 -23 -58.5 -43.5t-62.5 -30.5q-45 -14 -114.5 -27.5t-147.5 -17.5q-12 -2 -24 -2h-23q-27 0 -53.5 2t-52.5 6q-76 8 -132.5 38t-82.5 85q-18 33 -19 78zM176 254q0 -31 19.5 -52.5t53.5 -34.5t79 -19.5t94 -6.5q6 0 47 1t96.5 12.5t115.5 36t105 71.5 q20 20 34 32.5t42 53.5q53 59 82 182q14 37 14 93q0 53 -18 94q-18 39 -60 58.5t-94 19.5q-34 0 -70 -9.5t-79 -30t-94 -53t-119 -79.5q-129 -92 -180 -183.5t-68 -185.5z" />
<glyph unicode="e" horiz-adv-x="1081" d="M8 209v6q0 129 84 260q86 131 258 264q119 94 238 127t243 33q70 0 124.5 -20.5t72.5 -77.5q2 -10 3 -19.5t1 -19.5q0 -27 -8 -57q-23 -74 -87.5 -128.5t-149.5 -91t-180 -56t-177 -21.5h-33q-41 0 -81 3t-74 11q-23 -16 -44.5 -56t-33.5 -92l-3 -15t-1 -7q0 -51 69 -84 q35 -16 83 -26.5t96 -10.5q63 0 141 12.5t156 34.5q31 6 54 12.5t49 15.5t61.5 22.5t91.5 33.5q63 18 88 19h6q4 -4 4 -7q0 -12 -35 -47q-23 -23 -36 -35t-23.5 -21t-21.5 -16.5t-30 -19.5q-35 -16 -76.5 -39.5t-88.5 -40.5q-82 -29 -161 -42t-157 -13q-184 0 -272 31 q-150 51 -150 178zM371 571h61q37 0 88 4.5t105.5 15.5t107.5 30.5t94 50.5l37 37q14 12 15 34q0 6 -5 23q0 2 -2 4h2q-16 6 -55 6q-61 -2 -137 -26.5t-174 -77.5q-35 -18 -56.5 -31.5t-37 -25t-24.5 -21.5t-19 -23z" />
<glyph unicode="f" horiz-adv-x="956" d="M20 569q0 29 13.5 47.5t48.5 38.5q10 2 24 2h31q37 0 76 -1t78 -1q55 2 83.5 3t43 4.5t19.5 12.5t16 30q33 68 54 112.5t36.5 77.5t28 57.5t24.5 48.5q59 119 113.5 213.5t101.5 159.5q154 215 369 215h24q12 0 25 -2q74 -12 127 -56t82 -126q14 -49 14 -98q0 -41 -8 -66 q-10 -35 -28.5 -67.5t-41.5 -61.5q-37 -29 -87 -51.5t-79 -26.5h-6q-14 0 -14 13q12 27 28.5 56.5t32 56t28.5 49t17 34.5q2 10 3 20.5t1 20.5q0 23 -6 45q-25 76 -104 92q-20 4 -33 4q-27 0 -51 -8q-43 -10 -77 -30.5t-65.5 -59.5t-66.5 -99.5t-80 -150.5v2 q-57 -111 -103 -211t-89 -198q14 -2 26.5 -3t26.5 -1h57q68 -4 108 -6.5t61.5 -5.5t30.5 -6t13 -7q4 -10 7 -19.5t3 -31.5q-8 -20 -31.5 -43t-45.5 -33q-18 0 -49 1t-62 1q-2 2 -16 2q-49 0 -82 -1t-52.5 -2t-28.5 -2t-16 -1q-45 -104 -79.5 -181t-57.5 -136 q-41 -104 -74.5 -147.5t-72.5 -43.5q-25 0 -46.5 12.5t-31.5 32.5q-4 10 -6 21.5t-2 19.5q0 33 2 35q8 33 20.5 66.5t34.5 74.5q43 86 72.5 148.5t36.5 85.5q-37 2 -61.5 4t-45 4t-42 3t-52.5 1h-68q-2 -2 -6 -2q-25 0 -33 8q-18 14 -29.5 21.5t-11.5 29.5z" />
<glyph unicode="g" horiz-adv-x="1157" d="M-360 -354q0 6 2 10q4 47 41 96l15 22.5t26.5 36t32 39t32.5 29.5l-2 -147q0 -37 17.5 -65.5t47 -50.5t67.5 -35t81 -19t88 -6h23q92 2 150 17t110.5 62.5t110 139.5t147.5 248q29 51 60.5 100t51.5 110q-25 -12 -54.5 -25t-63.5 -30q-14 -6 -46 -15t-75 -18.5 t-93.5 -15.5t-101.5 -6t-98 8t-84 29.5t-60.5 55.5t-25.5 87q6 47 32.5 107.5t72.5 126t110.5 131t146.5 123.5q80 53 147.5 83.5t125 46t106.5 19.5t92 4q113 0 191 -47q39 -29 61 -68q16 -37 17 -94v-24q-6 -19 -12.5 -46.5t-13.5 -60.5t-19.5 -68.5t-30.5 -68.5 q-8 -14 -16.5 -27.5t-18.5 -32t-26.5 -45t-40.5 -69.5q-23 -35 -70 -101.5t-105 -179.5q-82 -166 -158.5 -293t-148.5 -188q-106 -92 -237 -119q-76 -16 -142 -16q-61 0 -125 12q-37 8 -84 22.5t-93 35t-84 48t-58 64.5q-18 31 -18 68zM211 319q0 -23 16 -34q33 -23 90 -23 q2 -2 11 -2q55 0 116 12q66 12 130.5 33t105.5 41q31 14 47 31q20 16 58 58t77 93.5t72 101.5t45 83q4 16 4 20q0 8 -6 12q-4 41 -40 51.5t-132 10.5q-66 -4 -139.5 -33t-184.5 -104q-45 -35 -88 -77t-78.5 -86t-61.5 -85t-36 -74q-6 -16 -6 -29z" />
<glyph unicode="h" horiz-adv-x="991" d="M-12 37q0 6 2 8q2 27 17.5 63.5t37 74.5t44 76t38.5 67q12 20 62.5 109t136.5 231q10 18 19 41.5t20 40.5q18 33 36.5 63.5t42 73.5t56 105.5t80.5 158.5q16 37 47.5 90t74.5 117q14 20 46 56t67 73t70 67.5t55 42.5l2 2v-8q-4 -16 -14 -61t-27 -94q-39 -125 -106.5 -243 t-132.5 -257q-59 -100 -111.5 -195.5t-89.5 -173.5q-2 -4 -4 -7t-4 -7q35 29 66.5 56.5t55.5 49.5q16 16 27.5 26.5t32.5 23.5q162 94 252 94q86 0 117 -74q8 -16 9 -31.5t1 -31.5q-35 -96 -56.5 -152.5t-34 -87.5t-18.5 -43t-8 -19l-2 -2q-47 -98 -72.5 -153t-37 -82 t-13.5 -34t-2 -11q-18 -72 -50 -95.5t-73 -27.5q-35 14 -49 34.5t-16 43.5v12q0 12 4 33q2 20 10 39q10 29 35.5 90t62.5 127q6 10 12.5 21.5t12.5 23.5q14 27 30.5 56.5t32 56t25.5 49t12 35.5q2 14 3 22t1 12q0 8 -2 11h-2q-2 -2 -4 -2q-25 0 -60.5 -18.5t-74.5 -46.5 t-79 -60.5t-71 -59.5q-23 -20 -77 -78.5t-140 -152.5q-133 -150 -258 -201q-10 -2 -17 -3t-15 -1q-14 0 -23 6q-12 8 -12 31z" />
<glyph unicode="i" horiz-adv-x="548" d="M55 61q0 43 15 89q14 57 39.5 117.5t44.5 97.5q18 45 46.5 108.5t60.5 127t63.5 118.5t56.5 84q20 18 32.5 28.5t25 16.5t26.5 8t39 4q2 -8 2 -26q0 -10 -1 -20.5t-3 -20.5q-6 -31 -23 -82q-25 -74 -55.5 -141.5t-44.5 -98.5q-4 -12 -14.5 -42t-42.5 -114 q-12 -20 -27.5 -56t-35 -77t-41 -81t-46.5 -66q-31 -35 -66 -35h-6q-39 2 -43 47q-2 4 -2 14zM508 1090v8q4 23 27 55q20 35 60 58.5t105 45.5q9 -26 9 -51v-8q-2 -10 -2 -22v-25q0 -12 -4.5 -34.5t-10.5 -33.5q-16 -35 -41.5 -61.5t-72.5 -26.5q-16 0 -37 9.5t-27 37.5 q-6 27 -6 48z" />
<glyph unicode="j" horiz-adv-x="598" d="M-555 -475q0 10 1 21.5t3 21.5q12 104 45 191t72 130q6 6 20.5 17.5t30.5 17.5q12 4 18 4q8 0 13 -2q12 -2 22 -28q-16 -80 -39.5 -162t-33.5 -174q-2 -10 -3 -27q0 -8 3 -10q0 -14 4 -27q18 -25 53 -39q20 -10 41 -10q25 0 49 8q51 16 113.5 80t128.5 203 q20 47 51 116.5t66.5 149.5t74.5 165t73 163t62.5 143.5t44.5 108.5q2 2 10.5 24.5t24.5 57.5q29 78 57.5 122t84.5 78h2q4 0 8 -10q10 -31 10 -80v-37q-6 -84 -42 -191.5t-84 -223t-100.5 -231t-90.5 -216.5q-59 -125 -105.5 -206t-83.5 -134t-64.5 -83.5t-47.5 -55.5 q-46 -51 -109.5 -87t-140.5 -50q-23 -6 -45 -6q-37 0 -68 18q-49 25 -79 73t-42 107q-8 31 -8 70zM516 1063q0 14 2 22q2 31 29 66q20 35 60 58.5t106 45.5q22 -77 22 -122q0 -12 -4 -35t-10 -33q-16 -37 -43 -65.5t-92 -28.5q-16 0 -37 9t-27 38q-6 20 -6 45z" />
<glyph unicode="k" horiz-adv-x="958" d="M61 45v4q0 33 23 96q20 63 92 179q45 72 82 133t69.5 116.5t60.5 108.5t54 109q14 27 28.5 57.5t33.5 66.5q47 92 87 174t85 159t100 149.5t133 146.5l2 2q2 0 7 -18q2 -12 2 -27q0 -12 2 -28v-60q-2 -14 -2 -22v-11q-12 -53 -39 -113.5t-58.5 -118.5t-63.5 -112.5 t-52 -95.5l-121 -219q47 35 118.5 99.5t148.5 130t148.5 116.5t118.5 57q-2 -10 -2 -18v-16q0 -25 -6 -53.5t-29 -75.5q-18 -27 -54 -60t-78 -68.5t-82 -69.5t-66 -61q-35 -30 -70 -58t-69 -58q4 -25 12 -56.5t17 -65.5t19.5 -63.5t18.5 -48.5q29 -70 52.5 -121t39.5 -84 q31 -66 31 -92v-4q-20 -39 -59 -51q-16 -4 -23 -4q-29 0 -63 29q-2 14 -23.5 56t-52.5 106.5t-66 150.5t-65 186q-6 -6 -22.5 -27.5t-34 -49t-34 -56.5t-24.5 -53q-16 -20 -29.5 -36.5t-23.5 -33.5q-55 -80 -88 -130t-54.5 -79.5t-38 -42t-36.5 -16.5h-13q-6 0 -22 4 q-16 6 -21 41z" />
<glyph unicode="l" horiz-adv-x="577" d="M39 55q0 10 2 17q6 37 30.5 81t54.5 88t57.5 82.5t39.5 65.5q20 39 53 94.5t66 112.5t61.5 111.5t40.5 91.5q72 176 112 284.5t67.5 168t55.5 80t77 22.5l-8 -234q-35 -98 -82.5 -212.5t-96.5 -225.5t-95 -207t-79 -158q-164 -280 -262 -319h-10q-53 0 -68 18 q-16 16 -16 39z" />
<glyph unicode="m" horiz-adv-x="1169" d="M33 80q8 68 16 104.5t23 71.5q16 41 41.5 98.5t56.5 120.5q63 141 108.5 230.5t67.5 121.5q37 43 57.5 61.5t30.5 22.5q2 2 8 2q4 0 7 -2q2 -4 2 -12q0 -47 -3.5 -102.5t-3.5 -83.5q0 -14 5 -15l2 2q23 18 55.5 46t66 52.5t66.5 42t55 19.5h2q31 0 31 -43q0 -4 -1 -28.5 t-1 -28.5q-4 -29 -6 -53.5t-4 -51.5q-2 -2 -2 -10q16 16 38.5 38t79.5 69q145 121 230 127h16q47 0 70 -31q18 -31 18 -88v-21q-20 -92 -54 -200.5t-93 -243.5q-78 -160 -156 -248t-149 -129q-12 37 -16.5 59.5t-4.5 26.5q10 66 58.5 158t128.5 227q12 20 28.5 55t33.5 74 t30.5 75t17.5 58q2 4 2 13q0 12 -8 12q-2 0 -10 -4q-72 -51 -133.5 -107.5t-112.5 -115.5q-27 -29 -69 -88.5t-99 -151.5q-84 -135 -194 -207q-12 43 -18.5 69.5t-8.5 37.5q6 68 31.5 123t68.5 126q41 59 64.5 111.5t34.5 122.5q-37 -31 -75 -73t-73 -95q-16 -23 -56 -83 t-100 -165q-45 -74 -88 -121t-90 -59q-14 35 -17 53.5t-5 30.5z" />
<glyph unicode="n" horiz-adv-x="878" d="M-6 70v10q0 33 20 92q18 47 45 102.5t52.5 105.5t45 87t23.5 47q14 33 35 77t44.5 91t46 93t40.5 83q16 31 49 62.5t62 31.5q23 0 30 -26q10 -31 11 -56q0 -18 -2 -26q-4 -20 -9.5 -40t-11.5 -42q59 51 126 89t122 54q27 6 46 9.5t36 5.5h8q20 0 37 -7q14 -10 20.5 -28.5 t12.5 -48.5q2 -10 2 -19v-18q0 -39 -6 -78q-18 -96 -58.5 -203.5t-87.5 -206.5q-31 -70 -57.5 -124t-59 -96t-73.5 -70.5t-101 -49.5q-4 10 -10 25.5t-10 32.5q-6 14 -6 26q0 20 10 41q23 49 63.5 120t98.5 194q12 27 33.5 63.5t43 75.5t39 72.5t21.5 54.5q8 25 8 45 q0 10 -4 22q-8 20 -35 21q-25 0 -59.5 -16.5t-71.5 -43t-70.5 -60.5t-56.5 -69q-43 -63 -86 -142t-100 -179q-25 -41 -52.5 -91t-50.5 -91q-16 -29 -55 -52.5t-74 -46.5q-18 29 -20 39.5t-2 26.5v12q0 8 -2 19z" />
<glyph unicode="o" horiz-adv-x="1095" d="M20 188v21q0 47 15 96q25 98 100.5 215t194.5 230q82 76 156.5 117.5t138 62t113.5 26t83 5.5q45 0 93.5 -25t87 -76t63.5 -127t25 -178q0 -117 -89.5 -216t-224.5 -185q-250 -152 -475 -152q-115 0 -197 37q-41 29 -60 65.5t-24 83.5zM170 240q0 -47 39 -72 q33 -20 98 -21q92 0 184.5 21.5t186.5 81.5q78 53 147.5 107.5t104.5 131.5q18 45 18 105v12q-2 27 -6 59.5t-18 59.5q-20 39 -53 60.5t-74 21.5q-68 0 -154 -32t-197 -122q-55 -51 -104 -106t-86 -108.5t-60.5 -102.5t-25.5 -88v-8z" />
<glyph unicode="p" horiz-adv-x="1024" d="M-401 -666q6 53 19 102.5t48 118t97.5 171t164.5 262.5q6 12 33 58t69 115.5t97 160t119 190.5q4 8 23.5 35.5t50 65.5t73.5 81t94 84q51 39 103.5 67.5t105.5 45.5q55 18 113 18q49 0 109 -16q70 -31 116 -127q20 -43 21 -94v-4q-4 -78 -37 -156t-90 -150 q-113 -166 -259.5 -246.5t-301.5 -107.5h-7q-115 0 -161 66q-10 14 -16.5 29.5t-10.5 33.5q-41 -59 -66.5 -107t-42.5 -83q-31 -57 -69.5 -127t-78.5 -143.5t-78 -147.5t-68 -135q-27 -39 -45.5 -65.5t-51.5 -26.5q-10 -2 -24 -2h-8q-16 4 -41 34zM305 236q0 -12 2 -27 q4 -29 27 -43q23 -16 53 -16h8q57 4 127 38.5t150 100.5q39 31 65.5 52t48 41.5t39 45.5t37.5 59v2q12 21 24.5 46.5t20.5 54.5q2 10 3 22.5t1 24.5v14q-4 33 -20 68q-25 45 -64 57q-10 2 -19 3t-20 1q-23 0 -47 -6q-47 -14 -96 -44t-94 -63.5t-80 -67.5t-51 -54 q-10 -14 -18.5 -26.5t-18.5 -24.5q-8 -14 -14.5 -26.5t-12.5 -23.5q-10 -16 -17 -31.5t-17 -33.5q0 -2 -3 -2q-6 -23 -9 -45.5t-5 -42.5v-53z" />
<glyph unicode="q" horiz-adv-x="937" d="M-31 -702q10 53 25.5 101t52.5 115.5t103.5 166t179.5 251.5q26 35 45.5 71t36.5 75q-55 -14 -108.5 -25.5t-96.5 -11.5h-10q-57 0 -91 18q-41 20 -62 56.5t-26 83.5q-2 10 -2 18v19q0 16 1 30.5t3 30.5q6 45 22.5 97t44.5 104.5t64.5 101.5t86.5 92q102 92 207.5 153.5 t218.5 67.5h18q59 0 127 -22q68 -33 109 -135q14 -31 14 -70q0 -16 -2 -24q-10 -72 -50 -146t-94 -156q-12 -18 -22 -35.5t-23.5 -40t-36 -55t-59.5 -82.5q-66 -88 -112 -153.5t-68 -112.5q-35 -55 -78 -122.5t-88 -138.5t-87 -141.5t-75 -129.5q-29 -39 -48 -64.5 t-52 -25.5q-20 0 -30.5 3t-37.5 36zM160 242q0 -27 22.5 -44.5t61.5 -17.5q115 0 284 121q41 29 67 51.5t45 46t34.5 48t38.5 59.5v2q20 33 44.5 64.5t28.5 78.5v6q0 31 -14 62q-23 45 -61 61q-23 6 -47 6q-10 0 -19.5 -1t-19.5 -3q-47 -10 -97.5 -36.5t-96.5 -59.5 t-83 -64.5t-55 -50.5q-47 -49 -73.5 -93t-40 -85t-16.5 -77.5t-3 -73.5z" />
<glyph unicode="r" horiz-adv-x="854" d="M0 100q0 10 1 18.5t3 18.5q6 31 21.5 65t35.5 72q35 63 56.5 102.5t35 65t21.5 44t17.5 40t21.5 51t35 80.5q20 45 36.5 81t32.5 69q16 27 32 52.5t34 49t43 42t61 32.5q6 -16 7 -41q0 -23 -2.5 -43t-2.5 -35q-2 -2 -2 -8q0 -4 2 -4q20 20 66.5 30.5t79.5 10.5 q20 0 37 -4q45 -16 82 -32.5t64.5 -40t47 -56.5t31.5 -82q2 -4 2 -23q0 -14 -4 -31.5t-16 -29.5q-10 -10 -29 -10h-6q-41 6 -61.5 15t-35 22.5t-30 29t-43.5 33.5q-47 27 -103 27h-6q-59 -4 -110 -45q-25 -53 -44.5 -93.5t-39 -77t-41 -76.5t-48 -93.5t-61.5 -125 t-82 -171.5q-22 -17 -40.5 -23t-32.5 -6q-20 0 -37 12q-25 37 -27 64q-2 8 -2 24z" />
<glyph unicode="s" horiz-adv-x="1124" d="M2 199q0 33 18 63q23 45 75 80t122 47q-6 -31 -28.5 -63.5t-28.5 -63.5v-12q0 -16 8 -31q25 -29 89.5 -44t145.5 -15q82 0 170.5 13t162 38t121.5 60.5t50 82.5q-2 14 -50 28.5t-111.5 29t-126 29t-93.5 28.5q-70 29 -107.5 56.5t-53.5 58.5q-16 29 -17 55q0 2 2 4 q0 31 8 62q2 39 51.5 73.5t123 59t162.5 40t171 17.5h15q29 0 56.5 -2t51.5 -6q68 -14 96 -64q18 -31 19 -80q0 -29 -6 -61q-47 23 -79 36t-48 17q-47 10 -94 10q-53 0 -111 -6q-18 -4 -48 -11t-61.5 -17.5t-59.5 -22.5t-40 -24q-8 -8 -8 -17q0 -10 18 -22q158 -49 250 -77 t141.5 -42t69 -23.5t29.5 -21.5q8 -10 15 -21.5t13 -25.5q8 -16 9 -37q0 -6 -1 -12.5t-3 -14.5q-10 -84 -78 -148.5t-167.5 -109.5t-216 -67.5t-225.5 -22.5q-84 0 -159 16q-57 12 -100.5 28.5t-71.5 35.5q-58 41 -66 88q-2 8 -3 14t-1 15z" />
<glyph unicode="t" horiz-adv-x="802" d="M51 43q0 8 2 14q6 37 27 80q10 25 33.5 84.5t68.5 151.5q27 53 66 127.5t79 153.5t76.5 153t59.5 123q-31 6 -62 6h-10q-6 -2 -14 -2q-14 0 -27.5 1t-23.5 3q-29 4 -48.5 19.5t-25.5 54.5q2 31 26.5 47t65.5 25.5t97.5 12.5t123.5 7q39 90 68 154.5t53.5 111.5t48 85 t51.5 75l136 88h2q6 0 8 -8q8 -23 8 -64q0 -20 -2 -26l-190 -412v-2q0 -6 14 -6q10 0 16 2q10 2 23 2h47q37 0 81 -1t89 -5t86 -11.5t70 -21.5q37 -18 36 -49v-4l-2 -37q-4 -19 -31.5 -25t-60.5 -10q-31 -4 -102.5 -5t-149.5 -1q-76 0 -138 -1t-77 -3q-14 -29 -44 -91.5 t-83 -174.5q-8 -18 -26.5 -59.5t-43 -91.5t-51 -104.5t-49 -103.5t-41 -86l-24.5 -49q-25 -47 -65 -100.5t-87 -69.5q-16 -6 -26 -6q-20 0 -37 8q-20 14 -21 41z" />
<glyph unicode="u" d="M35 274q0 74 28 172q43 113 111 207q55 74 89 115t60.5 63.5t52 32.5t64.5 21l6 -25v-16q0 -29 -16 -111q-12 -23 -19.5 -33t-18.5 -23t-30.5 -38t-56.5 -76q-47 -59 -78.5 -125.5t-31.5 -138.5q0 -57 14 -86q27 -49 98 -49q68 0 126.5 10t117.5 37q59 25 114.5 85 t106.5 143t99.5 182.5t93.5 201.5q8 8 29.5 24.5t64.5 41.5q10 -20 12 -64.5t2 -79.5v-32q-4 -18 -19.5 -59.5t-32.5 -85.5t-34.5 -81.5t-25.5 -52.5q-35 -61 -58.5 -102t-47.5 -72t-50.5 -58.5t-67.5 -62.5q-100 -86 -206.5 -110.5t-223.5 -24.5q-106 0 -183 57.5 t-87 184.5q-2 10 -2 28zM965 823q2 2 2 4t2 4z" />
<glyph unicode="v" horiz-adv-x="800" d="M86 819q4 41 32.5 70t63.5 53q29 -47 45.5 -72.5t24.5 -38t10 -16.5t2 -8q0 -45 1 -101.5t2 -115t3 -114.5t4 -101q16 20 38 43.5t44 50.5l97.5 107.5t125 130t135 122t124.5 84.5q39 18 67 19h10q39 -27 39 -55v-3q-2 -23 -16 -44t-36.5 -41.5t-51.5 -42t-55 -44.5 q-12 -10 -20.5 -17t-24.5 -17q-63 -41 -130 -115t-125.5 -158t-104.5 -167t-68 -140q-35 -66 -68 -86q-23 -12 -45 -12q-6 0 -23 4q-29 2 -42 42t-21 134t-14.5 252t-22.5 397z" />
<glyph unicode="w" horiz-adv-x="1302" d="M82 252q0 18 2 29q2 55 9 115.5t18.5 118.5t22.5 112.5t22 101.5q12 68 43.5 108t113.5 72q10 -49 13.5 -81.5t3.5 -55.5q0 -33 -2 -61.5t-7.5 -63.5t-16.5 -82t-30 -116q-14 -61 -19 -101.5t-9 -50.5q-2 -10 -3 -17.5t-1 -13.5q0 -14 6 -20q8 -6 16 -6q4 0 17 4 q20 6 42.5 24.5t34.5 34.5q29 39 62 77t55 81q43 76 76 125t60.5 81.5t53 52t54.5 36.5q10 -51 16 -137.5t10 -208.5q2 -76 13.5 -133.5t36.5 -102.5q10 -8 24 -8q16 0 37 14q39 33 86 113t90 176t80 191.5t57 158.5q33 104 60.5 162.5t50.5 79.5q29 27 55 29q6 2 17 2 q12 0 28 -7q18 -8 29.5 -23t11.5 -26q0 -82 -31.5 -167t-82.5 -195q-29 -61 -65 -132t-72.5 -140.5t-72.5 -131t-63 -102.5q-37 -55 -76.5 -88t-77.5 -50.5t-71 -22.5t-53 -5q-45 0 -77 30.5t-53.5 80t-32.5 110t-15 119.5l-93 -119q-53 -61 -106 -117.5t-94 -85.5 q-29 -18 -45 -18h-4q-63 4 -97.5 42t-46.5 99q-4 25 -7 52.5t-3 56.5z" />
<glyph unicode="x" horiz-adv-x="817" d="M-86 74q53 31 105.5 64.5t99.5 80.5q35 33 64.5 61.5t56 58.5t51 62.5t51.5 73.5q-6 43 -15.5 89t-19.5 90t-21.5 83t-19.5 70q-23 70 -35 101.5t-16 49.5h23q16 0 31.5 -1t27.5 -3q47 -10 71.5 -41.5t47.5 -87.5q10 -29 26.5 -87t36.5 -124q33 27 71 65t76 82t73.5 91 t64.5 90q14 23 37.5 47.5t77.5 40.5q8 -53 11 -90t3 -76q0 -10 -19.5 -45t-70.5 -102q-25 -33 -58.5 -73t-69.5 -80t-71 -77.5t-61 -68.5q18 -92 45.5 -176t56.5 -138l5 -32q-2 -40 -34 -60q-23 -12 -47 -12h-20q-41 0 -67.5 29.5t-51.5 124.5q-4 14 -6 23t-5 20.5t-8 28 t-16 46.5q-59 -59 -95 -78.5t-52 -35.5q-10 -12 -68 -41q-41 -23 -68.5 -37t-50 -24.5t-46 -16.5t-54.5 -12q-35 0 -40 17t-7 30z" />
<glyph unicode="y" horiz-adv-x="1021" d="M16 145v21q4 23 11.5 62.5t42.5 115.5q16 37 33.5 72t41 71.5t55 78.5t76.5 91q18 20 47 56.5t60 74t60.5 67.5t48.5 38q12 4 36 8h11q10 0 30 -4q16 -6 27 -25v-10q0 -20 -14 -47q-8 -18 -32 -49t-58.5 -77t-82 -110.5t-102.5 -152.5q-37 -43 -63.5 -92t-38.5 -88 q-8 -25 -8 -47q0 -12 2 -19q2 -18 22 -18q8 0 12 2q156 57 322 217q39 39 113.5 124t179.5 220h-2q160 197 297 242l-13 -84q-6 -43 -174 -338q-27 -47 -64.5 -104.5t-80.5 -123.5q-53 -78 -111.5 -166t-115.5 -188q-47 -78 -96.5 -166t-98.5 -172t-98 -155.5t-96 -116.5 q-49 -55 -117 -70h-10q-25 0 -35 17q-12 23 -15 65q8 45 38 102.5t70 120t84 125t79 115.5q31 41 65.5 89t68.5 94t61.5 88t43.5 71q-16 -12 -37.5 -28.5t-39.5 -28.5q-150 -106 -248 -113h-39q-23 0 -45.5 6t-45 20.5t-38.5 41.5q-18 27 -19 77z" />
<glyph unicode="z" horiz-adv-x="1212" d="M20 193q0 26 24 53.5t56.5 53.5t66.5 47.5t56 33.5q14 8 18.5 11l7.5 5t8 5.5t24 11.5q-35 10 -68 21t-68 28q-43 23 -59 37q-14 12 -14 26v6l-13 107q12 -4 31 -10t38 -12.5t35.5 -11.5t26.5 -7q53 -18 123 -34.5t123 -22.5q16 -2 33.5 -3t36.5 -1q27 0 55.5 3t59.5 7 q98 14 181 40.5t132 57.5q33 20 33 39q0 6 -4 10q-37 35 -91.5 50.5t-109.5 19.5h-47q-12 0 -23 -2q-127 -6 -186 -19q-27 -8 -57 -8q-4 -2 -13 -2q-10 0 -22.5 1t-26.5 3q-25 6 -55.5 24.5t-73.5 49.5q31 23 76 41t100 31.5t117.5 20.5t126.5 9h14q39 0 77 -3t77 -7 q82 -12 153.5 -36.5t120.5 -63.5q43 -43 51 -78q2 -8 3 -23q0 -25 -13 -49q-20 -35 -66 -68.5t-116 -70.5q-29 -14 -62.5 -28.5t-66.5 -26.5h2q25 -6 48.5 -10.5t39.5 -8.5q35 -25 41 -53v-16q0 -23 -8 -37q-14 -23 -37 -39q-20 -10 -39 -10h-10q-145 29 -225 39t-121 12 h-13q-33 0 -47 -6q-8 -4 -16 -6t-16 -7q-25 -8 -58 -18t-64.5 -22.5t-58 -23.5t-41.5 -22q-12 -10 -12 -16t6 -12v-2q12 -12 36 -22.5t51.5 -19.5t55 -14.5t50.5 -5.5h41q14 0 30 2q55 4 131 16.5t150 28t133 33t80 33.5q39 23 66.5 30t64.5 11l-6 -60q-35 -80 -136.5 -126 t-279.5 -80h-2q-53 -8 -97 -14.5t-87 -8.5q-10 -2 -23 -2h-45q-12 0 -24 2q-23 2 -50.5 5t-58.5 9q-135 31 -208 67t-73 108z" />
<glyph unicode="{" horiz-adv-x="1050" d="M72 39q0 45 16 100q18 63 52 116.5t71 103t71.5 98.5t55.5 106q-10 68 -52 102.5t-112 69.5q29 55 71 96t130 91l-13 30q-4 14 -9 40t-15 67q8 86 24.5 169t46 154.5t76.5 128t119 93.5q64 30 127 30q12 0 24.5 -1t24.5 -3q45 -8 87 -22.5t81 -34.5q51 -33 78 -72 q20 -29 21 -78q0 -14 -3 -22q-2 -6 -4 -25.5t-2 -23.5q-78 25 -118.5 41t-65.5 26.5t-44 15.5t-52 9h-19q-45 0 -82 -25q-66 -49 -98.5 -145t-36.5 -203q0 -57 24.5 -104t59.5 -86q-16 -35 -48 -58.5t-73 -44.5q-4 -4 -16 -9t-23 -9q20 -47 43 -105q20 -49 21 -94v-6 q0 -18 -2 -20q-4 -10 -38 -66.5t-120 -161.5q-47 -61 -86 -141t-51 -158q2 -25 40 -36t91 -13q16 -2 31 -2h78q29 2 51 2h45q47 -4 75.5 -30.5t47.5 -82.5q-53 -12 -130 -22t-155 -14h-27q-72 0 -127 18q-137 47 -157 172q-2 10 -3 19.5t-1 19.5z" />
<glyph unicode="}" horiz-adv-x="1159" d="M258 -82q0 6 1 25.5t1 23.5q82 -18 143.5 -32.5t108.5 -24.5t85 -15.5t73 -5.5q45 0 79.5 20.5t59.5 55.5t41 81t24 99q8 47 9 103v20q0 10 -2 21q-4 59 -34 104t-71 82q14 35 46 61.5t73 51.5q4 4 16.5 10t22.5 10q-27 47 -55.5 102.5t-28.5 100.5q0 18 2 20 q2 10 32.5 72t108.5 172q43 70 78 156t41 164q-2 25 -45 35q-35 6 -76 6h-20q-55 -2 -113.5 -9.5t-101.5 -11.5q-49 0 -81 24.5t-57 80.5q53 16 133 33.5t158 27.5q39 6 76 6q43 0 88 -10q145 -35 182 -160q8 -27 9 -65q0 -33 -11 -78q-14 -70 -44.5 -127t-65.5 -109.5 t-68 -104.5t-49 -114q16 -68 65.5 -99.5t122.5 -60.5q-12 -31 -27.5 -55t-37 -46.5t-53 -48.5t-74.5 -56l14 -31q6 -12 12.5 -38t20.5 -67q0 -90 -9 -175t-34 -158.5t-70 -136t-114 -105.5q-49 -29 -127 -39q-16 -2 -31.5 -3t-32.5 -1q-41 0 -73 6q-61 10 -112.5 21.5 t-90.5 27.5q-57 27 -88 64q-29 35 -29 92v8z" />
<glyph unicode="~" horiz-adv-x="1507" d="M246 600q41 66 96 132.5t120.5 118.5t138.5 85t149 33q57 0 85.5 -41t48 -90.5t39 -90t56.5 -40.5q53 0 123 38q225 115 254 117q6 0 14 -1t19 -5q12 -4 26.5 -16.5t26.5 -55.5q-4 -10 -8 -18t-11 -16q-18 -19 -61 -50q-14 -10 -42 -24t-56 -29q-86 -41 -160 -74.5 t-150 -33.5q-135 0 -182 139q-18 41 -36.5 65.5t-41.5 24.5q-82 0 -194 -74q-135 -84 -254 -94z" />
<glyph horiz-adv-x="1392" d="M113 125v14q4 90 96 187.5t233 201.5q14 10 21.5 15.5t12.5 9.5t11.5 9t18.5 16l-21 2l-18 2q-12 0 -30.5 3t-36 7t-32 11t-20.5 13l-100 132q41 -8 90 -14.5t98 -10.5t94 -7t76 -5q8 -2 23 -2q16 0 26 2q12 2 21.5 4t15.5 4q39 16 94.5 50t114.5 69l260 139 q33 23 68 49.5t65.5 51t54 46t33.5 35.5l4 12q0 8 -16 9q-49 -2 -134 -11.5t-196 -35.5q-29 -10 -61.5 -16.5t-67.5 -16.5q-23 -6 -51.5 -12.5t-60 -12.5t-63 -9t-58.5 -3q-2 -2 -8 -2q-35 0 -54 8q-25 10 -30 29q-2 4 -2 12q0 16 14 43q29 27 91.5 49.5t143 41t173 32.5 t178.5 22q-37 16 -78 65.5t-88 106.5q-31 27 -49 58q-8 14 -8 28q0 12 6 25q18 18 37 21h12q8 0 14 -1.5l14 -3.5q39 -14 90.5 -53t90.5 -88l108 68v-2q41 29 84 41q37 10 64 10h45q10 0 20 -2q16 -2 27.5 -3t15.5 -1h10q-25 -18 -56.5 -43t-62 -47.5t-55 -40t-34.5 -23.5 q-51 -41 -73 -67.5t-44 -38.5q31 2 58.5 3t53.5 3h60q14 0 24 -2q61 -2 86 -27q16 -12 23 -29q2 -8 3 -16t1 -18v-17q0 -2 -2 -6t-4 -12l2 2q-20 -66 -98 -148t-219 -180q-49 -33 -88 -53.5t-95 -48.5l21 -8q14 0 61 2t113 8q37 -6 47 -27.5t10 -44.5v-26q-6 -16 -15 -27.5 t-26 -20.5q-29 -12 -80 -19t-110 -9q-98 -4 -157.5 -5t-96.5 -1h-55q-23 0 -33 -2l-154 -113q-141 -92 -229 -170t-88 -135q0 -23 43 -23q31 0 75 8.5t90 18.5t88 22.5t70 22.5q209 78 330 78q18 0 29 -2l168 -29q-70 -43 -196 -92t-286 -86q-147 -41 -250.5 -57.5 t-144.5 -18.5h-24q-45 0 -78 12q-43 16 -64 43q-25 31 -24 68z" />
<glyph horiz-adv-x="1212" d="M20 193q0 27 24 54t56.5 53t66.5 47.5t56 33.5q14 8 18.5 11l7.5 5t8 5.5t24 11.5q-35 10 -68 21t-68 28q-43 23 -59 37q-14 12 -14 26v6l-13 107q12 -4 31 -10t38 -12.5t35.5 -11.5t26.5 -7q53 -18 123 -34.5t123 -22.5q16 -2 33.5 -3t36.5 -1q27 0 55.5 3t59.5 7 q98 14 181 40.5t132 57.5q33 20 33 39q0 6 -4 10q-37 35 -91.5 50.5t-109.5 19.5h-47q-12 0 -23 -2q-127 -6 -186 -19q-27 -8 -57 -8q-4 -2 -13 -2q-10 0 -22.5 1t-26.5 3q-25 6 -55.5 24.5t-73.5 49.5q57 41 149.5 66.5t202.5 31.5q16 2 35 2h74q18 0 37 -2 q-35 16 -75 65.5t-87 104.5q-31 27 -49 58q-8 14 -8 28q0 12 6 25q18 18 37 20h12q8 0 14 -1t15 -3q39 -14 90 -53t90 -88l108 68v-3q41 29 84 41q37 10 64 11h45q10 0 20 -2q16 -2 27.5 -3t15.5 -1h11q-25 -18 -57 -43t-62.5 -47.5t-55 -40t-34.5 -23.5 q-35 -27 -54.5 -47.5t-34 -35.5t-27.5 -24.5t-34 -11.5q92 -10 171 -34.5t132 -65.5q43 -43 51 -78q2 -8 3 -23q0 -25 -13 -49q-20 -35 -66 -68.5t-116 -70.5q-29 -14 -62.5 -28.5t-66.5 -26.5h2q25 -6 48.5 -10.5t39.5 -8.5q35 -25 41 -53v-16q0 -23 -8 -37 q-14 -23 -37 -39q-20 -10 -39 -10h-10q-145 29 -225 39t-121 12h-13q-33 0 -47 -6q-8 -4 -16 -6t-16 -7q-25 -8 -58 -18t-64.5 -22.5t-58 -23.5t-41.5 -22q-12 -10 -12 -16t6 -12v-2q12 -12 36 -22.5t51.5 -19.5t55 -14.5t50.5 -5.5h41q14 0 30 2q55 4 131 16.5t150 28 t133 33t80 33.5q39 23 66.5 30t64.5 11l-6 -60q-35 -80 -136.5 -126t-279.5 -80h-2q-53 -8 -97 -14.5t-87 -8.5q-10 -2 -23 -2h-45q-12 0 -24 2q-23 2 -50.5 5t-58.5 9q-135 31 -208 67t-73 108z" />
<glyph unicode="&#xa3;" horiz-adv-x="1488" d="M57 94q41 55 96.5 109.5t118.5 99.5q0 4 2 4q10 33 24.5 62.5t37.5 66.5q49 78 79.5 132.5t39.5 76.5q-61 8 -100.5 10t-63.5 2h-35q-10 0 -14 5q-8 8 -15.5 12t-11.5 8q-10 6 -10 23v6q2 55 65 73q53 -2 92 -2h66q43 0 63.5 3t30.5 8.5t14.5 13.5t12.5 20 q41 70 71.5 122t59.5 97.5t59.5 86.5t69.5 86q150 178 350 178q16 0 33.5 -1t34.5 -3q72 -16 122 -59.5t72 -121.5q10 -45 11 -77q0 -41 -13 -72q-25 -61 -78 -115q-37 -25 -87 -44t-78 -19q-18 0 -19 14q29 49 66 99.5t49 74.5q8 27 8 57q0 47 -29 82q-31 35 -94 35 q-27 0 -59 -6q-72 -14 -130.5 -68.5t-104.5 -124t-83 -141t-65 -123.5h80q16 0 32 -2q70 0 112 -2t63.5 -6t28.5 -9t9 -11q4 -12 7 -17q2 -2 2 -12t-2 -18q-10 -18 -34 -38t-46 -28q-14 2 -49 3t-76 2t-84 1h-68q-35 0 -35 -2q-41 -76 -73.5 -135t-57.5 -107q16 0 23 3h6 q10 0 16 -3q57 -2 83 -40.5t42.5 -85t31.5 -85t52 -40.5h10q45 0 113 28q113 45 175.5 68.5t78.5 25.5q6 -2 14.5 -3t18.5 -5q10 -6 22.5 -17t22.5 -52q-4 -10 -8 -17.5t-13 -13.5q-10 -8 -24 -18.5t-37 -20.5q-14 -10 -41 -22.5t-55 -22.5q-43 -16 -83 -31.5t-77 -27.5 q-68 -23 -127 -23h-20q-135 6 -173 135q-16 41 -31.5 63.5t-37.5 24.5h-14q-78 0 -179 -57q-70 -33 -133 -51.5t-123 -20.5z" />
<glyph unicode="&#xa5;" horiz-adv-x="1566" d="M123 225v2l4 11q6 14 26.5 41.5t43.5 52.5q49 8 88 13t67 7h70q12 0 22 -2q6 14 12.5 28.5t14.5 31.5q-41 4 -70.5 7t-53 6t-45 6t-44.5 7v2l4 11q6 14 26.5 41.5t43.5 52.5q78 12 130 16t87 4q10 23 22.5 43.5t24.5 38.5q-43 18 -77 51t-50 82t-16 109q0 6 2 8 q0 70 26 152q23 53 49.5 101t59.5 95q55 70 88 109t59.5 60.5t52 31.5t62.5 20l6 -24v-15q0 -31 -16 -106q-12 -20 -19.5 -29.5t-17.5 -23t-29.5 -37t-56.5 -72.5q-45 -55 -77 -118.5t-32 -133.5q0 -53 15 -82q29 -47 96 -47q66 0 123 10.5t117 34.5q57 25 112 82.5 t106.5 136t98.5 173t90 192.5q8 8 29.5 23.5t62.5 39.5q10 -20 12.5 -63t2.5 -74v-31q-4 -18 -19.5 -57t-33 -81t-34 -77.5t-24.5 -50.5q-35 -59 -57.5 -97t-46 -67.5t-50 -56.5t-65.5 -59q-94 -80 -193.5 -103.5t-210.5 -25.5q-6 -18 -13 -36t-13 -34q10 -2 18 -2h39 q10 0 21 -2q78 -6 143 -27l6 -106q-80 -14 -194 -19q-14 2 -29 2h-51q-12 0 -23 2v-2l-8 -20t-14 -39q10 0 17 -1t17 -1q37 -4 74 -10t72 -17l6 -106q-84 -17 -197 -19h-28q-16 0 -27 2q-27 -59 -59.5 -119.5t-73.5 -95.5q-20 -20 -45 -20h-8q-29 4 -37 27q-8 14 -8 38 q0 12 2 19q2 35 16 76t31 82h-4q-49 6 -85 10t-63.5 7t-51.5 5t-48 6zM1368 1405q2 2 2 4t2 4z" />
<glyph unicode="&#xa7;" horiz-adv-x="1579" d="M29 203q0 33 18 63q23 45 75 80t122 47q-6 -31 -28.5 -63.5t-29.5 -63.5v-12q0 -16 9 -31q25 -31 89 -45t146 -14t170 13t162 38t122 60.5t50 82.5q-2 10 -35 22.5t-90 29t-137 38t-176 52.5q-47 25 -73 49t-36 51q-10 25 -10 45v8q2 14 3 27.5t5 28.5q4 39 52 72.5 t122 60.5q-27 8 -38 14t-19 16q-20 25 -31 48q-10 20 -10 41q0 14 2 20q8 84 72.5 151.5t162 116.5t212 77t223.5 34h30q70 0 131 -12q115 -20 174 -56q55 -35 72 -84q2 -10 3 -18t1 -19q0 -31 -14 -57q-23 -47 -74 -84t-119 -51q4 31 24.5 65.5t27.5 67.5v8q0 14 -11 31 q-29 29 -90 41q-57 10 -114 10h-33q-82 -4 -169 -20.5t-160 -45t-120 -66.5t-47 -85q2 -14 52.5 -26.5t117 -25.5t135 -26.5t109.5 -29.5q92 -37 123.5 -76t31.5 -84q0 -29 -6 -60q-2 -45 -59 -83.5t-143 -67.5q37 -12 52 -21.5t25 -19.5q8 -10 15.5 -21.5t13.5 -25.5 q8 -16 8 -37q0 -6 -1 -12.5t-3 -14.5q-10 -84 -77.5 -148.5t-167 -109.5t-216 -67.5t-225.5 -22.5q-84 0 -160 17q-57 12 -100 28.5t-72 34.5q-57 41 -65 88q-2 8 -3 14.5t-1 14.5zM575 651q0 -10 19 -22q29 -10 55.5 -17.5t50.5 -15.5q23 0 48.5 3t54.5 7q18 2 48 11.5 t60.5 21.5t58 25.5t40.5 27.5q6 8 6 15q0 12 -19 22q-20 4 -38.5 9t-36.5 10q-11 2 -21 2h-41l-67 -7q-18 -4 -48 -11t-62 -17t-59.5 -22.5t-39.5 -24.5q-8 -8 -9 -17z" />
<glyph unicode="&#xa8;" horiz-adv-x="1040" d="M414 1430q0 10 2 16q4 31 24 57q16 29 50 49.5t88 40.5q6 -32 12 -58t6 -48q0 -10 -4 -29.5t-8 -30.5q-12 -33 -33 -55q-23 -25 -70 -24h-8q-14 0 -31.5 8t-21.5 30q-6 20 -6 44zM766 1421q0 10 2 17q4 33 23 57q16 29 51 49.5t88 42.5q6 -35 12 -60.5t6 -47.5 q0 -10 -4 -28.5t-8 -29.5q-10 -27 -35 -57q-23 -25 -67 -25h-9q-14 0 -31.5 8.5t-21.5 32.5q-6 20 -6 41z" />
<glyph unicode="&#xa9;" horiz-adv-x="4483" d="M29 -383q0 63 24.5 124.5t59 118t70.5 106.5t61 93v7q0 25 -15.5 48t-15.5 50q0 39 22.5 67.5t53 50t64.5 39t59 33.5q8 6 21 18.5t28.5 25t31 21.5t31.5 9v-74q70 -25 107 -60.5t37 -107.5q0 -145 -148 -145q-27 0 -46 5t-37.5 11t-37 14.5t-43.5 14.5 q-8 -23 -28.5 -50.5t-42 -55t-42 -55t-28.5 -50.5q-4 -4 -15.5 -20.5t-13.5 -20.5q-4 -8 -20 -36.5t-34.5 -61.5t-36 -62.5t-21.5 -38.5q-8 -14 -18.5 -16t-26.5 -2zM283 150q0 -2 1 -10.5t1 -10.5q10 16 28.5 46t28.5 52q-29 -16 -44 -32.5t-15 -44.5zM397 158 q27 -23 47.5 -27t49.5 -4q12 0 30.5 2t33.5 8t26.5 17.5t11.5 29.5q0 41 -34 64.5t-70 23.5h-13l-10 -2zM735 86q0 4 1 14.5t1 14.5q10 20 34 70.5t50.5 105.5t50 105t33.5 71q2 6 10.5 30.5t17.5 54.5t17 54.5t13 30.5q2 6 11 27.5t19.5 46t21.5 48t17 34.5q16 29 43 60.5 t64 31.5q0 -31 -5.5 -50.5t-13.5 -37t-19 -38t-26 -52.5q-4 -10 -20.5 -54.5t-36 -93.5t-35.5 -93t-20.5 -54.5t-14.5 -32t-21.5 -46t-21.5 -47t-14 -30.5v-14q41 29 89 70.5t81 70.5h51q0 -31 -8 -58.5t-18.5 -53t-18.5 -52t-8 -55.5q0 -25 16.5 -33t34.5 -11t34.5 -9.5 t16.5 -28.5q0 -6 -1 -21.5t-15 -15.5h-141l-15 14q-20 27 -20 58q0 6 2 8q2 31 6 74q-4 0 -14.5 -5.5t-14.5 -7.5q-10 -6 -34.5 -26.5t-52 -43t-51.5 -43t-32 -28.5q-2 0 -6 -1t-8 -1q-20 0 -24.5 12.5t-4.5 30.5zM1186 88v12q0 39 7 80t24.5 75t47 55.5t72.5 21.5 q0 -31 -9 -56.5t-20.5 -51t-20.5 -51.5t-9 -54q10 0 24.5 -1t30.5 -3h10q27 0 41 14q2 2 4.5 10t4.5 17.5t4 18.5t2 11q8 23 30.5 72t53 108.5t66.5 123t74 114.5t74 85t64 34q14 0 48 -4t69 -11.5t61.5 -18.5t26.5 -23q0 -23 -17.5 -27t-35.5 -4h-21q-23 0 -42 1t-42 15 q-53 -129 -129.5 -230.5t-181.5 -193.5q-10 -18 -19.5 -40.5t-9.5 -45.5t16.5 -25.5t35.5 -2.5q33 0 49 16t24.5 41t14.5 52.5t18 52t36 41t69 16.5q0 -31 -9.5 -56.5t-19.5 -51t-19.5 -51.5t-9.5 -54q8 0 19.5 -1t27.5 -3h11q20 0 34 14q25 31 35 82t23.5 100t38 86 t77.5 37q0 -33 -9 -62.5t-21.5 -58t-21.5 -58.5t-9 -62v-7q57 41 111.5 94.5t99.5 102.5q2 0 7 1t7 1q23 0 27 -13.5t4 -31.5q0 -25 -7 -49.5t-15.5 -48t-15.5 -48t-7 -51.5v-28q12 0 26.5 -1t28 -5.5t22.5 -13.5t9 -23q0 -6 -2 -16.5t-12 -10.5h-113q-6 0 -13 7t-13.5 16.5 t-11.5 18.5t-5 13v21q0 20 3 46t3 32h-20q-6 -8 -26.5 -28.5l-43.5 -43.5t-43 -42t-29 -26q-4 -4 -13 -9t-13 -5h-410l-14 14h-15l-28 -14h-154q-10 0 -13 16.5t-3 26.5zM1407 711q10 0 36.5 -1t55.5 -6.5t50.5 -14.5t21.5 -23q0 -23 -17.5 -27t-35.5 -4h-21 q-45 0 -67.5 14.5t-22.5 61.5zM2146 -111q0 39 27 68t65.5 48.5t82.5 32.5t79 21l15 27q-31 -12 -53.5 -13t-53.5 -1h-49q-12 14 -14 23t-2 26q0 49 21.5 92t56 74.5t78.5 51t91 19.5q0 -43 -25.5 -65.5t-55 -39.5t-55 -38.5t-25.5 -64.5v-7q47 18 78.5 43t58 52.5 t53.5 57.5t64 58l4 2h4q18 0 20 -17t2 -30q0 -23 -12 -47t-29.5 -50t-34 -50.5t-24.5 -46.5q-2 -4 -8 -23.5t-13.5 -41t-13.5 -39t-8 -19.5q-6 -6 -23.5 -37t-38 -69t-39 -73.5t-26.5 -50.5q-4 -6 -15.5 -23.5t-24.5 -37.5t-25.5 -38.5t-18.5 -27.5q-20 -29 -28.5 -36 t-32.5 -7q-51 0 -52 58v239zM2198 -293h18q2 0 9 9.5t16.5 23.5t17.5 27.5t14 23.5q8 14 20.5 36.5t25 47.5t23.5 47.5t19 38.5l11 23q-63 0 -98.5 -23.5t-52.5 -61.5t-20 -88.5t-3 -103.5zM2830 125q29 0 60.5 -15.5t31.5 -50.5q0 -29 -36 -28q-21 0 -32 9t-16.5 23.5 t-6.5 31t-1 30.5zM3047 86v29q6 14 18.5 50t25 77t24.5 76.5t18 50.5q23 65 91 65q0 -33 -10.5 -62.5t-21.5 -58t-21.5 -58.5t-10.5 -62v-7q57 41 111.5 94.5t101.5 102.5l6 2h8q20 0 24.5 -13.5t4.5 -31.5q0 -25 -7 -49.5t-15.5 -48t-15.5 -48t-7 -51.5q0 -4 1 -14t1 -14 q10 0 25.5 -1t29 -5.5t22.5 -13.5t9 -23q0 -6 -2 -16.5t-14 -10.5h-113q-4 0 -11 7t-14.5 16.5t-12.5 18.5t-5 13q0 6 1 20.5t2 30t2 30t1 18.5h-18q-8 -8 -27.5 -28.5t-42 -43.5t-43 -42t-29.5 -26q-14 -12 -24 -14t-25 -2q-25 0 -31 10t-6 33zM3498 127q0 45 17.5 91 t47 83t70.5 60.5t88 23.5q25 0 48.5 -4t39.5 -27q0 -8 1 -31.5t1 -31.5q0 -76 -41 -121t-116 -70v-14q72 6 135 33.5t110 74t75 109t28 135.5h-109q-4 0 -9 11.5t-5 17.5q6 23 28.5 33t50 16t53.5 13.5t38 23.5q20 20 24.5 48t8.5 52.5t16 42t49 17.5v-166h39q8 0 19 2h49 q16 0 24 -2q35 -4 60.5 -19.5t25.5 -52.5h-217q-23 0 -39 -32.5t-29.5 -83t-24.5 -107.5t-23.5 -107.5t-26.5 -83t-33 -32.5q-18 0 -26.5 12t-10.5 31q-2 4 -2 20v12q2 6 2 15q0 8 2 10q-70 -68 -136 -91.5t-163 -23.5q-53 0 -96 27t-43 86zM3582 170q2 0 8 1t8 1 q13 4 36.5 10t37.5 13l10 4q8 6 20.5 16t24 21.5t19.5 20.5t8 13v45q-29 0 -58.5 -12t-55 -31.5t-42 -46t-16.5 -55.5z" />
<glyph unicode="&#xab;" horiz-adv-x="1984" d="M143 528q6 20 21.5 39t30.5 35q29 23 68.5 50.5t92.5 56.5q61 31 102.5 54t57.5 36q63 45 136 102t165 135q41 35 72 60.5t53 46.5q8 8 28.5 23.5t42 31.5t38 28.5t20.5 16.5q14 12 66.5 17.5t152.5 11.5q-53 -66 -126.5 -139.5t-172.5 -155.5q-88 -72 -177 -139.5 t-187 -137.5q-92 -63 -145.5 -104t-98.5 -64q10 -4 22.5 -10t20.5 -10q18 -6 43 -16.5t61 -28.5q16 -10 86 -45t183 -88q72 -35 113.5 -76t43.5 -82q-16 -41 -53 -53q-12 -4 -22 -4q-39 0 -95 26q-66 12 -161 64.5t-224 140.5q-70 51 -114.5 67.5t-73.5 26.5q-31 4 -43 17 q-27 20 -27 67zM739 543q0 18 9 28q6 16 20 33t31 31q29 27 68.5 52.5t88.5 53.5q82 43 135.5 75t99.5 65.5t97 76.5t129 109q31 25 56.5 47.5t53 45t58.5 48t72 56.5q20 16 74.5 25t158.5 16q-49 -61 -125.5 -138t-175.5 -155q-86 -72 -178 -141.5t-186 -139.5 q-72 -53 -139.5 -97t-110.5 -73l-4 -8q-2 -2 -2 -6q0 -2 2 -4q20 -41 46.5 -69t84.5 -64q2 -4 31 -25q29 -25 84 -67t147 -87q156 -74 156 -194h-54q-27 0 -54.5 2t-59.5 6q-57 10 -125 54t-160 114q-16 12 -35.5 26.5t-40.5 28.5h2q-78 57 -148.5 120t-94.5 120 q-10 20 -11 35z" />
<glyph unicode="&#xad;" d="M190 369v2l5 10q6 16 22 47t39 59q109 33 170 41.5t96 8.5q51 0 101 6q45 6 94 6q37 0 73.5 -2t77.5 -10l17 -111q-39 -12 -88 -22.5t-107 -16.5q-55 -4 -100 -7t-80 -3q-10 0 -25.5 -3t-38.5 -7h-88q-37 0 -64.5 1t-51.5 1h-52z" />
<glyph unicode="&#xae;" horiz-adv-x="4483" d="M29 -383q0 63 24.5 124.5t59 118t70.5 106.5t61 93v7q0 25 -15.5 48t-15.5 50q0 39 22.5 67.5t53 50t64.5 39t59 33.5q8 6 21 18.5t28.5 25t31 21.5t31.5 9v-74q70 -25 107 -60.5t37 -107.5q0 -145 -148 -145q-27 0 -46 5t-37.5 11t-37 14.5t-43.5 14.5 q-8 -23 -28.5 -50.5t-42 -55t-42 -55t-28.5 -50.5q-4 -4 -15.5 -20.5t-13.5 -20.5q-4 -8 -20 -36.5t-34.5 -61.5t-36 -62.5t-21.5 -38.5q-8 -14 -18.5 -16t-26.5 -2zM283 150q0 -2 1 -10.5t1 -10.5q10 16 28.5 46t28.5 52q-29 -16 -44 -32.5t-15 -44.5zM397 158 q27 -23 47.5 -27t49.5 -4q12 0 30.5 2t33.5 8t26.5 17.5t11.5 29.5q0 41 -34 64.5t-70 23.5h-13l-10 -2zM735 86q0 4 1 14.5t1 14.5q10 20 34 70.5t50.5 105.5t50 105t33.5 71q2 6 10.5 30.5t17.5 54.5t17 54.5t13 30.5q2 6 11 27.5t19.5 46t21.5 48t17 34.5q16 29 43 60.5 t64 31.5q0 -31 -5.5 -50.5t-13.5 -37t-19 -38t-26 -52.5q-4 -10 -20.5 -54.5t-36 -93.5t-35.5 -93t-20.5 -54.5t-14.5 -32t-21.5 -46t-21.5 -47t-14 -30.5v-14q41 29 89 70.5t81 70.5h51q0 -31 -8 -58.5t-18.5 -53t-18.5 -52t-8 -55.5q0 -25 16.5 -33t34.5 -11t34.5 -9.5 t16.5 -28.5q0 -6 -1 -21.5t-15 -15.5h-141l-15 14q-20 27 -20 58q0 6 2 8q2 31 6 74q-4 0 -14.5 -5.5t-14.5 -7.5q-10 -6 -34.5 -26.5t-52 -43t-51.5 -43t-32 -28.5q-2 0 -6 -1t-8 -1q-20 0 -24.5 12.5t-4.5 30.5zM1186 88v12q0 39 7 80t24.5 75t47 55.5t72.5 21.5 q0 -31 -9 -56.5t-20.5 -51t-20.5 -51.5t-9 -54q10 0 24.5 -1t30.5 -3h10q27 0 41 14q2 2 4.5 10t4.5 17.5t4 18.5t2 11q8 23 30.5 72t53 108.5t66.5 123t74 114.5t74 85t64 34q14 0 48 -4t69 -11.5t61.5 -18.5t26.5 -23q0 -23 -17.5 -27t-35.5 -4h-21q-23 0 -42 1t-42 15 q-53 -129 -129.5 -230.5t-181.5 -193.5q-10 -18 -19.5 -40.5t-9.5 -45.5t16.5 -25.5t35.5 -2.5q33 0 49 16t24.5 41t14.5 52.5t18 52t36 41t69 16.5q0 -31 -9.5 -56.5t-19.5 -51t-19.5 -51.5t-9.5 -54q8 0 19.5 -1t27.5 -3h11q20 0 34 14q25 31 35 82t23.5 100t38 86 t77.5 37q0 -33 -9 -62.5t-21.5 -58t-21.5 -58.5t-9 -62v-7q57 41 111.5 94.5t99.5 102.5q2 0 7 1t7 1q23 0 27 -13.5t4 -31.5q0 -25 -7 -49.5t-15.5 -48t-15.5 -48t-7 -51.5v-28q12 0 26.5 -1t28 -5.5t22.5 -13.5t9 -23q0 -6 -2 -16.5t-12 -10.5h-113q-6 0 -13 7t-13.5 16.5 t-11.5 18.5t-5 13v21q0 20 3 46t3 32h-20q-6 -8 -26.5 -28.5l-43.5 -43.5t-43 -42t-29 -26q-4 -4 -13 -9t-13 -5h-410l-14 14h-15l-28 -14h-154q-10 0 -13 16.5t-3 26.5zM1407 711q10 0 36.5 -1t55.5 -6.5t50.5 -14.5t21.5 -23q0 -23 -17.5 -27t-35.5 -4h-21 q-45 0 -67.5 14.5t-22.5 61.5zM2146 -111q0 39 27 68t65.5 48.5t82.5 32.5t79 21l15 27q-31 -12 -53.5 -13t-53.5 -1h-49q-12 14 -14 23t-2 26q0 49 21.5 92t56 74.5t78.5 51t91 19.5q0 -43 -25.5 -65.5t-55 -39.5t-55 -38.5t-25.5 -64.5v-7q47 18 78.5 43t58 52.5 t53.5 57.5t64 58l4 2h4q18 0 20 -17t2 -30q0 -23 -12 -47t-29.5 -50t-34 -50.5t-24.5 -46.5q-2 -4 -8 -23.5t-13.5 -41t-13.5 -39t-8 -19.5q-6 -6 -23.5 -37t-38 -69t-39 -73.5t-26.5 -50.5q-4 -6 -15.5 -23.5t-24.5 -37.5t-25.5 -38.5t-18.5 -27.5q-20 -29 -28.5 -36 t-32.5 -7q-51 0 -52 58v239zM2198 -293h18q2 0 9 9.5t16.5 23.5t17.5 27.5t14 23.5q8 14 20.5 36.5t25 47.5t23.5 47.5t19 38.5l11 23q-63 0 -98.5 -23.5t-52.5 -61.5t-20 -88.5t-3 -103.5zM2830 125q29 0 60.5 -15.5t31.5 -50.5q0 -29 -36 -28q-21 0 -32 9t-16.5 23.5 t-6.5 31t-1 30.5zM3047 86v29q6 14 18.5 50t25 77t24.5 76.5t18 50.5q23 65 91 65q0 -33 -10.5 -62.5t-21.5 -58t-21.5 -58.5t-10.5 -62v-7q57 41 111.5 94.5t101.5 102.5l6 2h8q20 0 24.5 -13.5t4.5 -31.5q0 -25 -7 -49.5t-15.5 -48t-15.5 -48t-7 -51.5q0 -4 1 -14t1 -14 q10 0 25.5 -1t29 -5.5t22.5 -13.5t9 -23q0 -6 -2 -16.5t-14 -10.5h-113q-4 0 -11 7t-14.5 16.5t-12.5 18.5t-5 13q0 6 1 20.5t2 30t2 30t1 18.5h-18q-8 -8 -27.5 -28.5t-42 -43.5t-43 -42t-29.5 -26q-14 -12 -24 -14t-25 -2q-25 0 -31 10t-6 33zM3498 127q0 45 17.5 91 t47 83t70.5 60.5t88 23.5q25 0 48.5 -4t39.5 -27q0 -8 1 -31.5t1 -31.5q0 -76 -41 -121t-116 -70v-14q72 6 135 33.5t110 74t75 109t28 135.5h-109q-4 0 -9 11.5t-5 17.5q6 23 28.5 33t50 16t53.5 13.5t38 23.5q20 20 24.5 48t8.5 52.5t16 42t49 17.5v-166h39q8 0 19 2h49 q16 0 24 -2q35 -4 60.5 -19.5t25.5 -52.5h-217q-23 0 -39 -32.5t-29.5 -83t-24.5 -107.5t-23.5 -107.5t-26.5 -83t-33 -32.5q-18 0 -26.5 12t-10.5 31q-2 4 -2 20v12q2 6 2 15q0 8 2 10q-70 -68 -136 -91.5t-163 -23.5q-53 0 -96 27t-43 86zM3582 170q2 0 8 1t8 1 q13 4 36.5 10t37.5 13l10 4q8 6 20.5 16t24 21.5t19.5 20.5t8 13v45q-29 0 -58.5 -12t-55 -31.5t-42 -46t-16.5 -55.5z" />
<glyph unicode="&#xb0;" horiz-adv-x="909" d="M487 1153q0 10 1 18.5t4 18.5q10 55 41.5 107.5t62.5 80.5q37 33 88 52.5t96 19.5q94 0 160 -47q33 -25 44 -66t11 -82q-14 -66 -56 -123t-112 -92q-55 -27 -108 -34q-24 -7 -47 -7q-33 0 -70 11q-78 20 -98 73q-16 37 -17 70zM635 1178q0 -23 24 -43q2 -2 13 -2 q16 0 39 8q39 14 73.5 40.5t53.5 61.5q6 12 6 25q0 18 -19 37q-23 16 -51 16q-18 -4 -40.5 -16.5t-42 -31t-35 -41t-19.5 -42.5q-2 -4 -2 -12z" />
<glyph unicode="&#xb1;" horiz-adv-x="1261" d="M119 43v2l4 10q6 16 22.5 47t38.5 60q104 31 164 39t94 10q10 37 20.5 75t14.5 54q2 2 2 8q0 8 2 10q25 86 38 133.5t13 51.5q10 33 37 71q-12 0 -14 2q-53 0 -104.5 -15t-100.5 -26q-14 -2 -26.5 -3t-26.5 -1h-16q-45 0 -45 7q-27 14 -31 38v7q0 20 8 34q10 18 25.5 36 t21.5 24q86 18 176 28.5t178 10.5q4 0 7 2q29 53 47 89t32 58q27 49 72 105.5t107 117.5q16 -4 24 -8q8 -6 8 -30v-11q-2 -33 -24.5 -103.5t-77.5 -199.5q0 -10 -2 -10q8 -8 74 -8q6 0 23.5 2t50 7t86 16.5t133.5 29.5l-91 -115q-29 -25 -67.5 -44t-110.5 -36 q-18 -6 -42.5 -10t-50.5 -7t-48.5 -4t-32.5 -1q-4 0 -15 -20.5t-22 -65.5q-20 -59 -35.5 -100t-29.5 -64q-31 -63 -113 -133q10 0 17.5 1t17.5 3q45 6 94 6q37 0 74 -2t78 -10l16 -111q-39 -12 -88 -22t-107 -17q-55 -4 -100 -7t-80 -3q-10 0 -25.5 -3t-37.5 -7h-88 q-37 0 -64.5 1t-52.5 1h-51z" />
<glyph unicode="&#xb5;" horiz-adv-x="1128" d="M51 -166q0 8 2 19q4 55 17.5 120.5t31 125t33 106.5t23.5 65q14 33 31.5 76t36 87t36 84t33.5 67q8 12 32.5 65t57.5 113.5t67.5 113t65.5 62.5q18 4 26.5 6t16.5 3t18.5 2t34.5 3q4 -45 13 -84q2 -10 2 -30q0 -25 -8 -41q-16 -39 -39 -81t-41 -81q-43 -92 -77 -164 t-52 -135q-8 -18 -9 -41q0 -23 17 -45q25 -35 72 -47q20 -6 45 -6q31 0 55 8q53 12 98 59q16 12 32.5 41t33 63.5t32 69.5t27.5 58q55 98 84 165.5t57 102.5q6 12 22.5 23.5t37 19.5t41 14t37.5 8q2 -35 2 -61v-45q0 -55 -3 -67.5t-8 -24.5q-14 -39 -40.5 -96.5t-61.5 -120 t-75 -126t-80 -115.5t-77.5 -89t-68.5 -47q-49 -23 -113 -33q-10 -2 -20 -2h-17q-41 0 -67 12q-59 12 -97 46t-42 53q-12 -10 -27.5 -61.5t-36 -114t-48.5 -122t-60 -85.5q-23 -18 -45 -19q-10 0 -17 2q-25 2 -35 43q-6 27 -6 60v18z" />
<glyph unicode="&#xb6;" horiz-adv-x="1052" d="M0 1120q0 61 15.5 132t57.5 131.5t117.5 100.5t196.5 40h666v-160h-152v-1364h-178v1364h-234v-1364h-174v768q-98 2 -159.5 38t-96 88t-47 112.5t-12.5 113.5z" />
<glyph unicode="&#xbb;" horiz-adv-x="1943" d="M127 233l18 84q25 59 93.5 113.5t175.5 95.5q35 16 145.5 49t261.5 78q86 27 148.5 49.5t109.5 45.5q-168 66 -298 122t-222 103q-98 49 -151.5 98t-53.5 96q12 41 36 69t81 71v-84q0 -18 55.5 -51t143.5 -68q43 -16 88 -31.5t86 -32.5q66 -23 132 -47t134 -47 q86 -31 142.5 -69.5t76.5 -79.5q10 -20 10 -39q0 -25 -12 -45q-25 -45 -98 -84v2q-18 -14 -40 -23.5t-44 -17.5q51 16 121.5 36.5t165.5 49.5q86 25 150.5 48.5t105.5 45.5q-166 63 -297 120.5t-220 102.5q-207 109 -206 197q12 41 40.5 66.5t75.5 43.5q0 -47 58.5 -94 t144.5 -82q53 -18 109.5 -38.5t107.5 -38.5q55 -20 108.5 -40t108.5 -38q88 -31 145.5 -69t78.5 -79q10 -25 10 -39q0 -25 -13 -45q-23 -43 -96 -84q-119 -45 -214 -78.5t-177 -62.5t-152.5 -53.5t-140.5 -50.5q-96 -37 -162.5 -66t-113.5 -47.5t-80 -28.5t-64 -10l19 84 q47 115 225 192q-166 -55 -323.5 -108t-311.5 -127q-49 -31 -102 -47.5t-119 -16.5z" />
<glyph unicode="&#xbf;" horiz-adv-x="1390" d="M53 231q0 29 8 54q29 66 88.5 120t165.5 103q94 41 353 110q92 25 139 43.5t67 36.5v21q0 2 1.5 8t3.5 16q4 23 7 41.5t5 34.5q14 33 22.5 49.5t18.5 31.5t27.5 40t52.5 78q88 -29 104 -62q4 -8 8 -14t9 -12q2 -4 2 -12q0 -4 -5 -17q-39 -66 -55 -114t-25.5 -83.5 t-19.5 -62.5t-35.5 -50.5t-75 -46t-135.5 -48.5q-98 -29 -186 -56.5t-180 -56.5q-92 -31 -132 -63.5t-50 -55.5q-4 -12 -5 -18q0 -12 11 -27q12 -23 75 -37q82 -18 158 -18q14 0 23 2q125 4 224 44t181 103q14 10 27.5 17.5t27.5 11.5q16 4 21 4q18 0 25 2l8 -4t14 -6 q45 -27 49 -70q0 -2 -1 -5t-1 -7q-27 -59 -75 -102t-108.5 -73t-130 -47.5t-138.5 -23.5q-39 -4 -77 -6t-75 -2h-49q-12 0 -25.5 1t-27.5 3q-23 2 -41.5 4t-34.5 4q-117 25 -173.5 80.5t-62.5 114.5q-2 6 -2 22zM1042 1196q10 35 37 71t66 72q43 43 92 69t111 34l-11 -146 q-26 -73 -102 -118q-16 -12 -48 -31t-65 -25q-12 -4 -20 -4q-18 0 -35 10q-25 14 -25 68z" />
<glyph unicode="&#xc0;" horiz-adv-x="1476" d="M55 31q0 10 2 16q2 10 6.5 26.5t10.5 39.5q6 18 13 30.5t23.5 31t46 49t83.5 87.5q18 18 45.5 50t55.5 66t51.5 62.5t33.5 38.5q-41 39 -65.5 73t-38 62.5t-17.5 55t-4 53.5q0 25 23 25h8q29 -4 90 -62q27 -20 60.5 -49t54.5 -41q4 -4 6 -4q86 96 185 196.5t209 191.5 t225.5 167t232.5 125q-4 -10 -12.5 -53t-17.5 -105.5t-18.5 -135.5t-18.5 -143.5t-15 -131t-8 -95t-3.5 -47t-1.5 -20.5t-1 -17.5t-3 -35.5q10 -8 35 -16.5t84 -33.5q6 -2 17.5 -11t19.5 -21q6 -10 6 -21v-2q-4 -12 -22 -18q-96 -16 -117 -29q-12 -4 -21.5 -20.5 t-19.5 -69.5l-10 -211q-2 -16 -6.5 -33.5t-11.5 -34t-20 -26.5t-36 -10q-45 0 -68 49q-8 25 -11 46t-5 42v55q0 12 2 25q2 20 3 43.5t3 50.5v127l-334 18q-53 4 -101 11.5t-69 11.5h-4q-14 0 -37 -23q-18 -18 -43.5 -48t-53 -62.5t-58.5 -67.5t-62 -63 q-55 -61 -114.5 -116.5t-114.5 -78.5q-10 -2 -18.5 -3t-16.5 -1q-12 0 -33 4q-4 20 -4 31zM719 594q98 -23 201.5 -28t201.5 -5q8 0 11 -2l14 115q8 47 15 84t13.5 73.5t13.5 80.5t17 106q-68 -45 -146.5 -109.5t-150 -128t-124 -116t-66.5 -70.5zM1024 1638q12 -4 32.5 -8 t43 -8t43 -8t31.5 -6q53 -12 119.5 -29.5t129 -38t112.5 -47.5t71 -57q6 -16 6 -29q0 -12 -6 -27q-14 -20 -45 -24q-6 -2 -19 -2q-23 0 -49 6q-37 8 -78 23.5t-80 27.5q-39 10 -68.5 17.5t-70.5 21.5q-72 27 -123 74q-16 37 -24.5 53t-12.5 24.5t-6 14.5t-6 22z" />
<glyph unicode="&#xc1;" horiz-adv-x="1476" d="M10 37q0 10 2 16q2 10 6.5 26.5t10.5 39.5q6 18 19 37.5t33.5 42t49.5 53.5t66 74q12 8 22 18l21 21q18 18 45.5 49.5t55.5 65.5t51.5 62.5t33.5 39.5q-41 39 -65.5 72.5t-38 62t-17.5 55.5t-4 53q0 25 23 25h8q29 -4 90 -62q27 -20 60.5 -48.5t54.5 -41.5q4 -4 6 -4 q86 96 185 196.5t209 192t225.5 167t232.5 124.5q-4 -10 -12.5 -53t-17.5 -105.5t-18.5 -135t-18.5 -143.5t-15 -131.5t-8 -95t-3.5 -47t-1.5 -20.5t-1 -17.5t-3 -35.5q10 -8 35 -16.5t84 -32.5q6 -2 17.5 -11.5t19.5 -21.5q6 -10 6 -21v-2q-4 -12 -22 -18q-96 -16 -117 -29 q-12 -4 -21.5 -20.5t-19.5 -69.5q-2 -16 -3 -29.5t-1 -23.5v-41q0 -18 1 -38.5t1 -49.5q0 -18 -1 -50t-9.5 -61.5t-23.5 -51t-46 -21.5q-45 0 -68 49q-16 39 -16 75q-2 9 -2 29v35q0 20 2 43q-2 8 -2 29q0 27 6 67q2 20 3 43t1 51v33q0 16 -2 35l-334 18q-53 4 -101 11.5 t-69 11.5h-4q-14 0 -43 -29q-25 -25 -56.5 -60.5t-65 -75.5t-68.5 -79t-66 -67q-55 -61 -114.5 -116.5t-114.5 -78.5q-18 -6 -35 -6q-18 0 -33 6q-4 20 -4 31zM719 647q98 -23 201.5 -28t201.5 -5q8 0 11 -2l14 115q8 47 15 84t13.5 74t13.5 81t17 105 q-68 -45 -146.5 -109.5t-150 -128t-124 -115.5t-66.5 -71zM1104 1403q0 29 24 51q23 27 65 48.5t91 40t98.5 33.5t85.5 28q8 2 25.5 6t36 8t36 8t27.5 8q-4 -16 -5 -22t-4 -14.5t-9 -26t-19 -53.5h-4q-39 -45 -102 -72q-35 -14 -58.5 -21.5t-56.5 -17.5q-33 -12 -66.5 -27.5 t-64.5 -23.5q-18 -8 -43 -8q-8 0 -12 2q-23 2 -39 24q-6 14 -6 29z" />
<glyph unicode="&#xc2;" horiz-adv-x="1476" d="M10 41q0 10 2 16q2 10 6.5 26.5t10.5 39.5q6 18 19 37.5t33.5 42t49.5 53.5t66 74q12 8 22 18l21 21q18 18 45.5 50t55.5 65.5t51.5 62t33.5 39.5q-41 39 -65.5 72.5t-38 62.5t-17.5 55.5t-4 52.5q0 25 23 25h8q29 -4 90 -61q27 -20 60.5 -49t54.5 -42q4 -4 6 -4 q86 96 185 196.5t209 192t225.5 167t232.5 124.5q-4 -10 -12.5 -53t-17.5 -104.5t-18.5 -135t-18.5 -144.5t-15 -131t-8 -95t-3.5 -47.5t-1.5 -20.5t-1 -17t-3 -36q10 -8 35 -16.5t84 -32.5q6 -2 17.5 -11.5t19.5 -21.5q6 -10 6 -20v-3q-4 -12 -22 -18q-96 -16 -117 -29 q-12 -4 -21.5 -20t-19.5 -70q-4 -31 -5 -50t-1 -36v-80q0 -18 -1 -50t-9.5 -61.5t-23.5 -52t-46 -22.5q-23 0 -40 14.5t-28 36.5q-16 37 -16 64q0 2 2 4v39q0 25 2 59q-2 8 -2 29q0 27 6 67q2 20 3 43t1 52v32q0 16 -2 35l-334 19q-53 4 -101 11t-69 11h-4q-14 0 -43 -29 q-25 -25 -56.5 -60.5t-65 -75.5t-68.5 -79t-66 -67q-55 -61 -114.5 -116.5t-114.5 -78.5q-18 -6 -35 -6q-18 0 -33 6q-4 20 -4 31zM719 651q98 -23 201.5 -28t201.5 -5q8 0 11 -2l14 115q8 47 15 84t13.5 74t13.5 81t17 105q-68 -45 -146.5 -109.5t-150 -128t-124 -115.5 t-66.5 -71zM991 1382q29 18 67 41t73.5 44.5t64.5 38t39 22.5q33 20 55.5 38.5t39 32t29.5 22.5t30 13q8 2 28 2h13q8 0 16 -2q23 -2 44 -20.5t42.5 -48t44 -67.5t47.5 -77q33 -31 49 -61q4 -16 4 -25q0 -20 -12 -35q-16 -16 -39 -16q-20 0 -45 10q-41 18 -91 66.5 t-87 103.5l-117 -61v2q-47 -27 -96 -33q-31 -6 -55 -6q-18 0 -27 2q-23 2 -58.5 8t-48.5 6h-10z" />
<glyph unicode="&#xc3;" horiz-adv-x="1476" d="M51 37q0 10 2 16q2 10 6 26.5t11 39.5q6 18 19 37.5t33.5 42t49.5 53.5t66 74q12 8 22 18l21 21q18 18 38.5 42.5t41 48t38 44t27.5 30.5q-41 39 -65.5 73t-38 62.5t-17.5 55.5t-4 53q0 25 23 25h8q29 -4 90 -62q27 -20 60.5 -49t54.5 -41q4 -4 6 -4q174 197 374.5 364 t436.5 267q-4 -10 -9.5 -50t-9.5 -96.5t-9 -123t-9 -131t-7 -122t-5 -92t-3.5 -47t-1.5 -20.5t-1 -17.5t-3 -35.5q10 -8 35 -16.5t84 -33.5q6 -2 17.5 -11t19.5 -21q6 -10 6 -21v-2q-4 -12 -22 -18q-96 -16 -117 -29q-12 -4 -21.5 -20.5t-19.5 -69.5q-4 -31 -5 -48.5 t-1 -31.5v-76q0 -37 -6 -80q-2 -14 -6.5 -32.5t-11.5 -33.5t-21.5 -26.5t-34.5 -11.5q-23 0 -40 14.5t-28 34.5q-14 35 -14 64q-2 2 -2 10q0 16 2 26.5t2 24.5v31q-2 8 -2 28q0 27 6 68q2 20 3 43t1 51v33q0 16 -2 35l-334 18q-53 4 -101 11.5t-69 11.5h-4q-16 0 -37 -21 q-20 -18 -45.5 -48t-54.5 -62.5t-59.5 -66.5t-61.5 -62q-55 -61 -114.5 -116.5t-114.5 -78.5q-18 -6 -35 -6q-18 0 -33 6q-4 20 -4 31zM719 596q98 -23 201.5 -28t201.5 -5q8 0 11 -2l14 115q2 45 4 75.5t5 62.5t7 71t11 102q-68 -45 -142 -104.5t-139.5 -116.5 t-112.5 -104.5t-61 -65.5zM1090 1290q41 86 85 156t93 106l-2 -2q96 84 178 84q53 0 84 -45t45 -131v2q8 -37 14 -37q12 0 41 16.5t62 43.5q51 43 89 69.5t58 28.5l37 -55q-29 -53 -68 -102.5t-81 -86.5t-84 -59.5t-76 -22.5q-53 0 -83 36t-44 108q-11 84 -21 84 q-45 0 -121 -70q-45 -45 -106.5 -75.5t-99.5 -47.5z" />
<glyph unicode="&#xc4;" horiz-adv-x="1476" d="M10 53q0 10 2 17q2 10 6.5 26.5l10.5 38.5q6 18 19 38t33.5 42.5t49.5 53t66 73.5q12 8 22 18.5t21 20.5q18 18 45.5 50t55.5 65.5t51.5 62.5t33.5 39q-41 39 -65.5 73t-38 62.5t-17.5 55t-4 53.5q0 25 23 24h8q29 -4 90 -61q27 -20 60.5 -49t54.5 -41q4 -4 6 -4 q86 96 185 196.5t209 191.5t225.5 166.5t232.5 125.5q-4 -10 -12.5 -53.5t-17.5 -105t-18.5 -135t-18.5 -144t-15 -131t-8 -95.5t-3.5 -47t-1.5 -21q0 -8 -1 -17t-3 -36q10 -8 35 -16t84 -33q6 -2 17.5 -11t19.5 -22q6 -10 6 -20v-2q-4 -12 -22 -19q-96 -16 -117 -28 q-12 -4 -21.5 -20.5t-19.5 -69.5q-2 -16 -2 -31v-58q0 -12 2 -24q6 -53 6 -111q0 -37 -6 -80q-2 -14 -6 -32.5t-11.5 -33.5t-21.5 -26.5t-35 -11.5q-23 0 -40 14.5t-27 34.5q-8 18 -13.5 43t-7.5 53q-2 23 -3 45.5t-1 45.5v36q-2 8 -2 29q0 27 6 68q2 20 3 42.5t1 51.5v33 q0 16 -2 34l-334 19q-53 4 -101 11t-69 11h-4q-14 0 -43 -28q-25 -25 -56.5 -61t-65 -75.5t-68.5 -78.5t-66 -68q-55 -61 -114.5 -116.5t-114.5 -77.5q-18 -6 -35 -7q-18 0 -33 7q-4 20 -4 30zM719 664q98 -23 201.5 -28t201.5 -5q8 0 11 -2l14 114q8 48 15 84.5t13.5 73.5 t13.5 81t17 105q-68 -45 -146.5 -109.5t-150 -128t-124 -115.5t-66.5 -70zM1137 1479q0 10 2 16q4 31 24 57q16 29 50 49.5t87 40.5q7 -32 13 -57.5t6 -48.5q0 -10 -4 -29.5t-8 -29.5q-12 -33 -33 -56q-23 -25 -70 -24h-8q-14 0 -31.5 8t-21.5 31q-6 20 -6 43zM1489 1470 q0 10 2 17q4 33 22 57q16 29 51 49.5t89 42.5q6 -34 12 -60t6 -48q0 -10 -4 -28.5t-8 -29.5q-10 -27 -35 -57q-23 -25 -68 -24h-8q-14 0 -31.5 8t-21.5 33q-6 20 -6 40z" />
<glyph unicode="&#xc5;" horiz-adv-x="1476" d="M10 84q0 10 2 16q2 10 6.5 26.5t10.5 39.5q6 18 19 37.5t33.5 42t49.5 53.5t66 74q12 8 22 18l21 21q18 18 45.5 50t55.5 65.5t51.5 62t33.5 39.5q-41 39 -65.5 72.5t-38 62.5t-17.5 55.5t-4 52.5q0 25 23 25h8q29 -4 90 -61q27 -20 60.5 -49t54.5 -42q4 -4 6 -4 q86 96 185 196.5t209 192t225.5 167t232.5 124.5q-4 -10 -12.5 -53t-17.5 -105.5t-18.5 -135t-18.5 -143.5t-15 -131t-8 -95t-3.5 -47.5t-1.5 -20.5t-1 -17t-3 -36q10 -8 35 -16.5t84 -32.5q6 -2 17.5 -11.5t19.5 -21.5q6 -10 6 -20v-3q-4 -12 -22 -18q-96 -16 -117 -29 q-12 -4 -21.5 -20t-19.5 -70q-2 -16 -2 -30v-58q0 -12 2 -24q6 -53 6 -111q0 -37 -6 -80q-2 -16 -6 -33.5t-11.5 -34t-20.5 -26.5t-36 -10q-45 0 -67 49q-8 18 -13.5 42.5t-7.5 53.5q-2 23 -3 45.5t-1 44.5v37q-2 8 -2 29q0 27 6 67q2 20 3 43t1 52v32q0 16 -2 35l-334 19 q-53 4 -101 11t-69 11h-4q-14 0 -43 -29q-25 -25 -56.5 -60.5t-65 -75.5t-68.5 -79t-66 -67q-55 -61 -114.5 -116.5t-114.5 -78.5q-18 -6 -35 -6q-18 0 -33 6q-4 20 -4 31zM719 694q98 -23 201.5 -27.5t201.5 -4.5q8 0 11 -3l14 115q8 47 15 84t13.5 74t13.5 81t17 105 q-68 -45 -146.5 -109.5t-150 -128t-124 -115.5t-66.5 -71z" />
<glyph unicode="&#xc7;" horiz-adv-x="1257" d="M8 188v48q0 8 2 16q14 88 62.5 208t120 247t161.5 250.5t191 224.5q68 68 150.5 128t168.5 110t168 88t148 59q68 18 108 18q18 0 27 -2q12 -4 31.5 -8t40 -15.5t38 -32t27.5 -57.5q2 -10 3 -20t1 -23q0 -18 -3 -39.5t-7 -46.5v2q-12 -57 -27.5 -97t-27.5 -66v-2 q-14 -27 -33 -43.5t-45.5 -30.5t-61 -27.5t-82.5 -34.5q12 33 30 74t36 83t37.5 83t36.5 74q4 20 4 30q0 20 -8 29q-14 10 -35 10h-15q-90 -6 -196.5 -62t-208.5 -137t-192.5 -173t-147.5 -168q-49 -63 -104.5 -150.5t-102.5 -174.5t-80 -161.5t-37 -111.5q-6 -18 -6 -31 q0 -8 2 -10q2 -39 35 -68q27 -10 55 -16q20 -6 50 -6h14q8 0 18 2q76 6 139.5 18t125 34.5t126 55.5t142.5 80q31 18 71.5 45t83.5 53.5t82 45t68 18.5q25 -18 33 -37q2 -6 2 -18q0 -10 -10 -35q-82 -86 -197 -157t-256 -130q-10 -4 -19.5 -8t-19.5 -8l6 -13l-2 -4 q-6 -39 -16.5 -71.5t-26.5 -65.5q-20 -39 -38.5 -63.5t-39.5 -53.5q-35 -53 -64.5 -109.5t-68.5 -80.5q-16 -10 -33 -10q-12 0 -24 6q-39 27 -39 74q-2 0 -2 2q0 45 24 98q23 55 61 114.5t75 110.5q-141 -39 -256 -49h-25q-111 0 -172 49q-33 29 -52.5 62.5t-23.5 76.5z" />
<glyph unicode="&#xc8;" horiz-adv-x="1220" d="M45 125v20q2 12 18.5 56.5t44 106t67.5 134t89 140.5q-23 23 -46 47t-40 41q43 45 85 67.5t116 26.5l6 10q14 33 36.5 81t47.5 98.5t49.5 97.5t42.5 82q70 135 195 135q66 0 163 7t232 21q51 4 81 7.5t51.5 5.5t39.5 3t47 1q45 0 77 -18.5t75 -84.5q-72 -16 -122 -26 t-102.5 -18.5t-117 -14.5t-162.5 -14q-53 -4 -107.5 -9.5t-111.5 -9.5q-72 -6 -129 -100v2q-8 -14 -23.5 -43t-33 -63.5t-35 -71.5t-27.5 -66q121 10 202 17.5t142 12.5t111.5 9t109.5 6q37 -8 47 -43q2 -4 2 -8t2 -6v-6q-6 -29 -29.5 -46.5t-58.5 -27.5t-78 -17.5 t-88 -15.5q-47 -10 -104 -19t-121 -20q-35 -4 -62.5 -8t-50.5 -8q-41 -4 -63.5 -6t-34.5 -4t-16 -5t-6 -8q-23 -33 -54.5 -81t-60.5 -100t-49 -101q-16 -41 -17 -72v-12q0 -47 64 -47q104 0 350 30q63 10 119.5 22.5t101.5 25.5q12 4 28.5 8t37.5 8q31 8 63 8h13 q33 -2 51 -24q6 -10 6 -29q0 -16 -10 -51l-33 -27q-205 -68 -403.5 -99.5t-397.5 -31.5q-72 0 -127 7t-80 54q-12 20 -12 64zM850 1636q12 -4 32.5 -8t43 -8t43 -8t30.5 -6q53 -12 120 -29.5t129.5 -38t112.5 -47.5t71 -57q6 -16 6 -29q0 -12 -6 -27q-14 -20 -46 -24 q-6 -2 -18 -2q-23 0 -49 6q-37 8 -78 23.5t-80 27.5q-39 10 -68.5 17.5t-70.5 21.5q-72 27 -123 74q-16 37 -24.5 53t-12.5 24.5t-6 14.5t-6 22z" />
<glyph unicode="&#xc9;" horiz-adv-x="1220" d="M45 125v20q2 12 18.5 56.5t44 106t67.5 134t89 140.5q-23 23 -46 47t-40 41q43 45 85 67.5t116 26.5l6 10q14 33 39 87t51.5 111.5t52 111t43.5 87.5q70 135 195 136q66 0 163 7t232 21q51 4 81 7.5t51.5 5.5t40 3t46.5 1q45 0 77 -18.5t75 -84.5q-72 -16 -122 -26.5 t-102.5 -18.5t-117 -14t-162.5 -14q-53 -4 -107.5 -9.5t-111.5 -9.5q-72 -6 -129 -100v2q-8 -14 -25.5 -49t-37 -77t-38 -85t-28.5 -72q121 10 202 17.5t142 12.5t111.5 9t109.5 6q37 -8 47 -43q2 -4 2 -8t2 -6v-6q-6 -29 -29.5 -46.5t-58.5 -27.5t-78 -17.5t-88 -15.5 q-47 -10 -104 -19t-121 -20q-35 -4 -62.5 -8t-50.5 -8q-41 -4 -63.5 -6t-34.5 -4t-16 -5t-6 -8q-23 -33 -54.5 -81t-60.5 -100t-49 -101q-16 -41 -17 -72v-12q0 -47 64 -47q104 0 350 30q63 10 119.5 22.5t101.5 25.5q12 4 28.5 8t37.5 8q31 8 63 8h13q33 -2 51 -24 q6 -10 6 -29q0 -16 -10 -51l-33 -27q-205 -68 -403.5 -99.5t-397.5 -31.5q-72 0 -127 7t-80 54q-12 20 -12 64zM891 1409q0 29 24 51q23 27 65 48.5t91 40t98.5 33.5t85.5 28q8 2 25.5 6t36 8t36 8t27.5 8q-4 -16 -5 -22t-4 -14.5l-9 -25.5t-19 -54h-4q-39 -45 -102 -72 q-35 -14 -58.5 -21.5t-56.5 -17.5q-33 -12 -66.5 -27.5t-64.5 -23.5q-18 -8 -43 -8q-8 0 -12 2q-23 2 -39 24q-6 14 -6 29z" />
<glyph unicode="&#xca;" horiz-adv-x="1220" d="M49 127v20q2 12 18.5 56.5t44 106t67.5 134t89 140.5q-23 23 -46 47t-40 41q43 45 85 67.5t116 26.5l6 10q14 33 38 78t49.5 92t51 93t43.5 81q70 135 195 135q66 0 163 7.5t232 21.5q51 4 81 7t51.5 5t40 3t46.5 1q45 0 77 -18t75 -84q-72 -16 -122 -26.5t-102.5 -18.5 t-117 -14t-162.5 -15q-53 -4 -107.5 -9t-111.5 -9q-72 -6 -129 -100v2q-8 -14 -24.5 -41t-35 -58.5t-37 -66.5t-28.5 -64q121 10 202 17.5t142.5 12.5t111.5 9t109 6q37 -8 47 -43q2 -4 2 -8t2 -6v-6q-6 -29 -29.5 -46.5t-58 -27.5t-77.5 -17t-88 -16q-47 -10 -104.5 -19 t-121.5 -20q-35 -4 -62.5 -8t-49.5 -8q-41 -4 -63.5 -6t-35 -4t-16.5 -5t-6 -8q-23 -33 -54.5 -81t-60.5 -100t-49 -101q-16 -41 -16 -72v-12q0 -47 63 -47q104 0 350 31q63 10 119.5 22t101.5 25q12 4 28.5 8t37.5 8q31 8 63 8h13q33 -2 51 -24q6 -10 6 -29q0 -16 -10 -51 l-33 -27q-205 -68 -403.5 -99.5t-397.5 -31.5q-72 0 -127 7t-80 54q-12 20 -12 64zM737 1366q25 18 56.5 42t61.5 46.5t53.5 39.5t33.5 24q37 31 56.5 52t35 34.5t32.5 20.5t50 9h4q39 0 86 -43q23 -23 49.5 -50.5t55.5 -55.5q37 -23 53 -47q8 -14 8 -27q0 -14 -6 -22 q-20 -20 -49 -21q-6 0 -12.5 1t-14.5 3q-39 10 -92 43t-92 74l-100 -68v2q-41 -29 -85 -40t-75 -13h-55q-37 0 -43 -2z" />
<glyph unicode="&#xcb;" horiz-adv-x="1220" d="M45 125v20q2 12 18.5 56.5t44 106t67.5 134t89 140.5q-23 23 -46 47t-40 41q43 45 85 67.5t116 26.5l6 10q14 33 37.5 83t49.5 103.5t51.5 103.5t43.5 85q70 135 195 135q66 0 163 7t232 22q51 4 81 7t51.5 5t40 3t46.5 1q45 0 77 -18.5t75 -83.5q-72 -16 -122 -26.5 t-102.5 -18.5t-117 -14.5t-162.5 -14.5q-53 -4 -107.5 -9t-111.5 -9q-72 -6 -129 -101v2q-8 -12 -24.5 -43.5t-36 -70.5t-37 -78t-27.5 -68q121 10 202 17.5t142 12.5t111.5 9t109.5 6q37 -8 47 -43q2 -4 2 -8t2 -6v-6q-6 -29 -29.5 -46.5t-58.5 -27.5t-78 -17.5t-88 -15.5 q-47 -10 -104 -19t-121 -20q-35 -4 -62.5 -8t-50.5 -8q-41 -4 -63.5 -6t-34.5 -4t-16 -5t-6 -8q-23 -33 -54.5 -81t-60.5 -100t-49 -101q-16 -41 -17 -72v-12q0 -47 64 -47q104 0 350 30q63 10 119.5 22.5t101.5 25.5q12 4 28.5 8t37.5 8q31 8 63 8h13q33 -2 51 -24 q6 -10 6 -29q0 -16 -10 -51l-33 -27q-205 -68 -403.5 -99.5t-397.5 -31.5q-72 0 -127 7t-80 54q-12 20 -12 64zM887 1477q0 10 2 16q4 31 24 57q16 29 50 49.5t88 40.5q6 -32 12 -58t6 -48q0 -10 -4 -29.5t-8 -29.5q-12 -33 -33 -56q-23 -25 -70 -24h-8q-14 0 -31.5 8 t-21.5 31q-6 20 -6 43zM1239 1468q0 10 2 17q4 33 23 57q16 29 51 49.5t88 42.5q6 -35 12 -60.5t6 -47.5q0 -10 -4 -28.5t-8 -29.5q-10 -27 -35 -57q-23 -25 -67 -25h-9q-14 0 -31.5 8.5t-21.5 32.5q-6 20 -6 41z" />
<glyph unicode="&#xcc;" horiz-adv-x="763" d="M135 80l27 106q6 31 15 69t27.5 91t46.5 125t71 168q66 147 129 256t104 180q25 45 39 69.5t24.5 39t18.5 24t20 23.5q14 4 47 17.5t82 27.5l11 -129q0 -10 -14.5 -38t-36 -68t-47 -87t-46.5 -94q-33 -70 -50 -105.5t-26.5 -55t-13.5 -28.5t-11 -24.5t-20.5 -46.5 t-39.5 -90q-14 -35 -34 -82t-41.5 -97t-41 -98.5t-31.5 -80.5q-18 -72 -47 -107t-64 -45h-18q-14 0 -20 2q-29 12 -42.5 38t-17.5 40zM375 1634q12 -4 32.5 -8t43 -8t43 -8t30.5 -6q53 -12 120 -30t129.5 -38t112.5 -47t70 -57q6 -16 7 -29q0 -12 -7 -27q-14 -20 -45 -24 q-6 -2 -18 -2q-23 0 -49 6q-37 8 -78 23.5t-80 27.5q-39 10 -68.5 17.5t-70.5 21.5q-72 27 -123 74q-16 37 -24.5 53t-12.5 24.5t-6 14.5t-6 22z" />
<glyph unicode="&#xcd;" horiz-adv-x="763" d="M135 80l27 106q6 31 15 69t27.5 91t46.5 125t71 168q66 147 129 256t104 180q25 45 39 69.5t24.5 39t18.5 24t20 23.5q14 4 47 17.5t82 27.5l11 -129q0 -10 -14.5 -38t-36 -68t-47 -87t-46.5 -94q-33 -70 -50 -105.5t-26.5 -55t-13.5 -28.5t-11 -24.5t-20.5 -46.5 t-39.5 -90q-14 -35 -34 -82t-41.5 -97t-41 -98.5t-31.5 -80.5q-18 -72 -47 -107t-64 -45h-18q-14 0 -20 2q-29 12 -42.5 38t-17.5 40zM686 1393q0 29 25 51q23 27 64.5 48t90.5 39.5t98.5 34t86.5 27.5q8 2 25.5 6.5t35.5 8.5t35.5 8t28.5 8q-4 -16 -5.5 -22.5t-4.5 -14.5 t-9 -25.5t-18 -54.5h-4q-39 -45 -103 -71q-35 -15 -58.5 -22t-55.5 -17q-33 -12 -67 -27.5t-65 -23.5q-18 -8 -43 -9q-8 0 -12 2q-23 2 -39 25q-6 14 -6 29z" />
<glyph unicode="&#xce;" horiz-adv-x="763" d="M135 80l27 106q6 31 15 69t27.5 91t46.5 125t71 168q66 147 129 256t104 180q25 45 39 69.5t24.5 39t18.5 24t20 23.5q14 4 47 17.5t82 27.5l11 -129q0 -10 -14.5 -38t-36 -68t-47 -87t-46.5 -94q-33 -70 -50 -105.5t-26.5 -55t-13.5 -28.5t-11 -24.5t-20.5 -46.5 t-39.5 -90q-14 -35 -34 -82t-41.5 -97t-41 -98.5t-31.5 -80.5q-18 -72 -47 -107t-64 -45h-18q-14 0 -20 2q-29 12 -42.5 38t-17.5 40zM479 1399q29 16 65 35.5t70.5 36t62.5 29.5t40 18q33 18 53.5 33.5t35.5 27.5t28.5 19.5t29.5 11.5q6 2 23 2q20 0 31 -2 q41 -10 80.5 -68.5t86.5 -132.5q33 -29 45 -61q4 -16 5 -25q0 -12 -11 -29q-16 -14 -39 -14t-43 12q-37 20 -85 65.5t-78 96.5l-115 -49v2q-23 -10 -47.5 -17.5t-46.5 -9.5q-10 -2 -19 -2h-16q-12 0 -22.5 1t-20.5 3t-25.5 5.5t-30 5.5t-26.5 4t-18 2h-13z" />
<glyph unicode="&#xcf;" horiz-adv-x="763" d="M135 80l27 106q6 31 15 69t27.5 91t46.5 125t71 168q66 147 129 256t104 180q25 45 39 69.5t24.5 39t18.5 24t20 23.5q14 4 47 17.5t82 27.5l11 -129q0 -10 -14.5 -38t-36 -68t-47 -87t-46.5 -94q-33 -70 -50 -105.5t-26.5 -55t-13.5 -28.5t-11 -24.5t-20.5 -46.5 t-39.5 -90q-14 -35 -34 -82t-41.5 -97t-41 -98.5t-31.5 -80.5q-18 -72 -47 -107t-64 -45h-18q-14 0 -20 2q-29 12 -42.5 38t-17.5 40zM592 1470q0 10 2 17q4 31 24 57q16 29 50 49.5t88 40.5q6 -32 12 -58t6 -48q0 -10 -4 -29.5t-8 -30.5q-12 -33 -33 -55q-23 -25 -70 -24 h-8q-14 0 -31.5 8t-21.5 30q-6 20 -6 43zM944 1462q0 10 2 17q4 33 23 57q16 29 51 49.5t88 42.5q6 -35 12 -60.5t6 -47.5q0 -10 -4 -28.5t-8 -29.5q-10 -27 -35 -57q-23 -25 -67 -25h-8q-14 0 -32 8.5t-22 32.5q-6 20 -6 41z" />
<glyph unicode="&#xd1;" horiz-adv-x="1550" d="M135 41q0 12 2 18q4 25 19.5 59t35 69.5t42 72.5t42.5 70q63 92 109.5 158.5t82.5 120t66.5 98.5t63.5 94t72 109.5t92 142.5q4 6 26.5 19t52 28.5t63.5 31t61 27.5q-20 -55 -41 -128t-38.5 -152.5t-28.5 -158.5t-11 -145q0 -57 6 -118q6 -47 15.5 -94.5t22.5 -86 t34.5 -64.5t52.5 -28h10q27 0 62 19q53 33 110.5 108.5t104.5 169.5q57 115 112.5 229.5t111.5 235.5t114.5 250t123.5 272q2 8 24 19.5t54.5 26t69.5 31t72 34.5q-37 -92 -93.5 -222t-123 -274.5t-135 -291t-129 -268.5t-106.5 -209t-67 -113v-2q-51 -72 -105 -112 t-102.5 -58.5t-87.5 -22.5t-57 -4q-37 0 -78 17.5t-76.5 54.5t-63.5 93t-38 134q-2 18 -4 36.5t-3 46.5t-3 74t-4 120q-29 -41 -63 -88.5t-68 -100.5q-10 -14 -19.5 -28.5t-28 -43t-49 -75.5t-82.5 -125q-12 -18 -29.5 -37t-38 -36t-43 -29.5t-44.5 -14.5q-6 -2 -17 -2 q-18 0 -38 10q-14 8 -15 33zM922 1292q41 86 85 156t93 106l-2 -2q96 84 178 84q53 0 84 -45t45 -131v2q8 -37 14 -37q12 0 41 16.5t62 43.5q51 43 89 69.5t58 28.5l37 -55q-29 -53 -68 -102.5t-80.5 -86t-83.5 -59.5t-77 -23q-53 0 -83 36t-44 108q-11 84 -21 84 q-45 0 -121 -70q-45 -45 -106 -75.5t-100 -47.5z" />
<glyph unicode="&#xd2;" horiz-adv-x="1615" d="M57 322q0 66 21 129q35 115 104.5 228.5t149.5 211.5q119 131 223 208t209 130q51 23 105.5 39t113.5 26q43 8 86 12.5t84 4.5h31q14 0 30 -2q113 -8 211.5 -56.5t157.5 -146.5q27 -49 37 -111q6 -47 6 -88v-20q0 -10 -2 -21q-4 -66 -21.5 -128t-41.5 -109 q-80 -160 -200 -278t-263.5 -195.5t-299 -116.5t-306.5 -39q-195 0 -289 61q-74 49 -108 110.5t-36 133.5q-2 6 -2 17zM246 373q0 -29 10 -64q14 -61 88 -102q80 -43 178 -47q6 -2 19 -2q84 0 174 24q98 27 195.5 76t183.5 109q82 57 131 93t82.5 72.5t59.5 81.5t60 121 q10 35 17.5 69t15.5 68q2 11 3 23t1 23q0 49 -20 96q-29 57 -88.5 89t-126.5 44q-43 6 -86 6h-27q-12 0 -26 -2q-35 -4 -67 -10t-58 -17q-41 -23 -66 -37t-42 -30.5t-31.5 -42t-34.5 -70.5q-4 -8 -10.5 -25.5t-15.5 -47t-19.5 -74.5t-18.5 -111q-41 45 -64.5 67.5t-35 43 t-14.5 48t-3 81.5q-33 -18 -86 -69.5t-107.5 -119t-99.5 -144.5t-61 -149q-10 -41 -10 -71zM934 1638q12 -4 32.5 -8t43 -8t43 -8t30.5 -6q53 -12 120 -29.5t129.5 -38t112.5 -47.5t71 -57q6 -16 6 -29q0 -12 -6 -27q-14 -20 -46 -24q-6 -2 -18 -2q-23 0 -49 6 q-37 8 -78 23.5t-80 27.5q-39 10 -68.5 17.5t-70.5 21.5q-72 27 -123 74q-16 37 -24.5 53t-12.5 24.5t-6 14.5t-6 22z" />
<glyph unicode="&#xd3;" horiz-adv-x="1615" d="M57 322q0 66 21 129q35 115 104.5 228.5t149.5 211.5q119 131 223 208t209 130q51 23 105.5 39t113.5 26q43 8 86 12.5t84 4.5h31q14 0 30 -2q113 -8 211.5 -56.5t157.5 -146.5q27 -49 37 -111q6 -47 6 -88v-20q0 -10 -2 -21q-4 -66 -21.5 -128t-41.5 -109 q-80 -160 -200 -278t-263.5 -195.5t-299 -116.5t-306.5 -39q-195 0 -289 61q-74 49 -108 110.5t-36 133.5q-2 6 -2 17zM246 373q0 -29 10 -64q14 -61 88 -102q80 -43 178 -47q6 -2 19 -2q84 0 174 24q98 27 195.5 76t183.5 109q82 57 131 93t82.5 72.5t59.5 81.5t60 121 q10 35 17.5 69t15.5 68q2 11 3 23t1 23q0 49 -20 96q-29 57 -88.5 89t-126.5 44q-43 6 -86 6h-27q-12 0 -26 -2q-35 -4 -67 -10t-58 -17q-41 -23 -66 -37t-42 -30.5t-31.5 -42t-34.5 -70.5q-4 -8 -10.5 -25.5t-15.5 -47t-19.5 -74.5t-18.5 -111q-41 45 -64.5 67.5t-35 43 t-14.5 48t-3 81.5q-33 -18 -86 -69.5t-107.5 -119t-99.5 -144.5t-61 -149q-10 -41 -10 -71zM1028 1407q0 29 25 51q23 27 64.5 48.5t90.5 40t98.5 33.5t86.5 28q8 2 25.5 6t36 8t35.5 8t28 8l-5.5 -22t-4.5 -14.5l-9 -25.5t-18 -54h-4q-39 -45 -103 -72q-35 -14 -58.5 -21.5 t-55.5 -17.5q-33 -12 -67 -27.5t-65 -23.5q-18 -8 -43 -8q-8 0 -12 2q-23 2 -39 24q-6 14 -6 29z" />
<glyph unicode="&#xd4;" horiz-adv-x="1615" d="M57 322q0 66 21 129q35 115 104.5 228.5t149.5 211.5q119 131 223 208t209 130q51 23 105.5 39t113.5 26q43 8 86 12.5t84 4.5h31q14 0 30 -2q113 -8 211.5 -56.5t157.5 -146.5q27 -49 37 -111q6 -47 6 -88v-20q0 -10 -2 -21q-4 -66 -21.5 -128t-41.5 -109 q-80 -160 -200 -278t-263.5 -195.5t-299 -116.5t-306.5 -39q-195 0 -289 61q-74 49 -108 110.5t-36 133.5q-2 6 -2 17zM246 373q0 -29 10 -64q14 -61 88 -102q80 -43 178 -47q6 -2 19 -2q84 0 174 24q98 27 195.5 76t183.5 109q82 57 131 93t82.5 72.5t59.5 81.5t60 121 q10 35 17.5 69t15.5 68q2 11 3 23t1 23q0 49 -20 96q-29 57 -88.5 89t-126.5 44q-43 6 -86 6h-27q-12 0 -26 -2q-35 -4 -67 -10t-58 -17q-41 -23 -66 -37t-42 -30.5t-31.5 -42t-34.5 -70.5q-4 -8 -10.5 -25.5t-15.5 -47t-19.5 -74.5t-18.5 -111q-41 45 -64.5 67.5t-35 43 t-14.5 48t-3 81.5q-33 -18 -86 -69.5t-107.5 -119t-99.5 -144.5t-61 -149q-10 -41 -10 -71zM856 1403q25 16 57.5 36.5t65.5 41t58.5 35t35.5 18.5q39 27 60.5 46t39 31.5t35 18.5t49.5 6q43 -4 85 -54t96 -114q35 -29 49 -51q4 -16 4 -22q0 -16 -8 -27q-16 -16 -39 -16 q-18 0 -37 8q-37 14 -87 50t-85 81l-107 -59v2q-45 -23 -89 -31t-74 -8q-25 4 -54 6h-45z" />
<glyph unicode="&#xd5;" horiz-adv-x="1615" d="M53 311q0 63 21 125q31 111 99.5 220.5t145.5 205.5q117 125 217.5 200t200.5 126q49 20 102.5 36.5t112.5 26.5q88 16 166 17h31q14 0 29 -2q111 -8 205 -53.5t151 -143.5q27 -45 37 -106q6 -43 6 -86v-19q0 -8 -2 -18q-4 -63 -20.5 -124t-41.5 -106 q-78 -154 -194.5 -268.5t-254.5 -190t-289.5 -113.5t-301.5 -38q-182 0 -278 59q-72 47 -105 107.5t-35 128.5q-2 6 -2 16zM236 358q0 -35 8 -59q14 -61 86 -98q80 -43 174 -47q6 -2 18 -2q84 0 170 24q94 27 187.5 74t179.5 104q80 55 128 90t82 71t58.5 80t56.5 118 q8 33 17.5 65.5t13.5 65.5q2 10 2 22v45q-2 16 -5 35t-11 35q-29 55 -86.5 86t-124.5 41q-43 6 -84 6h-27q-12 0 -24 -2q-68 -6 -121 -25q-41 -23 -64.5 -37t-40 -30t-31 -41t-34.5 -68q-6 -16 -24.5 -68t-37.5 -179q-39 45 -61.5 67.5t-34.5 41t-15 44t-3 76.5 q-33 -18 -84 -66.5t-103.5 -113t-95.5 -139t-59 -144.5q-10 -41 -10 -72zM926 1300q41 86 83 152t89 102l-2 -2q47 39 90 59.5t84 20.5q96 0 125 -170v2q10 -35 12 -34q12 0 41 15t59 40q49 43 87 69.5t55 26.5l37 -53q-27 -51 -65 -98.5t-79 -84t-82 -58t-74 -21.5 q-53 0 -80.5 33.5t-41.5 105.5q-11 80 -21 80q-45 0 -117 -66q-45 -45 -104 -73.5t-96 -45.5z" />
<glyph unicode="&#xd6;" horiz-adv-x="1615" d="M57 322q0 66 21 129q35 115 104.5 228.5t149.5 211.5q119 131 223 208t209 130q51 23 105.5 39t113.5 26q43 8 86 12.5t84 4.5h31q14 0 30 -2q113 -8 211.5 -56.5t157.5 -146.5q27 -49 37 -111q6 -47 6 -88v-20q0 -10 -2 -21q-4 -66 -21.5 -128t-41.5 -109 q-80 -160 -200 -278t-263.5 -195.5t-299 -116.5t-306.5 -39q-195 0 -289 61q-74 49 -108 110.5t-36 133.5q-2 6 -2 17zM246 373q0 -29 10 -64q14 -61 88 -102q80 -43 178 -47q6 -2 19 -2q84 0 174 24q98 27 195.5 76t183.5 109q82 57 131 93t82.5 72.5t59.5 81.5t60 121 q10 35 17.5 69t15.5 68q2 11 3 23t1 23q0 49 -20 96q-29 57 -88.5 89t-126.5 44q-43 6 -86 6h-27q-12 0 -26 -2q-35 -4 -67 -10t-58 -17q-41 -23 -66 -37t-42 -30.5t-31.5 -42t-34.5 -70.5q-4 -8 -10.5 -25.5t-15.5 -47t-19.5 -74.5t-18.5 -111q-41 45 -64.5 67.5t-35 43 t-14.5 48t-3 81.5q-33 -18 -86 -69.5t-107.5 -119t-99.5 -144.5t-61 -149q-10 -41 -10 -71zM911 1473q0 10 2 16q4 31 25 57q16 29 50 49.5t87 40.5q6 -32 12.5 -58t6.5 -48q0 -10 -4.5 -29.5t-8.5 -30.5q-12 -33 -32 -55q-23 -25 -70 -24h-8q-14 0 -31.5 8t-21.5 31 q-6 20 -7 43zM1264 1464q0 10 2 17q4 33 22 57q16 29 51 49.5t88 42.5q7 -35 13 -60.5t6 -47.5q0 -10 -4 -28.5t-8 -29.5q-10 -27 -35 -57q-23 -25 -68 -25h-8q-14 0 -31.5 8.5t-21.5 32.5q-6 20 -6 41z" />
<glyph unicode="&#xd8;" horiz-adv-x="1292" d="M213 455v55q0 14 2 31q6 88 52 194.5t165 218.5q123 111 226.5 154t179.5 51q14 37 37.5 86t53 93t63.5 76t71 34l-8 -234l-31 -77q68 -41 118 -134.5t50 -242.5q0 -117 -89 -216.5t-224 -185.5q-82 -49 -153 -75.5t-128 -36.5q-129 -205 -213 -240h-10q-53 0 -68 21 q-16 16 -16 43q0 8 2 14q4 35 28.5 79t55.5 89q-66 16 -110 57t-52 119q-2 14 -2 27zM346 516q0 -12 4 -33q8 -47 53 -75q29 -20 62 -27q4 4 5 9t5 9q20 39 53 94.5t66 113t61.5 111.5t40.5 91q20 47 38 92t36 88q-47 -16 -102.5 -47t-118.5 -84q-74 -68 -122 -137.5 t-67 -128.5q-14 -37 -14 -76zM690 412q23 10 45.5 21t44.5 22q80 53 147.5 106t102.5 131q20 43 21 109v10q-2 27 -6.5 59.5t-18.5 59.5q-29 47 -65 67q-35 -79 -72 -161t-73 -159t-68.5 -145.5t-57.5 -119.5z" />
<glyph unicode="&#xd9;" horiz-adv-x="1304" d="M127 309v17q0 68 14 116q20 92 71.5 210t129.5 249q33 51 72 102.5t80 95.5t79.5 77.5t73.5 50.5q20 12 41 12q16 0 33 -12q23 -18 27 -43v-4q0 -20 -11 -45q-12 -25 -31.5 -47.5t-37.5 -36.5q-96 -72 -161 -161t-105 -176t-61.5 -164t-31.5 -124q-10 -51 -10 -86 q0 -70 33 -115q51 -74 194 -73q184 0 346 174q37 37 78 87t81 108.5t77 122t66 126.5q16 37 29.5 67.5t22.5 63.5t14 72t9 90v160l135 202q6 -29 10.5 -73.5t6.5 -93t3 -94.5t1 -74q-2 -92 -25 -189q-41 -180 -116.5 -322.5t-198.5 -277.5q-135 -156 -285.5 -228.5 t-355.5 -72.5q-182 0 -258 143q-35 61 -37 148q-2 10 -2 18zM655 1636q13 -4 33.5 -8t43 -8t43 -8t30.5 -6q53 -12 119.5 -29.5t129 -38t113 -47.5t70.5 -57q6 -16 6 -29q0 -12 -6 -27q-14 -20 -45 -24q-6 -2 -18 -2q-23 0 -50 6q-37 8 -77.5 23.5t-79.5 27.5 q-39 10 -69 17.5t-71 21.5q-72 27 -122 74q-16 37 -24.5 53t-12.5 24.5t-6.5 14.5t-6.5 22z" />
<glyph unicode="&#xda;" horiz-adv-x="1304" d="M127 309v17q0 68 14 116q20 92 71.5 210t129.5 249q33 51 72 102.5t80 95.5t79.5 77.5t73.5 50.5q20 12 41 12q16 0 33 -12q23 -18 27 -43v-4q0 -20 -11 -45q-12 -25 -31.5 -47.5t-37.5 -36.5q-96 -72 -161 -161t-105 -176t-61.5 -164t-31.5 -124q-10 -51 -10 -86 q0 -70 33 -115q51 -74 194 -73q184 0 346 174q37 37 78 87t81 108.5t77 122t66 126.5q16 37 29.5 67.5t22.5 63.5t14 72t9 90v160l135 202q6 -29 10.5 -73.5t6.5 -93t3 -94.5t1 -74q-2 -92 -25 -189q-41 -180 -116.5 -322.5t-198.5 -277.5q-135 -156 -285.5 -228.5 t-355.5 -72.5q-182 0 -258 143q-35 61 -37 148q-2 10 -2 18zM817 1407q0 29 25 51q23 27 64.5 48.5t91 40t98.5 33.5t86 28q8 2 25.5 6t36 8t35.5 8t28 8l-5.5 -22t-4.5 -14.5l-9 -25.5t-18 -54h-4q-39 -45 -103 -72q-35 -14 -58.5 -21.5t-55.5 -17.5q-33 -12 -67 -27.5 t-64 -23.5q-18 -8 -44 -8q-8 0 -12 2q-23 2 -39 24q-6 14 -6 29z" />
<glyph unicode="&#xdb;" horiz-adv-x="1304" d="M127 309v17q0 68 14 116q20 92 71.5 210t129.5 249q33 51 72 102.5t80 95.5t79.5 77.5t73.5 50.5q20 12 41 12q16 0 33 -12q23 -18 27 -43v-4q0 -20 -11 -45q-12 -25 -31.5 -47.5t-37.5 -36.5q-96 -72 -161 -161t-105 -176t-61.5 -164t-31.5 -124q-10 -51 -10 -86 q0 -70 33 -115q51 -74 194 -73q184 0 346 174q37 37 78 87t81 108.5t77 122t66 126.5q16 37 29.5 67.5t22.5 63.5t14 72t9 90v160l135 202q6 -29 10.5 -73.5t6.5 -93t3 -94.5t1 -74q-2 -92 -25 -189q-41 -180 -116.5 -322.5t-198.5 -277.5q-135 -156 -285.5 -228.5 t-355.5 -72.5q-182 0 -258 143q-35 61 -37 148q-2 10 -2 18zM664 1384q25 18 57.5 41t63 44.5t55 37t34.5 19.5q39 29 59.5 49t37 34.5t34 20.5t50.5 6q43 0 88 -49t100 -108q37 -27 51 -49q6 -16 6 -27q0 -14 -6 -23q-23 -18 -49 -18q-8 0 -28 4q-37 12 -89.5 47t-89.5 78 l-104 -64v3q-41 -27 -86 -36.5t-76 -9.5q-10 0 -24.5 1t-28.5 1h-45z" />
<glyph unicode="&#xdc;" horiz-adv-x="1304" d="M127 309v17q0 68 14 116q20 92 71.5 210t129.5 249q33 51 72 102.5t80 95.5t79.5 77.5t73.5 50.5q20 12 41 12q16 0 33 -12q23 -18 27 -43v-4q0 -20 -11 -45q-12 -25 -31.5 -47.5t-37.5 -36.5q-96 -72 -161 -161t-105 -176t-61.5 -164t-31.5 -124q-10 -51 -10 -86 q0 -70 33 -115q51 -74 194 -73q184 0 346 174q37 37 78 87t81 108.5t77 122t66 126.5q16 37 29.5 67.5t22.5 63.5t14 72t9 90v160l135 202q6 -29 10.5 -73.5t6.5 -93t3 -94.5t1 -74q-2 -92 -25 -189q-41 -180 -116.5 -322.5t-198.5 -277.5q-135 -156 -285.5 -228.5 t-355.5 -72.5q-182 0 -258 143q-35 61 -37 148q-2 10 -2 18zM786 1475q0 10 2 16q4 31 25 57q16 29 50 49.5t87 40.5q6 -32 12.5 -58t6.5 -48q0 -10 -4 -29.5t-9 -29.5q-12 -33 -32 -56q-23 -25 -70 -24h-8q-14 0 -31.5 8t-21.5 31q-6 20 -7 43zM1139 1466q0 10 2 17 q4 33 22 57q16 29 51 49.5t89 42.5q6 -35 12 -60.5t6 -47.5q0 -10 -4 -28.5t-8 -29.5q-10 -27 -35 -57q-23 -25 -68 -25h-8q-14 0 -31.5 8.5t-21.5 32.5q-6 20 -6 41z" />
<glyph unicode="&#xdd;" horiz-adv-x="937" d="M143 -137q0 29 25 69q59 98 131 197.5t125 210.5q4 4 5 8t3 8q-92 106 -137 200.5t-57 205.5q-6 51 -7 112q0 14 2 21q0 51 5.5 100t15.5 92t24.5 75t34.5 48q16 16 35 19h39q31 -2 35 -53v-19q0 -23 -1 -49.5t-3 -58.5q-6 -66 -6 -140q0 -18 2 -28q0 -92 30 -179 q8 -57 38 -105t61 -75q70 96 139.5 209t135 230.5t126 232.5t109.5 217q20 12 46.5 30.5t53.5 38t49.5 37t38.5 27.5t19 10v-2q-33 -92 -85.5 -212.5t-134.5 -305.5q-39 -74 -94 -171t-117.5 -204.5t-131 -220t-135 -218t-126 -199t-106.5 -162.5q-31 -48 -72 -60 q-18 -8 -39 -8q-18 0 -33 8q-29 12 -39 47q-4 12 -4 17zM561 1288q0 6 2 10q10 35 49 73t78 79q20 23 35.5 44.5t44.5 47.5q23 23 51.5 40t59.5 34l4 4q43 2 63.5 4t30.5 2q12 0 19.5 -1t25.5 -3q-6 -8 -15.5 -22.5t-19.5 -29t-19 -26.5t-16 -18q-27 -33 -59.5 -73 t-69.5 -79t-75.5 -70.5t-75.5 -50.5q-25 -12 -49 -12q-25 0 -45 12q-18 14 -19 35z" />
<glyph unicode="&#xdf;" horiz-adv-x="1071" d="M-2 16q2 25 12 69t49 130q6 10 12.5 30.5t16.5 49.5q20 57 55 146t88 206q33 74 74 150.5t82 145.5t80 124t68 86q180 199 446 199q109 0 174 -72q23 -27 38 -59.5t15 -71.5q0 -29 -3 -53.5t-11 -49t-23.5 -53t-42.5 -67.5q-20 -35 -60 -83t-77 -95q37 -29 58.5 -65 t31.5 -79q4 -14 6.5 -36.5t2.5 -73.5q-4 -74 -20.5 -141.5t-52.5 -125t-93.5 -99.5t-141.5 -65q-35 -6 -59 -6q-39 0 -59 13q-39 20 -39 67v10q4 35 23.5 44.5t47.5 9.5q2 -2 19 -2q16 0 31.5 3t31.5 13q59 29 104.5 84t59.5 111q2 16 3 34.5t3 36.5v51q0 14 -2 29 q-16 35 -44 53.5t-79 18.5q-18 0 -48 -9.5t-56 -9.5q-2 -2 -4 -2q-23 0 -39 17q-12 8 -12 33q0 8 1 15t3 17l6 13q12 27 45 54t86 46l-6 -4q33 18 69.5 55t69.5 82t58.5 94t35.5 90q2 2 2 15q0 43 -45 53t-100 10q-66 0 -124 -37t-116 -98q-57 -63 -100 -131t-77 -138.5 t-62.5 -145t-57.5 -152.5q-10 -29 -21.5 -59.5t-21.5 -61.5v2q-23 -68 -34 -101.5t-19 -64.5q-20 -39 -30.5 -63.5t-20.5 -32.5q-12 -8 -35 -21.5t-49.5 -29t-52 -29.5t-43.5 -21q-16 -6 -21 -6q-6 0 -6 4z" />
<glyph unicode="&#xe0;" horiz-adv-x="1228" d="M8 162q0 8 2 12q0 27 6 51q12 72 51 152t96.5 157.5t131.5 150.5t155.5 130t169 96t173.5 52q14 2 27.5 3t27.5 1q72 0 141 -29q43 -18 84 -69.5t45 -137.5v-12q0 -61 -18 -117q-35 -96 -90.5 -171t-100.5 -128q-10 -25 -12 -57q-2 -4 -2 -13q0 -25 20 -38 q53 -35 104.5 -56.5t129.5 -21.5q23 0 49.5 7t48.5 13q31 -10 31 -31q0 -2 -4 -14l-25 -35q-49 -43 -109.5 -49t-119.5 -8q-53 0 -88 7t-78 22q-47 20 -80 36.5t-61 38.5q-4 4 -8.5 7.5t-8.5 7.5q-41 -25 -108.5 -46.5t-140 -37t-141 -24.5t-111.5 -9q-53 0 -87 15.5 t-63 31.5q-12 8 -20.5 27.5t-12.5 44.5q-2 10 -3 20.5t-1 20.5zM168 211q0 -25 16 -41q27 -27 82 -27h17q47 2 102 17.5t105.5 34t92.5 39t62 34.5l43 31q31 20 75 59t86 93.5t75.5 122t44.5 145.5v6q0 20 -8 37q-18 29 -51 51.5t-62 22.5q-45 0 -109.5 -24t-130 -58.5 t-137.5 -99t-135.5 -140.5t-108.5 -150.5t-55 -127.5q-4 -16 -4 -25zM608 1495q13 -4 33.5 -8t43 -8t43 -8.5t30.5 -6.5q53 -12 119.5 -29.5t129 -38t112.5 -47t71 -57.5q6 -16 6 -28t-6 -27q-14 -20 -45 -25q-6 -2 -19 -2q-23 0 -49 7q-37 8 -78 23t-79 28q-39 10 -69 17 t-71 22q-72 27 -123 73q-16 37 -24 53.5t-12.5 24.5t-6.5 14.5t-6 22.5z" />
<glyph unicode="&#xe1;" horiz-adv-x="1228" d="M8 162q0 8 2 12q0 27 6 51q12 72 51 152t96.5 157.5t131.5 150.5t155.5 130t169 96t173.5 52q14 2 27.5 3t27.5 1q72 0 141 -29q43 -18 84 -69.5t45 -137.5v-12q0 -61 -18 -117q-35 -96 -90.5 -171t-100.5 -128q-10 -25 -12 -57q-2 -4 -2 -13q0 -25 20 -38 q53 -35 104.5 -56.5t129.5 -21.5q23 0 49.5 7t48.5 13q31 -10 31 -31q0 -2 -4 -14l-25 -35q-49 -43 -109.5 -49t-119.5 -8q-53 0 -88 7t-78 22q-47 20 -80 36.5t-61 38.5q-4 4 -8.5 7.5t-8.5 7.5q-41 -25 -108.5 -46.5t-140 -37t-141 -24.5t-111.5 -9q-53 0 -87 15.5 t-63 31.5q-12 8 -20.5 27.5t-12.5 44.5q-2 10 -3 20.5t-1 20.5zM168 211q0 -25 16 -41q27 -27 82 -27h17q47 2 102 17.5t105.5 34t92.5 39t62 34.5l43 31q31 20 75 59t86 93.5t75.5 122t44.5 145.5v6q0 20 -8 37q-18 29 -51 51.5t-62 22.5q-45 0 -109.5 -24t-130 -58.5 t-137.5 -99t-135.5 -140.5t-108.5 -150.5t-55 -127.5q-4 -16 -4 -25zM713 1171q0 29 24 52q23 27 65 48t91 39.5t98 34t86 27.5q8 2 25.5 6t36 8.5t36 8.5t27.5 8q-4 -16 -5 -22.5t-4 -14.5t-9 -25.5t-19 -54.5h-4q-39 -45 -102 -72q-35 -14 -58.5 -21t-56.5 -17 q-33 -12 -66.5 -27.5t-64.5 -24.5q-18 -8 -43 -8q-8 0 -12 2q-23 2 -39 25q-6 14 -6 28z" />
<glyph unicode="&#xe2;" horiz-adv-x="1228" d="M8 162q0 8 2 12q0 27 6 51q12 72 51 152t96.5 157.5t131.5 150.5t155.5 130t169 96t173.5 52q14 2 27.5 3t27.5 1q72 0 141 -29q43 -18 84 -69.5t45 -137.5v-12q0 -61 -18 -117q-35 -96 -90.5 -171t-100.5 -128q-10 -25 -12 -57q-2 -4 -2 -13q0 -25 20 -38 q53 -35 104.5 -56.5t129.5 -21.5q23 0 49.5 7t48.5 13q31 -10 31 -31q0 -2 -4 -14l-25 -35q-49 -43 -109.5 -49t-119.5 -8q-53 0 -88 7t-78 22q-47 20 -80 36.5t-61 38.5q-4 4 -8.5 7.5t-8.5 7.5q-41 -25 -108.5 -46.5t-140 -37t-141 -24.5t-111.5 -9q-53 0 -87 15.5 t-63 31.5q-12 8 -20.5 27.5t-12.5 44.5q-2 10 -3 20.5t-1 20.5zM168 211q0 -25 16 -41q27 -27 82 -27h17q47 2 102 17.5t105.5 34t92.5 39t62 34.5l43 31q31 20 75 59t86 93.5t75.5 122t44.5 145.5v6q0 20 -8 37q-18 29 -51 51.5t-62 22.5q-45 0 -109.5 -24t-130 -58.5 t-137.5 -99t-135.5 -140.5t-108.5 -150.5t-55 -127.5q-4 -16 -4 -25zM647 1153q25 16 57.5 38.5t64.5 43t57.5 36t35.5 19.5q39 27 59.5 47.5t36 32.5t33 18.5t51.5 6.5q43 -2 87.5 -51.5t97.5 -110.5q16 -14 29.5 -26.5t21.5 -24.5q6 -16 6 -25q0 -14 -8 -24 q-20 -16 -43 -17q-14 0 -33 6q-39 12 -90 48t-86 81l-104 -61v2q-45 -25 -89.5 -34t-74.5 -9q-10 2 -25 2q-12 0 -29 2q-10 2 -18 2h-10q-12 0 -17 -2h-10z" />
<glyph unicode="&#xe3;" horiz-adv-x="1228" d="M8 162q0 8 2 12q0 27 6 51q12 72 51 152t96.5 157.5t131.5 150.5t155.5 130t169 96t173.5 52q14 2 27.5 3t27.5 1q72 0 141 -29q43 -18 84 -69.5t45 -137.5v-12q0 -61 -18 -117q-35 -96 -90.5 -171t-100.5 -128q-10 -25 -12 -57q-2 -4 -2 -13q0 -25 20 -38 q53 -35 104.5 -56.5t129.5 -21.5q23 0 49.5 7t48.5 13q31 -10 31 -31q0 -2 -4 -14l-25 -35q-49 -43 -109.5 -49t-119.5 -8q-53 0 -88 7t-78 22q-47 20 -80 36.5t-61 38.5q-4 4 -8.5 7.5t-8.5 7.5q-41 -25 -108.5 -46.5t-140 -37t-141 -24.5t-111.5 -9q-53 0 -87 15.5 t-63 31.5q-12 8 -20.5 27.5t-12.5 44.5q-2 10 -3 20.5t-1 20.5zM168 211q0 -25 16 -41q27 -27 82 -27h17q47 2 102 17.5t105.5 34t92.5 39t62 34.5l43 31q31 20 75 59t86 93.5t75.5 122t44.5 145.5v6q0 20 -8 37q-18 29 -51 51.5t-62 22.5q-45 0 -109.5 -24t-130 -58.5 t-137.5 -99t-135.5 -140.5t-108.5 -150.5t-55 -127.5q-4 -16 -4 -25zM537 1202q41 86 85 155.5t93 106.5l-2 -2q96 84 178 84q53 0 84 -45t45 -131v2q8 -37 14 -37q12 0 41 16.5t62 43.5q51 43 89 69.5t58 28.5l37 -55q-29 -53 -68 -102.5t-81 -86.5t-83.5 -59.5 t-76.5 -22.5q-53 0 -83 36t-44 108q-11 84 -21 84q-45 0 -121 -70q-45 -45 -106.5 -75.5t-99.5 -47.5z" />
<glyph unicode="&#xe4;" horiz-adv-x="1228" d="M8 162q0 8 2 12q0 27 6 51q12 72 51 152t96.5 157.5t131.5 150.5t155.5 130t169 96t173.5 52q14 2 27.5 3t27.5 1q72 0 141 -29q43 -18 84 -69.5t45 -137.5v-12q0 -61 -18 -117q-35 -96 -90.5 -171t-100.5 -128q-10 -25 -12 -57q-2 -4 -2 -13q0 -25 20 -38 q53 -35 104.5 -56.5t129.5 -21.5q23 0 49.5 7t48.5 13q31 -10 31 -31q0 -2 -4 -14l-25 -35q-49 -43 -109.5 -49t-119.5 -8q-53 0 -88 7t-78 22q-47 20 -80 36.5t-61 38.5q-4 4 -8.5 7.5t-8.5 7.5q-41 -25 -108.5 -46.5t-140 -37t-141 -24.5t-111.5 -9q-53 0 -87 15.5 t-63 31.5q-12 8 -20.5 27.5t-12.5 44.5q-2 10 -3 20.5t-1 20.5zM168 211q0 -25 16 -41q27 -27 82 -27h17q47 2 102 17.5t105.5 34t92.5 39t62 34.5l43 31q31 20 75 59t86 93.5t75.5 122t44.5 145.5v6q0 20 -8 37q-18 29 -51 51.5t-62 22.5q-45 0 -109.5 -24t-130 -58.5 t-137.5 -99t-135.5 -140.5t-108.5 -150.5t-55 -127.5q-4 -16 -4 -25zM664 1257q0 10 2 17q4 31 24 57q16 29 50 49.5t87 40.5q7 -32 13 -58t6 -48q0 -10 -4 -29.5t-8 -30.5q-12 -33 -33 -55q-23 -25 -70 -24h-8q-14 0 -31.5 8t-21.5 30q-6 20 -6 43zM1016 1249q0 10 2 17 q4 33 22 57q16 29 51 49.5t89 42.5q6 -35 12 -60.5t6 -47.5q0 -10 -4 -28.5t-8 -29.5q-10 -27 -35 -57q-23 -25 -68 -25h-8q-14 0 -31.5 8.5t-21.5 32.5q-6 20 -6 41z" />
<glyph unicode="&#xe5;" horiz-adv-x="1228" d="M8 162q0 8 2 12q0 27 6 51q12 72 51 152t96.5 157.5t131.5 150.5t155.5 130t169 96t173.5 52q14 2 27.5 3t27.5 1q72 0 141 -29q43 -18 84 -69.5t45 -137.5v-12q0 -61 -18 -117q-35 -96 -90.5 -171t-100.5 -128q-10 -25 -12 -57q-2 -4 -2 -13q0 -25 20 -38 q53 -35 104.5 -56.5t129.5 -21.5q23 0 49.5 7t48.5 13q31 -10 31 -31q0 -2 -4 -14l-25 -35q-49 -43 -109.5 -49t-119.5 -8q-53 0 -88 7t-78 22q-47 20 -80 36.5t-61 38.5q-4 4 -8.5 7.5t-8.5 7.5q-41 -25 -108.5 -46.5t-140 -37t-141 -24.5t-111.5 -9q-53 0 -87 15.5 t-63 31.5q-12 8 -20.5 27.5t-12.5 44.5q-2 10 -3 20.5t-1 20.5zM168 211q0 -25 16 -41q27 -27 82 -27h17q47 2 102 17.5t105.5 34t92.5 39t62 34.5l43 31q31 20 75 59t86 93.5t75.5 122t44.5 145.5v6q0 20 -8 37q-18 29 -51 51.5t-62 22.5q-45 0 -109.5 -24t-130 -58.5 t-137.5 -99t-135.5 -140.5t-108.5 -150.5t-55 -127.5q-4 -16 -4 -25z" />
<glyph unicode="&#xe6;" horiz-adv-x="2035" d="M14 166q0 8 2 12q0 27 7 51q12 72 51 152t96 157.5t131 150.5t156 130.5t169 96t173 51.5q14 2 27.5 3t27.5 1q72 0 141 -29q43 -18 84 -69.5t45 -137.5v-12q0 -61 -18 -117q-35 -96 -90 -171t-101 -128q-10 -25 -12 -57q-2 -4 -2 -12q0 -25 21 -39q10 -8 21 -14.5 t24 -14.5q-4 12 -4 20v27q0 262 342 524q119 94 237.5 127t243.5 33q70 0 124 -20.5t72 -77.5q2 -10 3.5 -19.5t1.5 -19.5q0 -27 -9 -57q-23 -74 -87 -128.5t-149 -91t-180.5 -56t-177.5 -21.5h-32q-41 0 -81 3t-75 11q-23 -16 -44.5 -56t-33.5 -92l-3 -15t-1 -7 q0 -51 70 -84q35 -16 83 -26.5t95 -10.5q63 0 141 12.5t156 34.5q31 6 54.5 12.5t49 15.5t61.5 22.5t91 33.5q63 18 88 19h6q4 -4 4 -7q0 -12 -35 -47q-23 -23 -36 -35t-23 -21t-21.5 -16t-29.5 -20q-35 -16 -77 -39.5t-89 -40.5q-82 -29 -161 -42t-157 -13q-68 0 -121 3 t-92 11q-35 -10 -71.5 -11t-73.5 -1q-53 0 -88 7t-78 22q-47 20 -79.5 36.5t-61.5 39.5q-4 4 -8 7t-9 7q-41 -25 -108.5 -46.5t-140 -36.5t-141 -24.5t-111.5 -9.5q-53 0 -87 15.5t-63 31.5q-12 8 -20 27.5t-13 44.5q-2 10 -3 20.5t-1 20.5zM174 215q0 -25 16 -41 q27 -27 82 -27h17q47 2 102 17.5t105.5 34t92.5 39t62 34.5l43 31q31 21 75 59.5t86 93t76 122t44 145.5v6q0 20 -8 37q-18 29 -51 51.5t-62 22.5q-45 0 -109.5 -23.5t-130 -58.5t-137 -99.5t-135 -140.5t-109 -150.5t-55.5 -127.5q-4 -16 -4 -25zM1325 573h61 q37 0 88.5 4.5t105.5 15.5t107.5 30.5t94.5 50.5l37 37q14 12 14 34q0 6 -4 23q0 2 -2 4h2q-16 6 -55 6q-62 -2 -137.5 -26.5t-174.5 -77.5q-35 -18 -56.5 -31.5t-36.5 -25t-24.5 -21.5t-19.5 -23z" />
<glyph unicode="&#xe7;" horiz-adv-x="1046" d="M43 371q0 33 6 67q20 100 77.5 181t135.5 142.5t170 102.5t184 62q111 25 207 24h27q66 -4 108.5 -29.5t65.5 -82.5q18 -41 18 -101q0 -43 -7 -89t-21.5 -87t-32.5 -73.5t-43 -49.5q-45 -33 -80 -39q-20 -4 -29 -4q-12 0 -24 4q-23 6 -25 25q-2 2 -2 10q0 12 6.5 24.5 t15.5 33t19 43.5q10 27 18.5 43t16.5 30q14 35 20.5 59.5t8.5 37.5q10 27 10 45v4q-4 35 -19.5 52t-29.5 17q-10 2 -21.5 3t-25.5 1q-53 0 -127 -18q-111 -29 -248 -115q-78 -47 -133 -123q-49 -72 -62 -129q-6 -29 -6 -57q0 -18 2 -37.5t6 -40.5q8 -59 56 -88 q78 -53 235 -80q47 -4 84 -8t62 -6q16 -2 32.5 -3t32.5 -1h25q86 4 156.5 9t111.5 15q8 2 15.5 3.5l17.5 3.5h4q12 0 22 -7q8 -2 9 -14v-6q-2 -12 -31 -41l-64 -39q-27 -12 -66.5 -20.5t-87.5 -14.5t-100.5 -8t-105.5 -2v-12q-2 -8 -6 -35q-27 -125 -139.5 -216t-317.5 -138 q63 125 156 198q41 35 66.5 57.5t31.5 32.5l-2 -2q12 25 27.5 60t31.5 61q-20 4 -39.5 5t-35.5 5q-162 25 -269 117q-63 53 -84 137q-14 49 -14 101z" />
<glyph unicode="&#xe8;" horiz-adv-x="1081" d="M8 209v6q0 262 342 524q119 94 238 127t243 33q70 0 124.5 -20.5t72.5 -77.5q2 -10 3 -19.5t1 -19.5q0 -27 -8 -57q-23 -74 -87.5 -128.5t-149.5 -91t-180 -56t-177 -21.5h-33q-41 0 -81 3t-74 11q-23 -16 -44.5 -56t-33.5 -92l-3 -15t-1 -7q0 -51 69 -84 q35 -16 83 -26.5t96 -10.5q63 0 141 12.5t156 34.5q31 6 54 12.5t49 15.5t61.5 22.5t91.5 33.5q63 18 88 19h6q4 -4 4 -7q0 -12 -35 -47q-23 -23 -36 -35t-23.5 -21t-21.5 -16.5t-30 -19.5q-35 -16 -76.5 -39.5t-88.5 -40.5q-82 -29 -161 -42t-157 -13q-184 0 -272 31 q-150 51 -150 178zM371 571h61q37 0 88 4.5t105.5 15.5t107.5 30.5t94 50.5l37 37q14 12 15 34q0 6 -5 23q0 2 -2 4h2q-16 6 -55 6q-61 -2 -137 -26.5t-174 -77.5q-35 -18 -56.5 -31.5t-37 -25t-24.5 -21.5t-19 -23zM547 1399q12 -4 32.5 -8.5t43 -8.5t43 -8t30.5 -6 q53 -12 120 -29.5t129.5 -38t112.5 -47t70 -57.5q6 -16 7 -29q0 -12 -7 -26q-14 -20 -45 -25q-6 -2 -18 -2q-23 0 -49 6q-37 8 -78 23.5t-80 27.5q-39 10 -68.5 17.5t-70.5 21.5q-72 27 -123 74q-16 37 -24.5 53.5t-12.5 24.5t-6 14t-6 23z" />
<glyph unicode="&#xe9;" horiz-adv-x="1081" d="M8 209v6q0 262 342 524q119 94 238 127t243 33q70 0 124.5 -20.5t72.5 -77.5q2 -10 3 -19.5t1 -19.5q0 -27 -8 -57q-23 -74 -87.5 -128.5t-149.5 -91t-180 -56t-177 -21.5h-33q-41 0 -81 3t-74 11q-23 -16 -44.5 -56t-33.5 -92l-3 -15t-1 -7q0 -51 69 -84 q35 -16 83 -26.5t96 -10.5q63 0 141 12.5t156 34.5q31 6 54 12.5t49 15.5t61.5 22.5t91.5 33.5q63 18 88 19h6q4 -4 4 -7q0 -12 -35 -47q-23 -23 -36 -35t-23.5 -21t-21.5 -16.5t-30 -19.5q-35 -16 -76.5 -39.5t-88.5 -40.5q-82 -29 -161 -42t-157 -13q-184 0 -272 31 q-150 51 -150 178zM371 571h61q37 0 88 4.5t105.5 15.5t107.5 30.5t94 50.5l37 37q14 12 15 34q0 6 -5 23q0 2 -2 4h2q-16 6 -55 6q-61 -2 -137 -26.5t-174 -77.5q-35 -18 -56.5 -31.5t-37 -25t-24.5 -21.5t-19 -23zM643 1081q0 29 25 52q23 27 64.5 48t90.5 39.5t98.5 34 t86.5 27.5q8 2 25.5 6t35.5 8t35.5 8.5t28.5 8.5q-4 -16 -5.5 -22.5t-4.5 -14.5t-9 -25.5t-18 -54.5h-4q-39 -45 -103 -72q-35 -14 -58.5 -21t-56.5 -18q-33 -12 -66.5 -27.5t-64.5 -23.5q-18 -8 -43 -8q-8 0 -12 2q-23 2 -39 25q-6 14 -6 28z" />
<glyph unicode="&#xea;" horiz-adv-x="1081" d="M8 209v6q0 262 342 524q119 94 238 127t243 33q70 0 124.5 -20.5t72.5 -77.5q2 -10 3 -19.5t1 -19.5q0 -27 -8 -57q-23 -74 -87.5 -128.5t-149.5 -91t-180 -56t-177 -21.5h-33q-41 0 -81 3t-74 11q-23 -16 -44.5 -56t-33.5 -92l-3 -15t-1 -7q0 -51 69 -84 q35 -16 83 -26.5t96 -10.5q63 0 141 12.5t156 34.5q31 6 54 12.5t49 15.5t61.5 22.5t91.5 33.5q63 18 88 19h6q4 -4 4 -7q0 -12 -35 -47q-23 -23 -36 -35t-23.5 -21t-21.5 -16.5t-30 -19.5q-35 -16 -76.5 -39.5t-88.5 -40.5q-82 -29 -161 -42t-157 -13q-184 0 -272 31 q-150 51 -150 178zM371 571h61q37 0 88 4.5t105.5 15.5t107.5 30.5t94 50.5l37 37q14 12 15 34q0 6 -5 23q0 2 -2 4h2q-16 6 -55 6q-61 -2 -137 -26.5t-174 -77.5q-35 -18 -56.5 -31.5t-37 -25t-24.5 -21.5t-19 -23zM479 1104q25 16 57.5 38.5t64.5 43t57.5 36t35.5 19.5 q39 27 59.5 47.5t36 32.5t33 18.5t51.5 6.5q43 -2 87.5 -51.5t97.5 -110.5q16 -14 29.5 -26.5t21.5 -24.5q6 -16 6 -25q0 -14 -8 -25q-20 -16 -43 -16q-14 0 -33 6q-39 12 -90 48t-86 81l-104 -61v2q-45 -25 -89.5 -34t-74.5 -9q-10 2 -25 2q-12 0 -28 2q-10 2 -19 2h-10 q-12 0 -17 -2h-10z" />
<glyph unicode="&#xeb;" horiz-adv-x="1081" d="M8 209v6q0 262 342 524q119 94 238 127t243 33q70 0 124.5 -20.5t72.5 -77.5q2 -10 3 -19.5t1 -19.5q0 -27 -8 -57q-23 -74 -87.5 -128.5t-149.5 -91t-180 -56t-177 -21.5h-33q-41 0 -81 3t-74 11q-23 -16 -44.5 -56t-33.5 -92l-3 -15t-1 -7q0 -51 69 -84 q35 -16 83 -26.5t96 -10.5q63 0 141 12.5t156 34.5q31 6 54 12.5t49 15.5t61.5 22.5t91.5 33.5q63 18 88 19h6q4 -4 4 -7q0 -12 -35 -47q-23 -23 -36 -35t-23.5 -21t-21.5 -16.5t-30 -19.5q-35 -16 -76.5 -39.5t-88.5 -40.5q-82 -29 -161 -42t-157 -13q-184 0 -272 31 q-150 51 -150 178zM371 571h61q37 0 88 4.5t105.5 15.5t107.5 30.5t94 50.5l37 37q14 12 15 34q0 6 -5 23q0 2 -2 4h2q-16 6 -55 6q-61 -2 -137 -26.5t-174 -77.5q-35 -18 -56.5 -31.5t-37 -25t-24.5 -21.5t-19 -23zM559 1190q0 10 2 16q4 31 25 58q16 29 50 49t87 41 q6 -33 12 -58.5t6 -48.5q0 -10 -4 -29.5t-8 -29.5q-12 -33 -33 -55q-23 -25 -69 -25h-9q-14 0 -31.5 8t-21.5 31q-6 20 -6 43zM911 1182q0 10 2 16q4 33 23 57q16 29 51 49.5t88 43.5q6 -35 12.5 -60.5t6.5 -48.5q0 -10 -4.5 -28.5t-8.5 -28.5q-10 -27 -34 -58 q-23 -25 -68 -24h-8q-14 0 -31.5 8t-21.5 33q-6 20 -7 41z" />
<glyph unicode="&#xec;" horiz-adv-x="548" d="M55 61q0 43 15 89q14 57 39.5 117.5t44.5 97.5q18 45 46.5 108.5t60.5 127t63.5 118.5t56.5 84q20 18 32.5 28.5t25 16.5t26.5 8t39 4q2 -8 2 -26q0 -10 -1 -20.5t-3 -20.5q-6 -31 -23 -82q-25 -74 -55.5 -141.5t-44.5 -98.5q-4 -12 -14.5 -42t-42.5 -114 q-12 -20 -27.5 -56t-35 -77t-41 -81t-46.5 -66q-31 -35 -66 -35h-6q-39 2 -43 47q-2 4 -2 14zM98 1280q13 -4 33.5 -8t43 -8t43 -8.5t30.5 -6.5q53 -12 119.5 -29.5t129 -38t112.5 -47t71 -57.5q6 -16 6 -28t-6 -27q-14 -20 -45 -25q-6 -2 -19 -2q-23 0 -49 6 q-37 8 -77.5 23.5t-79.5 28.5q-39 10 -69 17t-71 22q-72 27 -123 73q-16 37 -24 53.5t-12.5 24.5t-6.5 14.5t-6 22.5z" />
<glyph unicode="&#xed;" horiz-adv-x="548" d="M55 61q0 43 15 89q14 57 39.5 117.5t44.5 97.5q18 45 46.5 108.5t60.5 127t63.5 118.5t56.5 84q20 18 32.5 28.5t25 16.5t26.5 8t39 4q2 -8 2 -26q0 -10 -1 -20.5t-3 -20.5q-6 -31 -23 -82q-25 -74 -55.5 -141.5t-44.5 -98.5q-4 -12 -14.5 -42t-42.5 -114 q-12 -20 -27.5 -56t-35 -77t-41 -81t-46.5 -66q-31 -35 -66 -35h-6q-39 2 -43 47q-2 4 -2 14zM344 958q0 29 25 52q23 27 64.5 48t90.5 39.5t98.5 34t86.5 27.5q8 2 25.5 6t35.5 8.5t35.5 8.5t28.5 8q-4 -16 -5.5 -22.5t-4.5 -14.5t-9 -25.5t-18 -54.5h-4q-39 -45 -103 -72 q-35 -14 -58.5 -21t-56.5 -17q-33 -12 -66.5 -27.5t-64.5 -24.5q-18 -8 -43 -8q-8 0 -12 2q-23 2 -39 25q-6 14 -6 28z" />
<glyph unicode="&#xee;" horiz-adv-x="548" d="M55 61q0 43 15 89q14 57 39.5 117.5t44.5 97.5q18 45 46.5 108.5t60.5 127t63.5 118.5t56.5 84q20 18 32.5 28.5t25 16.5t26.5 8t39 4q2 -8 2 -26q0 -10 -1 -20.5t-3 -20.5q-6 -31 -23 -82q-25 -74 -55.5 -141.5t-44.5 -98.5q-4 -12 -14.5 -42t-42.5 -114 q-12 -20 -27.5 -56t-35 -77t-41 -81t-46.5 -66q-31 -35 -66 -35h-6q-39 2 -43 47q-2 4 -2 14zM197 1042q25 16 57.5 39t64 43.5t57 36t36.5 19.5q39 27 59.5 47t35.5 32.5t32.5 18.5t52.5 6q43 -2 87 -51t97 -111q16 -14 29.5 -26.5t21.5 -24.5q6 -16 7 -24q0 -14 -9 -25 q-20 -16 -43 -16q-14 0 -32 6q-39 12 -90.5 48t-86.5 81l-104 -62v2q-45 -25 -89 -34t-75 -9q-10 2 -24 2q-12 0 -29 2q-10 2 -19 2h-10q-12 0 -16 -2h-10z" />
<glyph unicode="&#xef;" horiz-adv-x="548" d="M55 61q0 43 15 89q14 57 39.5 117.5t44.5 97.5q18 45 46.5 108.5t60.5 127t63.5 118.5t56.5 84q20 18 32.5 28.5t25 16.5t26.5 8t39 4q2 -8 2 -26q0 -10 -1 -20.5t-3 -20.5q-6 -31 -23 -82q-25 -74 -55.5 -141.5t-44.5 -98.5q-4 -12 -14.5 -42t-42.5 -114 q-12 -20 -27.5 -56t-35 -77t-41 -81t-46.5 -66q-31 -35 -66 -35h-6q-39 2 -43 47q-2 4 -2 14zM272 1104q0 10 2 16q4 31 25 58q16 29 50 49t87 41q6 -33 12.5 -58.5t6.5 -48.5q0 -10 -4.5 -29.5t-8.5 -29.5q-12 -33 -32 -55q-23 -25 -70 -25h-8q-14 0 -31.5 8t-21.5 31 q-6 20 -7 43zM625 1096q0 10 2 16q4 33 22 57q16 29 51 49.5t88 43.5q7 -35 13 -60.5t6 -48.5q0 -10 -4 -28.5t-8 -28.5q-10 -27 -35 -58q-23 -25 -68 -24h-8q-14 0 -31.5 8t-21.5 33q-6 20 -6 41z" />
<glyph unicode="&#xf1;" horiz-adv-x="878" d="M-6 70v10q0 33 20 92q18 47 45 102.5t52.5 105.5t45 87t23.5 47q14 33 35 77t44.5 91t46 93t40.5 83q16 31 49 62.5t62 31.5q23 0 30 -26q10 -31 11 -56q0 -18 -2 -26q-4 -20 -9.5 -40t-11.5 -42q59 51 126 89t122 54q27 6 46 9.5t36 5.5h8q20 0 37 -7q14 -10 20.5 -28.5 t12.5 -48.5q2 -10 2 -19v-18q0 -39 -6 -78q-18 -96 -58.5 -203.5t-87.5 -206.5q-31 -70 -57.5 -124t-59 -96t-73.5 -70.5t-101 -49.5q-4 10 -10 25.5t-10 32.5q-6 14 -6 26q0 20 10 41q23 49 63.5 120t98.5 194q12 27 33.5 63.5t43 75.5t39 72.5t21.5 54.5q8 25 8 45 q0 10 -4 22q-8 20 -35 21q-25 0 -59.5 -16.5t-71.5 -43t-70.5 -60.5t-56.5 -69q-43 -63 -86 -142t-100 -179q-25 -41 -52.5 -91t-50.5 -91q-16 -29 -55 -52.5t-74 -46.5q-18 29 -20 39.5t-2 26.5v12q0 8 -2 19zM365 1104q41 86 85 155.5t93 106.5l-2 -2q96 84 178 84 q53 0 84 -45t45 -131v2q8 -37 14 -37q12 0 41 16.5t62 42.5q51 43 89 70t58 29l37 -56q-29 -53 -68 -102t-81 -86t-84 -59.5t-76 -22.5q-53 0 -83 36t-44 107q-11 84 -21 84q-45 0 -121 -69q-45 -45 -106.5 -76t-99.5 -47z" />
<glyph unicode="&#xf2;" horiz-adv-x="1095" d="M20 188v21q0 96 72 235q78 152 238 306q82 76 156.5 117.5t138 62t113.5 26t83 5.5q45 0 93.5 -25t87 -76t63.5 -127t25 -178q0 -117 -89.5 -216t-224.5 -185q-250 -152 -475 -152q-115 0 -197 37q-41 29 -60 65.5t-24 83.5zM170 240q0 -47 39 -72q33 -20 98 -21 q92 0 184.5 21.5t186.5 81.5q80 53 147.5 106.5t102.5 130.5q20 43 20 109v10q-2 27 -6 59.5t-18 59.5q-20 39 -53 60.5t-74 21.5q-68 0 -154 -32t-197 -122q-55 -51 -104 -106t-86 -108.5t-60.5 -102.5t-25.5 -88v-8zM608 1454q13 -4 33.5 -8t43 -8t43 -8.5t30.5 -6.5 q53 -12 119.5 -29.5t129 -38t112.5 -47t71 -57.5q6 -16 6 -28t-6 -27q-14 -20 -45 -25q-6 -2 -19 -2q-23 0 -49 7q-37 8 -78 23t-79 28q-39 10 -69 17t-71 22q-72 27 -123 73q-16 37 -24 53.5t-12.5 24.5t-6.5 14.5t-6 22.5z" />
<glyph unicode="&#xf3;" horiz-adv-x="1095" d="M20 188v21q0 96 72 235q78 152 238 306q82 76 156.5 117.5t138 62t113.5 26t83 5.5q45 0 93.5 -25t87 -76t63.5 -127t25 -178q0 -117 -89.5 -216t-224.5 -185q-250 -152 -475 -152q-115 0 -197 37q-41 29 -60 65.5t-24 83.5zM170 240q0 -47 39 -72q33 -20 98 -21 q92 0 184.5 21.5t186.5 81.5q80 53 147.5 106.5t102.5 130.5q20 43 20 109v10q-2 27 -6 59.5t-18 59.5q-20 39 -53 60.5t-74 21.5q-68 0 -154 -32t-197 -122q-55 -51 -104 -106t-86 -108.5t-60.5 -102.5t-25.5 -88v-8zM627 1171q0 29 24 52q23 27 65 48t91 39.5t98 34 t86 27.5q8 2 25.5 6t36 8.5t36 8.5t27.5 8q-4 -16 -5 -22.5t-4 -14.5t-9 -25.5t-19 -54.5h-4q-39 -45 -102 -72q-35 -14 -58.5 -21t-56.5 -17q-33 -12 -66.5 -27.5t-64.5 -24.5q-18 -8 -43 -8q-8 0 -12 2q-23 2 -39 25q-6 14 -6 28z" />
<glyph unicode="&#xf4;" horiz-adv-x="1095" d="M20 188v21q0 96 72 235q78 152 238 306q82 76 156.5 117.5t138 62t113.5 26t83 5.5q45 0 93.5 -25t87 -76t63.5 -127t25 -178q0 -117 -89.5 -216t-224.5 -185q-250 -152 -475 -152q-115 0 -197 37q-41 29 -60 65.5t-24 83.5zM170 240q0 -47 39 -72q33 -20 98 -21 q92 0 184.5 21.5t186.5 81.5q80 53 147.5 106.5t102.5 130.5q20 43 20 109v10q-2 27 -6 59.5t-18 59.5q-20 39 -53 60.5t-74 21.5q-68 0 -154 -32t-197 -122q-55 -51 -104 -106t-86 -108.5t-60.5 -102.5t-25.5 -88v-8zM514 1171q25 16 57.5 39t64.5 43.5t57.5 36t35.5 19.5 q39 27 59.5 47t36 32.5t32.5 18.5t52 6q43 -2 87 -51t98 -111q16 -14 29.5 -26.5t21.5 -24.5q6 -16 6 -24q0 -14 -8 -25q-20 -16 -43 -16q-14 0 -33 6q-39 12 -90 48t-86 81l-105 -62v2q-45 -25 -89 -34t-74 -9q-10 2 -25 2q-12 0 -29 2q-10 2 -18 3h-10q-12 0 -17 -3h-10z " />
<glyph unicode="&#xf5;" horiz-adv-x="1095" d="M20 188v21q0 96 72 235q78 152 238 306q82 76 156.5 117.5t138 62t113.5 26t83 5.5q45 0 93.5 -25t87 -76t63.5 -127t25 -178q0 -117 -89.5 -216t-224.5 -185q-250 -152 -475 -152q-115 0 -197 37q-41 29 -60 65.5t-24 83.5zM170 240q0 -47 39 -72q33 -20 98 -21 q92 0 184.5 21.5t186.5 81.5q80 53 147.5 106.5t102.5 130.5q20 43 20 109v10q-2 27 -6 59.5t-18 59.5q-20 39 -53 60.5t-74 21.5q-68 0 -154 -32t-197 -122q-55 -51 -104 -106t-86 -108.5t-60.5 -102.5t-25.5 -88v-8zM473 1161q41 86 85 155.5t93 106.5l-2 -2q96 84 178 84 q53 0 84 -45t45 -131v2q8 -37 15 -37q12 0 40.5 16.5t61.5 43.5q51 43 89 69.5t59 28.5l36 -55q-29 -53 -67.5 -102.5t-80.5 -86.5t-84 -59.5t-77 -22.5q-53 0 -82.5 36t-44.5 108q-10 84 -20 84q-45 0 -121 -70q-45 -45 -106.5 -75.5t-100.5 -47.5z" />
<glyph unicode="&#xf6;" horiz-adv-x="1095" d="M20 188v21q0 96 72 235q78 152 238 306q82 76 156.5 117.5t138 62t113.5 26t83 5.5q45 0 93.5 -25t87 -76t63.5 -127t25 -178q0 -117 -89.5 -216t-224.5 -185q-250 -152 -475 -152q-115 0 -197 37q-41 29 -60 65.5t-24 83.5zM170 240q0 -47 39 -72q33 -20 98 -21 q92 0 184.5 21.5t186.5 81.5q80 53 147.5 106.5t102.5 130.5q20 43 20 109v10q-2 27 -6 59.5t-18 59.5q-20 39 -53 60.5t-74 21.5q-68 0 -154 -32t-197 -122q-55 -51 -104 -106t-86 -108.5t-60.5 -102.5t-25.5 -88v-8zM608 1243q0 10 2 17q4 31 25 57q16 29 50 49t87 41 q6 -33 12.5 -58.5t6.5 -48.5q0 -10 -4.5 -29.5t-8.5 -29.5q-12 -33 -33 -55q-23 -25 -69 -25h-8q-14 0 -32 8.5t-22 30.5q-6 20 -6 43zM961 1235q0 10 2 16q4 33 22 58q16 29 51 49t88 43q6 -35 12.5 -60.5t6.5 -48.5q0 -10 -4 -28.5t-9 -28.5q-10 -27 -34 -57 q-23 -25 -68 -25h-8q-14 0 -31.5 8t-21.5 33q-6 20 -6 41z" />
<glyph unicode="&#xf8;" horiz-adv-x="1292" d="M213 455v55q0 14 2 31q6 88 52 194.5t165 218.5q123 111 226.5 154t179.5 51q14 37 37.5 86t53 93t63.5 76t71 34l-8 -234l-31 -77q68 -41 118 -134.5t50 -242.5q0 -117 -89 -216.5t-224 -185.5q-82 -49 -153 -75.5t-128 -36.5q-129 -205 -213 -240h-10q-53 0 -68 21 q-16 16 -16 43q0 8 2 14q4 35 28.5 79t55.5 89q-66 16 -110 57t-52 119q-2 14 -2 27zM346 516q0 -12 4 -33q8 -47 53 -75q29 -20 62 -27q4 4 5 9t5 9q20 39 53 94.5t66 113t61.5 111.5t40.5 91q20 47 38 92t36 88q-47 -16 -102.5 -47t-118.5 -84q-74 -68 -122 -137.5 t-67 -128.5q-14 -37 -14 -76zM690 412q23 10 45.5 21t44.5 22q80 53 147.5 106t102.5 131q20 43 21 109v10q-2 27 -6.5 59.5t-18.5 59.5q-29 47 -65 67q-35 -79 -72 -161t-73 -159t-68.5 -145.5t-57.5 -119.5z" />
<glyph unicode="&#xf9;" d="M35 274q0 74 28 172q43 113 111 207q55 74 89 115t60.5 63.5t52 32.5t64.5 21l6 -25v-16q0 -29 -16 -111q-12 -23 -19.5 -33t-18.5 -23t-30.5 -38t-56.5 -76q-47 -59 -78.5 -125.5t-31.5 -138.5q0 -57 14 -86q27 -49 98 -49q68 0 126.5 10t117.5 37q59 25 114.5 85 t106.5 143t99.5 182.5t93.5 201.5q8 8 29.5 24.5t64.5 41.5q10 -20 12 -64.5t2 -79.5v-32q-4 -18 -19.5 -59.5t-32.5 -85.5t-34.5 -81.5t-25.5 -52.5q-35 -61 -58.5 -102t-47.5 -72t-50.5 -58.5t-67.5 -62.5q-100 -86 -206.5 -110.5t-223.5 -24.5q-106 0 -183 57.5 t-87 184.5q-2 10 -2 28zM584 1368q12 -4 32.5 -8t43 -8t43 -8.5t30.5 -6.5q53 -12 120 -29.5t129 -38t112.5 -47t70.5 -57.5q6 -16 6 -28t-6 -27q-14 -20 -45 -25q-6 -2 -18 -2q-23 0 -49 7q-37 8 -78 23t-80 28q-39 10 -68.5 17t-70.5 22q-72 26 -123 73q-16 37 -24.5 53.5 t-12.5 24.5t-6 14.5t-6 22.5zM965 823q2 2 2 4t2 4z" />
<glyph unicode="&#xfa;" d="M35 274q0 74 28 172q43 113 111 207q55 74 89 115t60.5 63.5t52 32.5t64.5 21l6 -25v-16q0 -29 -16 -111q-12 -23 -19.5 -33t-18.5 -23t-30.5 -38t-56.5 -76q-47 -59 -78.5 -125.5t-31.5 -138.5q0 -57 14 -86q27 -49 98 -49q68 0 126.5 10t117.5 37q59 25 114.5 85 t106.5 143t99.5 182.5t93.5 201.5q8 8 29.5 24.5t64.5 41.5q10 -20 12 -64.5t2 -79.5v-32q-4 -18 -19.5 -59.5t-32.5 -85.5t-34.5 -81.5t-25.5 -52.5q-35 -61 -58.5 -102t-47.5 -72t-50.5 -58.5t-67.5 -62.5q-100 -86 -206.5 -110.5t-223.5 -24.5q-106 0 -183 57.5 t-87 184.5q-2 10 -2 28zM606 1073q0 29 25 51q23 27 64.5 48.5t91 40t98.5 34t86 27.5q8 2 25.5 6t36 8t35.5 8t28 9q-4 -16 -5 -22.5t-4.5 -14.5t-9.5 -25.5t-18 -54.5h-4q-39 -45 -103 -72q-35 -14 -58.5 -21.5t-55.5 -17.5q-33 -12 -67 -27.5t-64 -23.5q-18 -8 -43 -8 q-8 0 -13 2q-23 2 -39 24q-6 14 -6 29zM965 823q2 2 2 4t2 4z" />
<glyph unicode="&#xfb;" d="M35 274q0 74 28 172q43 113 111 207q55 74 89 115t60.5 63.5t52 32.5t64.5 21l6 -25v-16q0 -29 -16 -111q-12 -23 -19.5 -33t-18.5 -23t-30.5 -38t-56.5 -76q-47 -59 -78.5 -125.5t-31.5 -138.5q0 -57 14 -86q27 -49 98 -49q68 0 126.5 10t117.5 37q59 25 114.5 85 t106.5 143t99.5 182.5t93.5 201.5q8 8 29.5 24.5t64.5 41.5q10 -20 12 -64.5t2 -79.5v-32q-4 -18 -19.5 -59.5t-32.5 -85.5t-34.5 -81.5t-25.5 -52.5q-35 -61 -58.5 -102t-47.5 -72t-50.5 -58.5t-67.5 -62.5q-100 -86 -206.5 -110.5t-223.5 -24.5q-106 0 -183 57.5 t-87 184.5q-2 10 -2 28zM492 1153q25 16 57.5 38.5t64 43t57 36t36.5 19.5q39 27 59 47.5t35.5 32.5t33 18.5t52.5 6.5q43 -2 87 -51.5t97 -110.5q16 -14 29.5 -26.5t21.5 -24.5q6 -16 6 -25q0 -14 -8 -24q-20 -16 -43 -17q-15 0 -33 6q-39 12 -90 48t-86 81l-104 -61v2 q-45 -25 -89 -34t-75 -9q-10 2 -25 2q-12 0 -28 2q-10 2 -19 2h-10q-12 0 -16 -2h-10zM965 823q2 2 2 4t2 4z" />
<glyph unicode="&#xfc;" d="M35 274q0 74 28 172q43 113 111 207q55 74 89 115t60.5 63.5t52 32.5t64.5 21l6 -25v-16q0 -29 -16 -111q-12 -23 -19.5 -33t-18.5 -23t-30.5 -38t-56.5 -76q-47 -59 -78.5 -125.5t-31.5 -138.5q0 -57 14 -86q27 -49 98 -49q68 0 126.5 10t117.5 37q59 25 114.5 85 t106.5 143t99.5 182.5t93.5 201.5q8 8 29.5 24.5t64.5 41.5q10 -20 12 -64.5t2 -79.5v-32q-4 -18 -19.5 -59.5t-32.5 -85.5t-34.5 -81.5t-25.5 -52.5q-35 -61 -58.5 -102t-47.5 -72t-50.5 -58.5t-67.5 -62.5q-100 -86 -206.5 -110.5t-223.5 -24.5q-106 0 -183 57.5 t-87 184.5q-2 10 -2 28zM569 1171q0 10 2 17q5 30 25 57q16 29 50 49.5t87 40.5q6 -33 12.5 -58.5t6.5 -47.5q0 -10 -4.5 -29.5t-8.5 -30.5q-12 -33 -32 -55q-23 -25 -70 -24h-8q-14 0 -31.5 8t-22.5 30q-6 20 -6 43zM922 1163q0 10 2 17q4 32 22 57q16 29 51 49.5t88 42.5 q6 -35 12.5 -60.5t6.5 -47.5q0 -10 -4 -28.5t-8 -29.5q-10 -27 -35 -57q-23 -25 -68 -25h-8q-14 0 -31.5 8.5t-21.5 32.5q-6 20 -6 41zM965 823q2 2 2 4t2 4z" />
<glyph unicode="&#xfd;" horiz-adv-x="1021" d="M16 145v21q4 23 11.5 62.5t42.5 115.5q16 37 33.5 72t41 71.5t55 78.5t76.5 91q18 20 47 56.5t60 74t60.5 67.5t48.5 38q12 4 36 8h11q10 0 30 -4q16 -6 27 -25v-10q0 -20 -14 -47q-8 -18 -32 -49t-58.5 -77t-82 -110.5t-102.5 -152.5q-37 -43 -63.5 -92t-38.5 -88 q-8 -25 -8 -47q0 -12 2 -19q2 -18 22 -18q8 0 12 2q156 57 322 217q39 39 113.5 124t179.5 220h-2q160 197 297 242l-13 -84q-6 -43 -174 -338q-27 -47 -64.5 -104.5t-80.5 -123.5q-53 -78 -111.5 -166t-115.5 -188q-47 -78 -96.5 -166t-98.5 -172t-98 -155.5t-96 -116.5 q-49 -55 -117 -70h-10q-25 0 -35 17q-12 23 -15 65q8 45 38 102.5t70 120t84 125t79 115.5q31 41 65.5 89t68.5 94t61.5 88t43.5 71q-16 -12 -37.5 -28.5t-39.5 -28.5q-150 -106 -248 -113h-39q-23 0 -45.5 6t-45 20.5t-38.5 41.5q-18 27 -19 77zM713 1202q0 29 24 51 q23 27 65 48.5t91 40t98 34t86 27.5q8 2 25.5 6t36 8t36 8.5t27.5 8.5q-4 -16 -5 -22.5t-4 -14.5t-9 -25.5t-19 -54.5h-4q-39 -45 -102 -72q-35 -14 -58.5 -21t-56.5 -18q-33 -12 -66.5 -27.5t-64.5 -23.5q-18 -8 -43 -8q-8 0 -12 2q-23 2 -39 25q-6 14 -6 28z" />
<glyph unicode="&#xff;" horiz-adv-x="1021" d="M16 145v21q4 23 11.5 62.5t42.5 115.5q16 37 33.5 72t41 71.5t55 78.5t76.5 91q18 20 47 56.5t60 74t60.5 67.5t48.5 38q12 4 36 8h11q10 0 30 -4q16 -6 27 -25v-10q0 -20 -14 -47q-8 -18 -32 -49t-58.5 -77t-82 -110.5t-102.5 -152.5q-37 -43 -63.5 -92t-38.5 -88 q-8 -25 -8 -47q0 -12 2 -19q2 -18 22 -18q8 0 12 2q156 57 322 217q39 39 113.5 124t179.5 220h-2q160 197 297 242l-13 -84q-6 -43 -174 -338q-27 -47 -64.5 -104.5t-80.5 -123.5q-53 -78 -111.5 -166t-115.5 -188q-47 -78 -96.5 -166t-98.5 -172t-98 -155.5t-96 -116.5 q-49 -55 -117 -70h-10q-25 0 -35 17q-12 23 -15 65q8 45 38 102.5t70 120t84 125t79 115.5q31 41 65.5 89t68.5 94t61.5 88t43.5 71q-16 -12 -37.5 -28.5t-39.5 -28.5q-150 -106 -248 -113h-39q-23 0 -45.5 6t-45 20.5t-38.5 41.5q-18 27 -19 77zM659 1231q0 10 3 16 q4 31 24 58q16 29 50 49t87 41q6 -33 12.5 -58.5t6.5 -48.5q0 -10 -4 -29.5t-9 -29.5q-12 -33 -32 -55q-23 -25 -70 -25h-8q-14 0 -31.5 8t-21.5 31q-6 20 -7 43zM1012 1223q0 10 2 16q4 33 22 57q16 29 51 49.5t89 43.5q6 -35 12 -60.5t6 -48.5q0 -10 -4 -28.5t-8 -28.5 q-10 -27 -35 -58q-23 -25 -68 -24h-8q-14 0 -31.5 8t-21.5 33q-6 20 -6 41z" />
<glyph unicode="&#x153;" horiz-adv-x="1593" d="M25 188v21q0 96 71 235q78 152 238 306q82 76 156.5 117.5t138 62t114 26t82.5 5.5q49 0 100.5 -30t92.5 -89q78 33 155.5 46t159.5 13q70 0 124 -20.5t73 -77.5q2 -10 3 -19.5t1 -19.5q0 -27 -8 -57q-18 -59 -65.5 -107.5t-112 -83.5t-139 -58.5t-148.5 -35.5 q-39 -76 -110.5 -142.5t-170.5 -125.5q-2 -2 -4 -2q61 -18 133 -19q63 0 141 12.5t156 34.5q31 6 54.5 12.5t49 15.5t61.5 22.5t91 33.5q63 18 88 19h6q4 -4 5 -7q0 -12 -35 -47q-23 -23 -36 -35t-23.5 -21t-21.5 -16t-30 -20q-35 -16 -77 -39.5t-89 -40.5 q-82 -29 -160.5 -42t-156.5 -13q-184 0 -273 31q-18 6 -33.5 12t-29.5 16q-76 -31 -148.5 -45t-142.5 -14q-115 0 -196 37q-41 29 -60.5 65.5t-23.5 83.5zM174 240q0 -47 39 -72q33 -20 98 -21q51 0 100.5 5.5t100.5 19.5q-2 6 -2 18v27q0 262 342 524q10 8 20.5 15.5 t20.5 15.5q-41 35 -92 35q-68 0 -154 -32t-196 -122q-56 -51 -105 -106t-86 -108.5t-60.5 -102.5t-25.5 -88v-8zM662 238q4 4 10 6t10 6q55 39 108.5 75.5t92.5 84.5q-37 0 -72 3t-68 11q-23 -16 -44 -56t-33 -92l-3 -15t-1 -7v-16zM872 573h78q2 6 2 33q-2 6 -2 17v18 q-33 -20 -48 -34.5t-30 -33.5zM1075 707q6 -29 10.5 -57.5t6.5 -63.5q63 10 126.5 31.5t110.5 56.5l37 37q14 12 14 34q0 6 -4 23q0 2 -2 4h2q-16 6 -55 6q-99 -1 -246 -71z" />
<glyph unicode="&#x2c6;" horiz-adv-x="1122" d="M395 1174q31 27 69 59.5t74.5 64t65.5 56t41 35.5q47 43 72.5 73.5t45 51t41 29.5t62.5 9q27 0 54.5 -19.5t57.5 -52t61.5 -73.5t66.5 -86q43 -37 63 -72q10 -25 11 -41q0 -18 -6 -32q-25 -25 -44 -27q-6 -2 -18 -2q-16 0 -35 6q-25 8 -53.5 25.5t-59 42t-60.5 54.5 t-54 60l-129 -92v2q-47 -41 -100.5 -58.5t-92.5 -17.5h-30q-23 0 -51.5 2.5t-38.5 2.5h-13z" />
<glyph unicode="&#x2dc;" horiz-adv-x="1251" d="M399 1182q41 86 86 154.5t95 103.5l-2 -2q102 84 180 84q53 0 82.5 -49.5t46.5 -126.5q4 -14 5 -24.5t5 -10.5q14 0 39 15t65 44v-2q49 43 108.5 72.5t113.5 34.5q-37 -66 -82 -125.5t-92.5 -105.5t-92.5 -73.5t-79 -27.5q-100 0 -125 143q-11 84 -21 84q-45 0 -121 -70 q-47 -43 -102 -72.5t-109 -45.5z" />
<glyph unicode="&#x2000;" horiz-adv-x="856" />
<glyph unicode="&#x2001;" horiz-adv-x="1712" />
<glyph unicode="&#x2002;" horiz-adv-x="856" />
<glyph unicode="&#x2003;" horiz-adv-x="1712" />
<glyph unicode="&#x2004;" horiz-adv-x="570" />
<glyph unicode="&#x2005;" horiz-adv-x="428" />
<glyph unicode="&#x2006;" horiz-adv-x="285" />
<glyph unicode="&#x2007;" horiz-adv-x="285" />
<glyph unicode="&#x2008;" horiz-adv-x="214" />
<glyph unicode="&#x2009;" horiz-adv-x="342" />
<glyph unicode="&#x200a;" horiz-adv-x="95" />
<glyph unicode="&#x2010;" d="M190 369v2l5 10q6 16 22 47t39 59q109 33 170 41.5t96 8.5q51 0 101 6q45 6 94 6q37 0 73.5 -2t77.5 -10l17 -111q-39 -12 -88 -22.5t-107 -16.5q-55 -4 -100 -7t-80 -3q-10 0 -25.5 -3t-38.5 -7h-88q-37 0 -64.5 1t-51.5 1h-52z" />
<glyph unicode="&#x2011;" d="M190 369v2l5 10q6 16 22 47t39 59q109 33 170 41.5t96 8.5q51 0 101 6q45 6 94 6q37 0 73.5 -2t77.5 -10l17 -111q-39 -12 -88 -22.5t-107 -16.5q-55 -4 -100 -7t-80 -3q-10 0 -25.5 -3t-38.5 -7h-88q-37 0 -64.5 1t-51.5 1h-52z" />
<glyph unicode="&#x2012;" d="M190 369v2l5 10q6 16 22 47t39 59q109 33 170 41.5t96 8.5q51 0 101 6q45 6 94 6q37 0 73.5 -2t77.5 -10l17 -111q-39 -12 -88 -22.5t-107 -16.5q-55 -4 -100 -7t-80 -3q-10 0 -25.5 -3t-38.5 -7h-88q-37 0 -64.5 1t-51.5 1h-52z" />
<glyph unicode="&#x2013;" horiz-adv-x="1355" d="M190 369v2l7 10q9 16 32.5 47t57.5 59q161 33 251 41.5t141 8.5q75 0 149 6q66 6 138 6q55 0 109 -2t114 -10l25 -111q-57 -12 -129.5 -22.5t-157.5 -16.5q-81 -4 -147.5 -7t-118.5 -3q-14 0 -37 -3t-57 -7h-129q-55 0 -95.5 1t-75.5 1h-77z" />
<glyph unicode="&#x2014;" horiz-adv-x="2379" d="M190 369v2l15 10q17 16 64.5 47t114.5 59q322 33 501.5 41.5t282.5 8.5q151 0 298 6q133 6 277 6q109 0 216.5 -2t228.5 -10l50 -111q-115 -12 -259.5 -22.5t-315.5 -16.5q-162 -4 -294.5 -7t-235.5 -3q-30 0 -75.5 -3t-113.5 -7h-259q-109 0 -190 1t-152 1h-153z" />
<glyph unicode="&#x2018;" horiz-adv-x="595" d="M467 1069q0 10 2 16q4 41 27.5 92.5t55.5 103.5t65.5 101.5t62.5 87.5q6 8 18.5 22.5t25.5 32t26.5 33t21.5 25.5q8 -18 11 -25.5t7.5 -16.5t10.5 -28.5t20 -62.5l-2 -4q-6 -39 -16 -73t-27 -66q-20 -39 -38.5 -63.5t-39.5 -53.5q-35 -53 -64.5 -109.5t-68.5 -81.5 q-16 -10 -33 -10q-12 0 -24 6q-41 29 -41 74z" />
<glyph unicode="&#x2019;" horiz-adv-x="595" d="M467 1069q0 10 2 16q4 41 27.5 92.5t55.5 103.5t65.5 101.5t62.5 87.5q6 8 18.5 22.5t25.5 32t26.5 33t21.5 25.5q8 -18 11 -25.5t7.5 -16.5t10.5 -28.5t20 -62.5l-2 -4q-6 -39 -16 -73t-27 -66q-20 -39 -38.5 -63.5t-39.5 -53.5q-35 -53 -64.5 -109.5t-68.5 -81.5 q-16 -10 -33 -10q-12 0 -24 6q-41 29 -41 74z" />
<glyph unicode="&#x201c;" horiz-adv-x="819" d="M256 1059q0 14 4 35q10 72 37 141.5t76 157.5q113 209 223 227q10 2 27 2q16 0 24 -2q27 -4 41 -12l17 -58q-20 -27 -39 -52t-39 -50q-23 -27 -43.5 -52.5t-40.5 -54.5q-23 -30 -39.5 -60t-30.5 -56q-6 -10 -10 -20.5t-7 -29t-5 -48t-5 -76.5q6 -49 46 -109 q-78 -18 -101 -18q-45 0 -80 22q-29 14 -45 62q-10 27 -10 51zM506 1176v22q0 12 2 27q18 90 92 188q45 57 96.5 90t118.5 43q23 0 56.5 -6t46.5 -37v-12q0 -18 -15 -45q-31 -16 -61.5 -33.5t-61.5 -38.5v2q-35 -26 -67.5 -69t-55.5 -105l-8 -16t-10 -21.5t-16.5 -36 t-26.5 -59.5l-23 -68q-39 29 -53 74q-14 31 -14 101z" />
<glyph unicode="&#x201d;" horiz-adv-x="1427" d="M731 1014l62 186q23 47 36 87t21 69q0 10 1 21.5t1 21.5l2 28q6 33 37 48q4 2 10 6t14 8q4 2 17 2q18 0 41 -8q27 -37 29 -60.5t2 -54.5l-23 -131q-40 -190 -233 -399zM1108 1059q20 59 34.5 92t37.5 76q12 23 22 45t17.5 50t12.5 63.5t7 84.5q-10 25 -23.5 38.5 l-25.5 25.5t-20.5 27.5t-8.5 44.5q4 20 18.5 38.5t63.5 22.5h10q41 0 72 -25q33 -31 55 -83q10 -23 17.5 -50.5t9.5 -81.5l-10 -100q-13 -61 -29 -101t-53 -71q-18 -16 -36.5 -32.5t-43.5 -30t-55.5 -22.5t-71.5 -11z" />
<glyph unicode="&#x2026;" horiz-adv-x="1353" d="M332 131v19q0 10 2 20q8 37 17 53.5t28 36.5q16 18 25.5 28.5t19.5 22.5q27 -16 43 -21t25.5 -7t15.5 -2t16 -5q16 -4 24.5 -25.5t14.5 -82.5l-14 -78q-17 -35 -51.5 -58.5t-65.5 -27.5q-33 16 -55.5 33.5t-32.5 40.5q-4 8 -6 15t-4 18q-2 6 -2 20zM668 135v17q0 8 2 18 q10 37 19 53.5t28 36.5q20 23 53 33q20 4 31 4q18 0 28 -2q29 -8 51.5 -33.5t28.5 -68.5q0 -10 -8 -25l-37 -98q-37 -46 -94 -66q-35 16 -56.5 33.5t-31.5 40.5q-10 16 -12 33q-2 6 -2 24zM995 131l2 12q0 6 1 13.5t3 17.5q8 43 24.5 65.5t39.5 32.5q16 8 41 9h6 q25 -4 55 -7q12 -2 21.5 -5t17.5 -15t14.5 -33.5t10.5 -60.5l-37 -97q-16 -22 -41 -37.5t-53 -25.5q-68 25 -88 70q-16 29 -17 61z" />
<glyph unicode="&#x202f;" horiz-adv-x="342" />
<glyph unicode="&#x2039;" horiz-adv-x="1531" d="M309 565v4q4 20 18.5 38t34.5 34q27 25 54.5 49.5t74 55t116 72.5t177.5 102q45 25 97.5 51t107.5 52t111.5 50.5t105.5 44.5q20 8 59.5 22.5t63.5 18.5q8 0 27.5 -7t45 -17.5t56.5 -24.5t62 -29q-72 -41 -161 -77.5t-202 -71.5q-47 -14 -108.5 -43t-127 -62.5 t-128 -69.5t-111.5 -67q-31 -23 -50.5 -38t-33.5 -28.5t-27.5 -27.5t-31.5 -33q51 -84 196 -137q14 -4 90 -24.5t205 -53.5q70 -16 116 -33.5t64 -46.5q10 -16 11 -32q0 -8 -2 -13q-12 -31 -32 -44t-40 -15q-8 -2 -23 -2q-16 0 -24 2q-12 2 -25 2h-20q-133 0 -430 129 q-164 71 -238 137q-78 66 -78 133z" />
<glyph unicode="&#x203a;" horiz-adv-x="1636" d="M457 334v10q12 59 49 93t108 73q18 10 40 20.5t44 24.5q25 12 122.5 59.5t271.5 128.5h-2q78 35 142 70t105 64q-94 20 -175 50.5t-147.5 65.5t-119.5 72t-92 70q-41 33 -73 62.5t-54 57.5q-39 45 -39 80q0 10 2 17q2 10 4 19t5 25.5t10.5 44t19.5 75.5l88 -111 q20 -27 62 -59.5t95.5 -67.5t114 -69.5t116.5 -63.5t103.5 -49.5t75.5 -26.5q76 -25 127 -42t84 -33.5t47.5 -37t14.5 -51.5q-12 -61 -95 -119q-22 -16 -51.5 -35.5t-64.5 -37.5q-66 -35 -129.5 -67t-126.5 -64q-119 -59 -237 -127t-234 -133q-16 -10 -34 -17.5t-36 -11.5 q-37 -10 -66 -10q-4 0 -6 2q-33 0 -53 14q-16 12 -16 35z" />
<glyph unicode="&#x205f;" horiz-adv-x="428" />
<glyph unicode="&#x20ac;" horiz-adv-x="1556" d="M84 209q0 86 34 161.5t75 159.5q-41 6 -41 25q0 2 -17.5 9t-19.5 20v2q0 12 26 26q29 16 119 35q8 0 10 2q45 63 105 129q-70 6 -119 16.5t-49 26.5l-4 10q-4 4 -4 9q0 6 6 12q6 12 37.5 25.5t105.5 25.5q57 10 99 16.5t75 10.5q18 16 35.5 32.5t38.5 32.5 q80 70 178 130.5t197.5 106.5t189.5 76.5t154 41.5q10 2 18 2h19q23 0 39 -6q66 -27 92 -80.5t26 -114.5t-20.5 -119.5t-48.5 -93.5v-2q-63 -100 -230 -119q14 31 35 70t42.5 80t43 80.5t37.5 70.5q2 10 3 18.5t1 16.5q0 14 -6 25q-12 14 -47 14q-39 0 -109.5 -24.5 t-150.5 -63.5t-157 -86t-126 -90q10 0 18.5 -1t18.5 -1q16 0 49 -3t64.5 -11.5t56.5 -24t25 -41.5q0 -29 -39 -55q-41 -10 -89.5 -15.5t-105.5 -7.5h-82q-47 0 -67.5 2t-32.5 2q-45 -45 -84 -90l-6 -6q25 -2 47 -3t43 -1q14 0 20 2h90q43 -2 84 -7t86 -20q45 -33 56 -63v-9 q0 -25 -47 -40q-41 -10 -90.5 -15.5t-106.5 -7.5h-84q-33 0 -64.5 1t-68.5 1h-92q-49 -82 -82 -139.5t-33 -122.5q0 -31 13.5 -50.5t37 -29.5t53 -14t62.5 -4q59 0 144 7t163 23q106 25 174 25h15q70 -2 82 -25q2 -2 2 -10q0 -16 -41 -45q-25 -16 -67 -34.5t-101 -35.5 q-72 -23 -132.5 -34t-114.5 -16t-105.5 -6t-102.5 -1q-125 0 -195 61q-29 29 -46 66t-17 80z" />
<glyph unicode="&#x2122;" horiz-adv-x="4483" d="M29 -383q0 63 24.5 124.5t59 118t70.5 106.5t61 93v7q0 25 -15.5 48t-15.5 50q0 39 22.5 67.5t53 50t64.5 39t59 33.5q8 6 21 18.5t28.5 25t31 21.5t31.5 9v-74q70 -25 107 -60.5t37 -107.5q0 -145 -148 -145q-27 0 -46 5t-37.5 11t-37 14.5t-43.5 14.5 q-8 -23 -28.5 -50.5t-42 -55t-42 -55t-28.5 -50.5q-4 -4 -15.5 -20.5t-13.5 -20.5q-4 -8 -20 -36.5t-34.5 -61.5t-36 -62.5t-21.5 -38.5q-8 -14 -18.5 -16t-26.5 -2zM283 150q0 -2 1 -10.5t1 -10.5q10 16 28.5 46t28.5 52q-29 -16 -44 -32.5t-15 -44.5zM397 158 q27 -23 47.5 -27t49.5 -4q12 0 30.5 2t33.5 8t26.5 17.5t11.5 29.5q0 41 -34 64.5t-70 23.5h-13l-10 -2zM735 86q0 4 1 14.5t1 14.5q10 20 34 70.5t50.5 105.5t50 105t33.5 71q2 6 10.5 30.5t17.5 54.5t17 54.5t13 30.5q2 6 11 27.5t19.5 46t21.5 48t17 34.5q16 29 43 60.5 t64 31.5q0 -31 -5.5 -50.5t-13.5 -37t-19 -38t-26 -52.5q-4 -10 -20.5 -54.5t-36 -93.5t-35.5 -93t-20.5 -54.5t-14.5 -32t-21.5 -46t-21.5 -47t-14 -30.5v-14q41 29 89 70.5t81 70.5h51q0 -31 -8 -58.5t-18.5 -53t-18.5 -52t-8 -55.5q0 -25 16.5 -33t34.5 -11t34.5 -9.5 t16.5 -28.5q0 -6 -1 -21.5t-15 -15.5h-141l-15 14q-20 27 -20 58q0 6 2 8q2 31 6 74q-4 0 -14.5 -5.5t-14.5 -7.5q-10 -6 -34.5 -26.5t-52 -43t-51.5 -43t-32 -28.5q-2 0 -6 -1t-8 -1q-20 0 -24.5 12.5t-4.5 30.5zM1186 88v12q0 39 7 80t24.5 75t47 55.5t72.5 21.5 q0 -31 -9 -56.5t-20.5 -51t-20.5 -51.5t-9 -54q10 0 24.5 -1t30.5 -3h10q27 0 41 14q2 2 4.5 10t4.5 17.5t4 18.5t2 11q8 23 30.5 72t53 108.5t66.5 123t74 114.5t74 85t64 34q14 0 48 -4t69 -11.5t61.5 -18.5t26.5 -23q0 -23 -17.5 -27t-35.5 -4h-21q-23 0 -42 1t-42 15 q-53 -129 -129.5 -230.5t-181.5 -193.5q-10 -18 -19.5 -40.5t-9.5 -45.5t16.5 -25.5t35.5 -2.5q33 0 49 16t24.5 41t14.5 52.5t18 52t36 41t69 16.5q0 -31 -9.5 -56.5t-19.5 -51t-19.5 -51.5t-9.5 -54q8 0 19.5 -1t27.5 -3h11q20 0 34 14q25 31 35 82t23.5 100t38 86 t77.5 37q0 -33 -9 -62.5t-21.5 -58t-21.5 -58.5t-9 -62v-7q57 41 111.5 94.5t99.5 102.5q2 0 7 1t7 1q23 0 27 -13.5t4 -31.5q0 -25 -7 -49.5t-15.5 -48t-15.5 -48t-7 -51.5v-28q12 0 26.5 -1t28 -5.5t22.5 -13.5t9 -23q0 -6 -2 -16.5t-12 -10.5h-113q-6 0 -13 7t-13.5 16.5 t-11.5 18.5t-5 13v21q0 20 3 46t3 32h-20q-6 -8 -26.5 -28.5l-43.5 -43.5t-43 -42t-29 -26q-4 -4 -13 -9t-13 -5h-410l-14 14h-15l-28 -14h-154q-10 0 -13 16.5t-3 26.5zM1407 711q10 0 36.5 -1t55.5 -6.5t50.5 -14.5t21.5 -23q0 -23 -17.5 -27t-35.5 -4h-21 q-45 0 -67.5 14.5t-22.5 61.5zM2146 -111q0 39 27 68t65.5 48.5t82.5 32.5t79 21l15 27q-31 -12 -53.5 -13t-53.5 -1h-49q-12 14 -14 23t-2 26q0 49 21.5 92t56 74.5t78.5 51t91 19.5q0 -43 -25.5 -65.5t-55 -39.5t-55 -38.5t-25.5 -64.5v-7q47 18 78.5 43t58 52.5 t53.5 57.5t64 58l4 2h4q18 0 20 -17t2 -30q0 -23 -12 -47t-29.5 -50t-34 -50.5t-24.5 -46.5q-2 -4 -8 -23.5t-13.5 -41t-13.5 -39t-8 -19.5q-6 -6 -23.5 -37t-38 -69t-39 -73.5t-26.5 -50.5q-4 -6 -15.5 -23.5t-24.5 -37.5t-25.5 -38.5t-18.5 -27.5q-20 -29 -28.5 -36 t-32.5 -7q-51 0 -52 58v239zM2198 -293h18q2 0 9 9.5t16.5 23.5t17.5 27.5t14 23.5q8 14 20.5 36.5t25 47.5t23.5 47.5t19 38.5l11 23q-63 0 -98.5 -23.5t-52.5 -61.5t-20 -88.5t-3 -103.5zM2830 125q29 0 60.5 -15.5t31.5 -50.5q0 -29 -36 -28q-21 0 -32 9t-16.5 23.5 t-6.5 31t-1 30.5zM3047 86v29q6 14 18.5 50t25 77t24.5 76.5t18 50.5q23 65 91 65q0 -33 -10.5 -62.5t-21.5 -58t-21.5 -58.5t-10.5 -62v-7q57 41 111.5 94.5t101.5 102.5l6 2h8q20 0 24.5 -13.5t4.5 -31.5q0 -25 -7 -49.5t-15.5 -48t-15.5 -48t-7 -51.5q0 -4 1 -14t1 -14 q10 0 25.5 -1t29 -5.5t22.5 -13.5t9 -23q0 -6 -2 -16.5t-14 -10.5h-113q-4 0 -11 7t-14.5 16.5t-12.5 18.5t-5 13q0 6 1 20.5t2 30t2 30t1 18.5h-18q-8 -8 -27.5 -28.5t-42 -43.5t-43 -42t-29.5 -26q-14 -12 -24 -14t-25 -2q-25 0 -31 10t-6 33zM3498 127q0 45 17.5 91 t47 83t70.5 60.5t88 23.5q25 0 48.5 -4t39.5 -27q0 -8 1 -31.5t1 -31.5q0 -76 -41 -121t-116 -70v-14q72 6 135 33.5t110 74t75 109t28 135.5h-109q-4 0 -9 11.5t-5 17.5q6 23 28.5 33t50 16t53.5 13.5t38 23.5q20 20 24.5 48t8.5 52.5t16 42t49 17.5v-166h39q8 0 19 2h49 q16 0 24 -2q35 -4 60.5 -19.5t25.5 -52.5h-217q-23 0 -39 -32.5t-29.5 -83t-24.5 -107.5t-23.5 -107.5t-26.5 -83t-33 -32.5q-18 0 -26.5 12t-10.5 31q-2 4 -2 20v12q2 6 2 15q0 8 2 10q-70 -68 -136 -91.5t-163 -23.5q-53 0 -96 27t-43 86zM3582 170q2 0 8 1t8 1 q13 4 36.5 10t37.5 13l10 4q8 6 20.5 16t24 21.5t19.5 20.5t8 13v45q-29 0 -58.5 -12t-55 -31.5t-42 -46t-16.5 -55.5z" />
<glyph unicode="&#xe000;" horiz-adv-x="1034" d="M0 0v1034h1034v-1034h-1034z" />
</font>
</defs>
</svg>
